<svg width="283" height="123" viewBox="0 0 283 123" fill="none" xmlns="http://www.w3.org/2000/svg">
<rect x="17.9999" width="265" height="102" rx="20" fill="white"/>
<path d="M12.207 112.808L18.2184 83.3438L39.3615 99.8883L12.207 112.808Z" fill="white"/>
<path d="M100.449 46V41.896L100.917 42.328H96.9745C95.9545 42.328 95.0725 42.154 94.3285 41.806C93.5965 41.458 93.0325 40.96 92.6365 40.312C92.2525 39.652 92.0605 38.86 92.0605 37.936C92.0605 36.976 92.2705 36.16 92.6905 35.488C93.1105 34.804 93.7045 34.288 94.4725 33.94C95.2405 33.58 96.1345 33.4 97.1545 33.4H102.213V46H100.449ZM92.0605 46L95.1745 41.536H97.0105L93.9685 46H92.0605ZM100.449 41.32V34.444L100.917 34.966H97.2265C96.1465 34.966 95.3185 35.218 94.7425 35.722C94.1665 36.214 93.8785 36.946 93.8785 37.918C93.8785 38.842 94.1485 39.556 94.6885 40.06C95.2405 40.564 96.0505 40.816 97.1185 40.816H100.917L100.449 41.32ZM112.769 46L109.079 41.356L110.501 40.492L114.803 46H112.769ZM105.857 46V36.46H107.585V46H105.857ZM107.063 41.968V40.492H110.213V41.968H107.063ZM110.645 41.428L109.043 41.212L112.697 36.46H114.551L110.645 41.428ZM116.614 46V36.46H118.342V43.408L124.192 36.46H125.758V46H124.03V39.052L118.198 46H116.614ZM129.112 46V36.46H130.84V43.408L136.69 36.46H138.256V46H136.528V39.052L130.696 46H129.112ZM133.576 35.218C132.7 35.218 132.01 35.008 131.506 34.588C131.014 34.156 130.762 33.538 130.75 32.734H131.92C131.932 33.19 132.082 33.55 132.37 33.814C132.67 34.078 133.066 34.21 133.558 34.21C134.05 34.21 134.446 34.078 134.746 33.814C135.046 33.55 135.202 33.19 135.214 32.734H136.42C136.408 33.538 136.15 34.156 135.646 34.588C135.142 35.008 134.452 35.218 133.576 35.218ZM151.502 46.108C150.71 46.108 149.984 45.928 149.324 45.568C148.676 45.196 148.154 44.65 147.758 43.93C147.374 43.21 147.182 42.31 147.182 41.23C147.182 40.15 147.368 39.25 147.74 38.53C148.124 37.81 148.64 37.27 149.288 36.91C149.948 36.55 150.686 36.37 151.502 36.37C152.438 36.37 153.266 36.574 153.986 36.982C154.706 37.39 155.276 37.96 155.696 38.692C156.116 39.412 156.326 40.258 156.326 41.23C156.326 42.202 156.116 43.054 155.696 43.786C155.276 44.518 154.706 45.088 153.986 45.496C153.266 45.904 152.438 46.108 151.502 46.108ZM146.444 49.492V36.46H148.1V39.034L147.992 41.248L148.172 43.462V49.492H146.444ZM151.358 44.596C151.97 44.596 152.516 44.458 152.996 44.182C153.488 43.906 153.872 43.516 154.148 43.012C154.436 42.496 154.58 41.902 154.58 41.23C154.58 40.546 154.436 39.958 154.148 39.466C153.872 38.962 153.488 38.572 152.996 38.296C152.516 38.02 151.97 37.882 151.358 37.882C150.758 37.882 150.212 38.02 149.72 38.296C149.24 38.572 148.856 38.962 148.568 39.466C148.292 39.958 148.154 40.546 148.154 41.23C148.154 41.902 148.292 42.496 148.568 43.012C148.856 43.516 149.24 43.906 149.72 44.182C150.212 44.458 150.758 44.596 151.358 44.596ZM164.599 46V43.984L164.509 43.606V40.168C164.509 39.436 164.293 38.872 163.861 38.476C163.441 38.068 162.805 37.864 161.953 37.864C161.389 37.864 160.837 37.96 160.297 38.152C159.757 38.332 159.301 38.578 158.929 38.89L158.209 37.594C158.701 37.198 159.289 36.898 159.973 36.694C160.669 36.478 161.395 36.37 162.151 36.37C163.459 36.37 164.467 36.688 165.175 37.324C165.883 37.96 166.237 38.932 166.237 40.24V46H164.599ZM161.467 46.108C160.759 46.108 160.135 45.988 159.595 45.748C159.067 45.508 158.659 45.178 158.371 44.758C158.083 44.326 157.939 43.84 157.939 43.3C157.939 42.784 158.059 42.316 158.299 41.896C158.551 41.476 158.953 41.14 159.505 40.888C160.069 40.636 160.825 40.51 161.773 40.51H164.797V41.752H161.845C160.981 41.752 160.399 41.896 160.099 42.184C159.799 42.472 159.649 42.82 159.649 43.228C159.649 43.696 159.835 44.074 160.207 44.362C160.579 44.638 161.095 44.776 161.755 44.776C162.403 44.776 162.967 44.632 163.447 44.344C163.939 44.056 164.293 43.636 164.509 43.084L164.851 44.272C164.623 44.836 164.221 45.286 163.645 45.622C163.069 45.946 162.343 46.108 161.467 46.108ZM169.349 46V36.46H171.077V44.488H176.297V36.46H178.025V46H169.349ZM177.899 48.214V45.91L178.331 46H176.297V44.488H179.537V48.214H177.899ZM181.776 46V36.46H183.504V46H181.776ZM182.64 34.624C182.304 34.624 182.022 34.516 181.794 34.3C181.578 34.084 181.47 33.82 181.47 33.508C181.47 33.184 181.578 32.914 181.794 32.698C182.022 32.482 182.304 32.374 182.64 32.374C182.976 32.374 183.252 32.482 183.468 32.698C183.696 32.902 183.81 33.16 183.81 33.472C183.81 33.796 183.702 34.072 183.486 34.3C183.27 34.516 182.988 34.624 182.64 34.624ZM190.96 46.108C190 46.108 189.148 45.898 188.404 45.478C187.66 45.058 187.072 44.482 186.64 43.75C186.208 43.006 185.992 42.166 185.992 41.23C185.992 40.282 186.208 39.442 186.64 38.71C187.072 37.978 187.66 37.408 188.404 37C189.148 36.58 190 36.37 190.96 36.37C191.908 36.37 192.754 36.58 193.498 37C194.254 37.408 194.842 37.978 195.262 38.71C195.694 39.43 195.91 40.27 195.91 41.23C195.91 42.178 195.694 43.018 195.262 43.75C194.842 44.482 194.254 45.058 193.498 45.478C192.754 45.898 191.908 46.108 190.96 46.108ZM190.96 44.596C191.572 44.596 192.118 44.458 192.598 44.182C193.09 43.906 193.474 43.516 193.75 43.012C194.026 42.496 194.164 41.902 194.164 41.23C194.164 40.546 194.026 39.958 193.75 39.466C193.474 38.962 193.09 38.572 192.598 38.296C192.118 38.02 191.572 37.882 190.96 37.882C190.348 37.882 189.802 38.02 189.322 38.296C188.842 38.572 188.458 38.962 188.17 39.466C187.882 39.958 187.738 40.546 187.738 41.23C187.738 41.902 187.882 42.496 188.17 43.012C188.458 43.516 188.842 43.906 189.322 44.182C189.802 44.458 190.348 44.596 190.96 44.596ZM198.405 46V36.46H200.133V40.51H205.569V36.46H207.297V46H205.569V42.004H200.133V46H198.405ZM53.4471 68L57.5511 62.672L57.5331 63.554L53.6271 58.46H55.5531L58.5411 62.384H57.8031L60.7911 58.46H62.6811L58.7211 63.59L58.7391 62.672L62.8791 68H60.9171L57.7671 63.824L58.4691 63.932L55.3731 68H53.4471ZM70.3716 68V65.984L70.2816 65.606V62.168C70.2816 61.436 70.0656 60.872 69.6336 60.476C69.2136 60.068 68.5776 59.864 67.7256 59.864C67.1616 59.864 66.6096 59.96 66.0696 60.152C65.5296 60.332 65.0736 60.578 64.7016 60.89L63.9816 59.594C64.4736 59.198 65.0616 58.898 65.7456 58.694C66.4416 58.478 67.1676 58.37 67.9236 58.37C69.2316 58.37 70.2396 58.688 70.9476 59.324C71.6556 59.96 72.0096 60.932 72.0096 62.24V68H70.3716ZM67.2396 68.108C66.5316 68.108 65.9076 67.988 65.3676 67.748C64.8396 67.508 64.4316 67.178 64.1436 66.758C63.8556 66.326 63.7116 65.84 63.7116 65.3C63.7116 64.784 63.8316 64.316 64.0716 63.896C64.3236 63.476 64.7256 63.14 65.2776 62.888C65.8416 62.636 66.5976 62.51 67.5456 62.51H70.5696V63.752H67.6176C66.7536 63.752 66.1716 63.896 65.8716 64.184C65.5716 64.472 65.4216 64.82 65.4216 65.228C65.4216 65.696 65.6076 66.074 65.9796 66.362C66.3516 66.638 66.8676 66.776 67.5276 66.776C68.1756 66.776 68.7396 66.632 69.2196 66.344C69.7116 66.056 70.0656 65.636 70.2816 65.084L70.6236 66.272C70.3956 66.836 69.9936 67.286 69.4176 67.622C68.8416 67.946 68.1156 68.108 67.2396 68.108ZM80.1792 68.108C79.3872 68.108 78.6612 67.928 78.0012 67.568C77.3532 67.196 76.8312 66.65 76.4352 65.93C76.0512 65.21 75.8592 64.31 75.8592 63.23C75.8592 62.15 76.0452 61.25 76.4172 60.53C76.8012 59.81 77.3172 59.27 77.9652 58.91C78.6252 58.55 79.3632 58.37 80.1792 58.37C81.1152 58.37 81.9432 58.574 82.6632 58.982C83.3832 59.39 83.9532 59.96 84.3732 60.692C84.7932 61.412 85.0032 62.258 85.0032 63.23C85.0032 64.202 84.7932 65.054 84.3732 65.786C83.9532 66.518 83.3832 67.088 82.6632 67.496C81.9432 67.904 81.1152 68.108 80.1792 68.108ZM75.1212 71.492V58.46H76.7772V61.034L76.6692 63.248L76.8492 65.462V71.492H75.1212ZM80.0352 66.596C80.6472 66.596 81.1932 66.458 81.6732 66.182C82.1652 65.906 82.5492 65.516 82.8252 65.012C83.1132 64.496 83.2572 63.902 83.2572 63.23C83.2572 62.546 83.1132 61.958 82.8252 61.466C82.5492 60.962 82.1652 60.572 81.6732 60.296C81.1932 60.02 80.6472 59.882 80.0352 59.882C79.4352 59.882 78.8892 60.02 78.3972 60.296C77.9172 60.572 77.5332 60.962 77.2452 61.466C76.9692 61.958 76.8312 62.546 76.8312 63.23C76.8312 63.902 76.9692 64.496 77.2452 65.012C77.5332 65.516 77.9172 65.906 78.3972 66.182C78.8892 66.458 79.4352 66.596 80.0352 66.596ZM93.5258 64.094C93.0218 64.334 92.4998 64.526 91.9598 64.67C91.4318 64.802 90.8858 64.868 90.3218 64.868C89.1698 64.868 88.2578 64.598 87.5858 64.058C86.9258 63.518 86.5958 62.684 86.5958 61.556V58.46H88.3238V61.448C88.3238 62.132 88.5338 62.636 88.9538 62.96C89.3858 63.284 89.9618 63.446 90.6818 63.446C91.1378 63.446 91.6058 63.386 92.0858 63.266C92.5778 63.146 93.0578 62.978 93.5258 62.762V64.094ZM93.3998 68V58.46H95.1278V68H93.3998ZM98.9685 71.6C98.5125 71.6 98.0685 71.522 97.6365 71.366C97.2045 71.222 96.8325 71.006 96.5205 70.718L97.2585 69.422C97.4985 69.65 97.7625 69.824 98.0505 69.944C98.3385 70.064 98.6445 70.124 98.9685 70.124C99.3885 70.124 99.7365 70.016 100.013 69.8C100.289 69.584 100.547 69.2 100.787 68.648L101.381 67.334L101.561 67.118L105.305 58.46H106.997L102.371 68.954C102.095 69.626 101.783 70.154 101.435 70.538C101.099 70.922 100.727 71.192 100.319 71.348C99.9105 71.516 99.4605 71.6 98.9685 71.6ZM101.237 68.306L96.8805 58.46H98.6805L102.389 66.956L101.237 68.306ZM108.766 68V58.46H113.194C114.31 58.46 115.186 58.676 115.822 59.108C116.47 59.528 116.794 60.128 116.794 60.908C116.794 61.688 116.488 62.294 115.876 62.726C115.276 63.146 114.478 63.356 113.482 63.356L113.752 62.888C114.892 62.888 115.738 63.098 116.29 63.518C116.842 63.938 117.118 64.556 117.118 65.372C117.118 66.2 116.806 66.848 116.182 67.316C115.57 67.772 114.628 68 113.356 68H108.766ZM110.458 66.668H113.23C113.95 66.668 114.49 66.56 114.85 66.344C115.21 66.116 115.39 65.756 115.39 65.264C115.39 64.76 115.222 64.394 114.886 64.166C114.562 63.926 114.046 63.806 113.338 63.806H110.458V66.668ZM110.458 62.564H113.05C113.71 62.564 114.208 62.444 114.544 62.204C114.892 61.952 115.066 61.604 115.066 61.16C115.066 60.704 114.892 60.362 114.544 60.134C114.208 59.906 113.71 59.792 113.05 59.792H110.458V62.564ZM125.672 68V65.984L125.582 65.606V62.168C125.582 61.436 125.366 60.872 124.934 60.476C124.514 60.068 123.878 59.864 123.026 59.864C122.462 59.864 121.91 59.96 121.37 60.152C120.83 60.332 120.374 60.578 120.002 60.89L119.282 59.594C119.774 59.198 120.362 58.898 121.046 58.694C121.742 58.478 122.468 58.37 123.224 58.37C124.532 58.37 125.54 58.688 126.248 59.324C126.956 59.96 127.31 60.932 127.31 62.24V68H125.672ZM122.54 68.108C121.832 68.108 121.208 67.988 120.668 67.748C120.14 67.508 119.732 67.178 119.444 66.758C119.156 66.326 119.012 65.84 119.012 65.3C119.012 64.784 119.132 64.316 119.372 63.896C119.624 63.476 120.026 63.14 120.578 62.888C121.142 62.636 121.898 62.51 122.846 62.51H125.87V63.752H122.918C122.054 63.752 121.472 63.896 121.172 64.184C120.872 64.472 120.722 64.82 120.722 65.228C120.722 65.696 120.908 66.074 121.28 66.362C121.652 66.638 122.168 66.776 122.828 66.776C123.476 66.776 124.04 66.632 124.52 66.344C125.012 66.056 125.366 65.636 125.582 65.084L125.924 66.272C125.696 66.836 125.294 67.286 124.718 67.622C124.142 67.946 123.416 68.108 122.54 68.108ZM130.422 68V58.46H132.15V62.51H137.586V58.46H139.314V68H137.586V64.004H132.15V68H130.422ZM142.674 68V58.46H144.402V62.51H149.838V58.46H151.566V68H149.838V64.004H144.402V68H142.674ZM161.028 68V64.652L161.298 64.976H158.256C156.984 64.976 155.988 64.706 155.268 64.166C154.56 63.626 154.206 62.84 154.206 61.808C154.206 60.704 154.584 59.87 155.34 59.306C156.108 58.742 157.128 58.46 158.4 58.46H162.576V68H161.028ZM154.116 68L156.708 64.346H158.49L155.97 68H154.116ZM161.028 64.112V59.486L161.298 59.972H158.454C157.662 59.972 157.05 60.122 156.618 60.422C156.186 60.71 155.97 61.19 155.97 61.862C155.97 63.11 156.774 63.734 158.382 63.734H161.298L161.028 64.112ZM171.267 71.6C170.811 71.6 170.367 71.522 169.935 71.366C169.503 71.222 169.131 71.006 168.819 70.718L169.557 69.422C169.797 69.65 170.061 69.824 170.349 69.944C170.637 70.064 170.943 70.124 171.267 70.124C171.687 70.124 172.035 70.016 172.311 69.8C172.587 69.584 172.845 69.2 173.085 68.648L173.679 67.334L173.859 67.118L177.603 58.46H179.295L174.669 68.954C174.393 69.626 174.081 70.154 173.733 70.538C173.397 70.922 173.025 71.192 172.617 71.348C172.209 71.516 171.759 71.6 171.267 71.6ZM173.535 68.306L169.179 58.46H170.979L174.687 66.956L173.535 68.306ZM185.863 68V58.46H187.591V68H185.863ZM188.005 56.75C187.753 56.75 187.543 56.666 187.375 56.498C187.207 56.318 187.123 56.102 187.123 55.85C187.123 55.586 187.207 55.37 187.375 55.202C187.543 55.022 187.753 54.932 188.005 54.932C188.257 54.932 188.467 55.022 188.635 55.202C188.815 55.37 188.905 55.586 188.905 55.85C188.905 56.102 188.815 56.318 188.635 56.498C188.467 56.666 188.257 56.75 188.005 56.75ZM185.449 56.75C185.197 56.75 184.981 56.666 184.801 56.498C184.633 56.318 184.549 56.102 184.549 55.85C184.549 55.586 184.633 55.37 184.801 55.202C184.981 55.022 185.197 54.932 185.449 54.932C185.701 54.932 185.911 55.022 186.079 55.202C186.247 55.37 186.331 55.586 186.331 55.85C186.331 56.102 186.247 56.318 186.079 56.498C185.911 56.666 185.701 56.75 185.449 56.75ZM202.248 68L199.206 63.356L200.628 62.492L204.3 68H202.248ZM197.226 63.968V62.492H200.322V63.968H197.226ZM200.79 63.428L199.152 63.212L202.194 58.46H204.048L200.79 63.428ZM191.538 68H189.486L193.14 62.492L194.562 63.356L191.538 68ZM197.748 68H196.02V58.46H197.748V68ZM196.542 63.968H193.464V62.492H196.542V63.968ZM192.996 63.428L189.738 58.46H191.574L194.616 63.212L192.996 63.428ZM211.876 68V65.984L211.786 65.606V62.168C211.786 61.436 211.57 60.872 211.138 60.476C210.718 60.068 210.082 59.864 209.23 59.864C208.666 59.864 208.114 59.96 207.574 60.152C207.034 60.332 206.578 60.578 206.206 60.89L205.486 59.594C205.978 59.198 206.566 58.898 207.25 58.694C207.946 58.478 208.672 58.37 209.428 58.37C210.736 58.37 211.744 58.688 212.452 59.324C213.16 59.96 213.514 60.932 213.514 62.24V68H211.876ZM208.744 68.108C208.036 68.108 207.412 67.988 206.872 67.748C206.344 67.508 205.936 67.178 205.648 66.758C205.36 66.326 205.216 65.84 205.216 65.3C205.216 64.784 205.336 64.316 205.576 63.896C205.828 63.476 206.23 63.14 206.782 62.888C207.346 62.636 208.102 62.51 209.05 62.51H212.074V63.752H209.122C208.258 63.752 207.676 63.896 207.376 64.184C207.076 64.472 206.926 64.82 206.926 65.228C206.926 65.696 207.112 66.074 207.484 66.362C207.856 66.638 208.372 66.776 209.032 66.776C209.68 66.776 210.244 66.632 210.724 66.344C211.216 66.056 211.57 65.636 211.786 65.084L212.128 66.272C211.9 66.836 211.498 67.286 210.922 67.622C210.346 67.946 209.62 68.108 208.744 68.108ZM223.537 68L219.847 63.356L221.269 62.492L225.571 68H223.537ZM216.625 68V58.46H218.353V68H216.625ZM217.831 63.968V62.492H220.981V63.968H217.831ZM221.413 63.428L219.811 63.212L223.465 58.46H225.319L221.413 63.428ZM233.057 68V65.984L232.967 65.606V62.168C232.967 61.436 232.751 60.872 232.319 60.476C231.899 60.068 231.263 59.864 230.411 59.864C229.847 59.864 229.295 59.96 228.755 60.152C228.215 60.332 227.759 60.578 227.387 60.89L226.667 59.594C227.159 59.198 227.747 58.898 228.431 58.694C229.127 58.478 229.853 58.37 230.609 58.37C231.917 58.37 232.925 58.688 233.633 59.324C234.341 59.96 234.695 60.932 234.695 62.24V68H233.057ZM229.925 68.108C229.217 68.108 228.593 67.988 228.053 67.748C227.525 67.508 227.117 67.178 226.829 66.758C226.541 66.326 226.397 65.84 226.397 65.3C226.397 64.784 226.517 64.316 226.757 63.896C227.009 63.476 227.411 63.14 227.963 62.888C228.527 62.636 229.283 62.51 230.231 62.51H233.255V63.752H230.303C229.439 63.752 228.857 63.896 228.557 64.184C228.257 64.472 228.107 64.82 228.107 65.228C228.107 65.696 228.293 66.074 228.665 66.362C229.037 66.638 229.553 66.776 230.213 66.776C230.861 66.776 231.425 66.632 231.905 66.344C232.397 66.056 232.751 65.636 232.967 65.084L233.309 66.272C233.081 66.836 232.679 67.286 232.103 67.622C231.527 67.946 230.801 68.108 229.925 68.108ZM240.5 64.022C240.5 63.554 240.578 63.146 240.734 62.798C240.89 62.45 241.082 62.138 241.31 61.862C241.55 61.586 241.808 61.334 242.084 61.106C242.36 60.866 242.618 60.632 242.858 60.404C243.098 60.164 243.29 59.912 243.434 59.648C243.59 59.384 243.668 59.078 243.668 58.73C243.668 58.154 243.44 57.686 242.984 57.326C242.528 56.966 241.898 56.786 241.094 56.786C240.374 56.786 239.75 56.906 239.222 57.146C238.694 57.386 238.244 57.74 237.872 58.208L236.558 57.272C237.062 56.636 237.704 56.144 238.484 55.796C239.264 55.436 240.176 55.256 241.22 55.256C242.084 55.256 242.834 55.388 243.47 55.652C244.106 55.904 244.598 56.27 244.946 56.75C245.306 57.218 245.486 57.788 245.486 58.46C245.486 58.964 245.408 59.396 245.252 59.756C245.096 60.116 244.898 60.434 244.658 60.71C244.418 60.986 244.16 61.244 243.884 61.484C243.62 61.724 243.368 61.964 243.128 62.204C242.888 62.444 242.69 62.708 242.534 62.996C242.378 63.284 242.3 63.626 242.3 64.022H240.5ZM241.418 68.108C241.082 68.108 240.8 67.994 240.572 67.766C240.356 67.538 240.248 67.268 240.248 66.956C240.248 66.62 240.356 66.344 240.572 66.128C240.8 65.912 241.082 65.804 241.418 65.804C241.754 65.804 242.03 65.912 242.246 66.128C242.462 66.344 242.57 66.62 242.57 66.956C242.57 67.268 242.462 67.538 242.246 67.766C242.03 67.994 241.754 68.108 241.418 68.108Z" fill="#232323"/>
</svg>
