<svg width="283" height="123" viewBox="0 0 283 123" fill="none" xmlns="http://www.w3.org/2000/svg">
<rect x="18" width="265" height="102" rx="20" fill="white"/>
<path d="M12.207 112.808L18.2184 83.3439L39.3614 99.8884L12.207 112.808Z" fill="white"/>
<path d="M58.6392 46V41.896L59.1071 42.328H55.1652C54.1451 42.328 53.2631 42.154 52.5191 41.806C51.7871 41.458 51.2231 40.96 50.8271 40.312C50.4431 39.652 50.2511 38.86 50.2511 37.936C50.2511 36.976 50.4611 36.16 50.8811 35.488C51.3011 34.804 51.8951 34.288 52.6631 33.94C53.4311 33.58 54.3251 33.4 55.3451 33.4H60.4032V46H58.6392ZM50.2511 46L53.3651 41.536H55.2011L52.1591 46H50.2511ZM58.6392 41.32V34.444L59.1071 34.966H55.4172C54.3371 34.966 53.5091 35.218 52.9331 35.722C52.3571 36.214 52.0691 36.946 52.0691 37.918C52.0691 38.842 52.3391 39.556 52.8791 40.06C53.4311 40.564 54.2411 40.816 55.3091 40.816H59.1071L58.6392 41.32ZM70.9592 46L67.2692 41.356L68.6912 40.492L72.9932 46H70.9592ZM64.0472 46V36.46H65.7752V46H64.0472ZM65.2532 41.968V40.492H68.4032V41.968H65.2532ZM68.8352 41.428L67.2332 41.212L70.8872 36.46H72.7412L68.8352 41.428ZM80.125 49.6C79.669 49.6 79.225 49.522 78.793 49.366C78.361 49.222 77.989 49.006 77.677 48.718L78.415 47.422C78.655 47.65 78.919 47.824 79.207 47.944C79.495 48.064 79.801 48.124 80.125 48.124C80.545 48.124 80.893 48.016 81.169 47.8C81.445 47.584 81.703 47.2 81.943 46.648L82.537 45.334L82.717 45.118L86.461 36.46H88.153L83.527 46.954C83.251 47.626 82.939 48.154 82.591 48.538C82.255 48.922 81.883 49.192 81.475 49.348C81.067 49.516 80.617 49.6 80.125 49.6ZM82.393 46.306L78.037 36.46H79.837L83.545 44.956L82.393 46.306ZM89.9222 46V36.46H91.6502V40.51H97.0862V36.46H98.8142V46H97.0862V42.004H91.6502V46H89.9222ZM102.174 46V36.46H103.902V43.408L109.752 36.46H111.318V46H109.59V39.052L103.758 46H102.174ZM121.584 46L117.894 41.356L119.316 40.492L123.618 46H121.584ZM114.672 46V36.46H116.4V46H114.672ZM115.878 41.968V40.492H119.028V41.968H115.878ZM119.46 41.428L117.858 41.212L121.512 36.46H123.366L119.46 41.428ZM125.43 46V36.46H127.158V40.51H132.594V36.46H134.322V46H132.594V42.004H127.158V46H125.43ZM138.168 49.6C137.712 49.6 137.268 49.522 136.836 49.366C136.404 49.222 136.032 49.006 135.72 48.718L136.458 47.422C136.698 47.65 136.962 47.824 137.25 47.944C137.538 48.064 137.844 48.124 138.168 48.124C138.588 48.124 138.936 48.016 139.212 47.8C139.488 47.584 139.746 47.2 139.986 46.648L140.58 45.334L140.76 45.118L144.504 36.46H146.196L141.57 46.954C141.294 47.626 140.982 48.154 140.634 48.538C140.298 48.922 139.926 49.192 139.518 49.348C139.11 49.516 138.66 49.6 138.168 49.6ZM140.436 46.306L136.08 36.46H137.88L141.588 44.956L140.436 46.306ZM149.855 46V37.522L150.287 37.972H146.363V36.46H155.075V37.972H151.169L151.583 37.522V46H149.855ZM156.842 46V36.46H158.57V43.408L164.42 36.46H165.986V46H164.258V39.052L158.426 46H156.842ZM178.332 46.108C177.36 46.108 176.49 45.898 175.722 45.478C174.966 45.058 174.372 44.482 173.94 43.75C173.508 43.018 173.292 42.178 173.292 41.23C173.292 40.282 173.508 39.442 173.94 38.71C174.372 37.978 174.966 37.408 175.722 37C176.49 36.58 177.36 36.37 178.332 36.37C179.196 36.37 179.964 36.544 180.636 36.892C181.32 37.228 181.848 37.732 182.22 38.404L180.906 39.25C180.594 38.782 180.21 38.44 179.754 38.224C179.31 37.996 178.83 37.882 178.314 37.882C177.69 37.882 177.132 38.02 176.64 38.296C176.148 38.572 175.758 38.962 175.47 39.466C175.182 39.958 175.038 40.546 175.038 41.23C175.038 41.914 175.182 42.508 175.47 43.012C175.758 43.516 176.148 43.906 176.64 44.182C177.132 44.458 177.69 44.596 178.314 44.596C178.83 44.596 179.31 44.488 179.754 44.272C180.21 44.044 180.594 43.696 180.906 43.228L182.22 44.056C181.848 44.716 181.32 45.226 180.636 45.586C179.964 45.934 179.196 46.108 178.332 46.108ZM186.224 46V37.522L186.656 37.972H182.732V36.46H191.444V37.972H187.538L187.952 37.522V46H186.224ZM198.269 46.108C197.477 46.108 196.751 45.928 196.091 45.568C195.443 45.196 194.921 44.65 194.525 43.93C194.141 43.21 193.949 42.31 193.949 41.23C193.949 40.15 194.135 39.25 194.507 38.53C194.891 37.81 195.407 37.27 196.055 36.91C196.715 36.55 197.453 36.37 198.269 36.37C199.205 36.37 200.033 36.574 200.753 36.982C201.473 37.39 202.043 37.96 202.463 38.692C202.883 39.412 203.093 40.258 203.093 41.23C203.093 42.202 202.883 43.054 202.463 43.786C202.043 44.518 201.473 45.088 200.753 45.496C200.033 45.904 199.205 46.108 198.269 46.108ZM193.211 49.492V36.46H194.867V39.034L194.759 41.248L194.939 43.462V49.492H193.211ZM198.125 44.596C198.737 44.596 199.283 44.458 199.763 44.182C200.255 43.906 200.639 43.516 200.915 43.012C201.203 42.496 201.347 41.902 201.347 41.23C201.347 40.546 201.203 39.958 200.915 39.466C200.639 38.962 200.255 38.572 199.763 38.296C199.283 38.02 198.737 37.882 198.125 37.882C197.525 37.882 196.979 38.02 196.487 38.296C196.007 38.572 195.623 38.962 195.335 39.466C195.059 39.958 194.921 40.546 194.921 41.23C194.921 41.902 195.059 42.496 195.335 43.012C195.623 43.516 196.007 43.906 196.487 44.182C196.979 44.458 197.525 44.596 198.125 44.596ZM209.852 46.108C208.832 46.108 207.932 45.898 207.152 45.478C206.384 45.058 205.784 44.482 205.352 43.75C204.932 43.018 204.722 42.178 204.722 41.23C204.722 40.282 204.926 39.442 205.334 38.71C205.754 37.978 206.324 37.408 207.044 37C207.776 36.58 208.598 36.37 209.51 36.37C210.434 36.37 211.25 36.574 211.958 36.982C212.666 37.39 213.218 37.966 213.614 38.71C214.022 39.442 214.226 40.3 214.226 41.284C214.226 41.356 214.22 41.44 214.208 41.536C214.208 41.632 214.202 41.722 214.19 41.806H206.072V40.564H213.29L212.588 40.996C212.6 40.384 212.474 39.838 212.21 39.358C211.946 38.878 211.58 38.506 211.112 38.242C210.656 37.966 210.122 37.828 209.51 37.828C208.91 37.828 208.376 37.966 207.908 38.242C207.44 38.506 207.074 38.884 206.81 39.376C206.546 39.856 206.414 40.408 206.414 41.032V41.32C206.414 41.956 206.558 42.526 206.846 43.03C207.146 43.522 207.56 43.906 208.088 44.182C208.616 44.458 209.222 44.596 209.906 44.596C210.47 44.596 210.98 44.5 211.436 44.308C211.904 44.116 212.312 43.828 212.66 43.444L213.614 44.56C213.182 45.064 212.642 45.448 211.994 45.712C211.358 45.976 210.644 46.108 209.852 46.108ZM221.065 46.108C220.093 46.108 219.223 45.898 218.455 45.478C217.699 45.058 217.105 44.482 216.673 43.75C216.241 43.018 216.025 42.178 216.025 41.23C216.025 40.282 216.241 39.442 216.673 38.71C217.105 37.978 217.699 37.408 218.455 37C219.223 36.58 220.093 36.37 221.065 36.37C221.929 36.37 222.697 36.544 223.369 36.892C224.053 37.228 224.581 37.732 224.953 38.404L223.639 39.25C223.327 38.782 222.943 38.44 222.487 38.224C222.043 37.996 221.563 37.882 221.047 37.882C220.423 37.882 219.865 38.02 219.373 38.296C218.881 38.572 218.491 38.962 218.203 39.466C217.915 39.958 217.771 40.546 217.771 41.23C217.771 41.914 217.915 42.508 218.203 43.012C218.491 43.516 218.881 43.906 219.373 44.182C219.865 44.458 220.423 44.596 221.047 44.596C221.563 44.596 222.043 44.488 222.487 44.272C222.943 44.044 223.327 43.696 223.639 43.228L224.953 44.056C224.581 44.716 224.053 45.226 223.369 45.586C222.697 45.934 221.929 46.108 221.065 46.108ZM227.553 49.6C227.097 49.6 226.653 49.522 226.221 49.366C225.789 49.222 225.417 49.006 225.105 48.718L225.843 47.422C226.083 47.65 226.347 47.824 226.635 47.944C226.923 48.064 227.229 48.124 227.553 48.124C227.973 48.124 228.321 48.016 228.597 47.8C228.873 47.584 229.131 47.2 229.371 46.648L229.965 45.334L230.145 45.118L233.889 36.46H235.581L230.955 46.954C230.679 47.626 230.367 48.154 230.019 48.538C229.683 48.922 229.311 49.192 228.903 49.348C228.495 49.516 228.045 49.6 227.553 49.6ZM229.821 46.306L225.465 36.46H227.265L230.973 44.956L229.821 46.306ZM242.67 49.6C242.214 49.6 241.77 49.522 241.338 49.366C240.906 49.222 240.534 49.006 240.222 48.718L240.96 47.422C241.2 47.65 241.464 47.824 241.752 47.944C242.04 48.064 242.346 48.124 242.67 48.124C243.09 48.124 243.438 48.016 243.714 47.8C243.99 47.584 244.248 47.2 244.488 46.648L245.082 45.334L245.262 45.118L249.006 36.46H250.698L246.072 46.954C245.796 47.626 245.484 48.154 245.136 48.538C244.8 48.922 244.428 49.192 244.02 49.348C243.612 49.516 243.162 49.6 242.67 49.6ZM244.938 46.306L240.582 36.46H242.382L246.09 44.956L244.938 46.306ZM45.344 68V58.46H52.364V59.972H46.658L47.072 59.576V68H45.344ZM59.1911 68.108C58.3991 68.108 57.6731 67.928 57.0131 67.568C56.3651 67.196 55.8431 66.65 55.4471 65.93C55.0631 65.21 54.8711 64.31 54.8711 63.23C54.8711 62.15 55.0571 61.25 55.4291 60.53C55.8131 59.81 56.3291 59.27 56.9771 58.91C57.6371 58.55 58.3751 58.37 59.1911 58.37C60.1271 58.37 60.9551 58.574 61.6751 58.982C62.3951 59.39 62.9651 59.96 63.3851 60.692C63.8051 61.412 64.0151 62.258 64.0151 63.23C64.0151 64.202 63.8051 65.054 63.3851 65.786C62.9651 66.518 62.3951 67.088 61.6751 67.496C60.9551 67.904 60.1271 68.108 59.1911 68.108ZM54.1331 71.492V58.46H55.7891V61.034L55.6811 63.248L55.8611 65.462V71.492H54.1331ZM59.0471 66.596C59.6591 66.596 60.2051 66.458 60.6851 66.182C61.1771 65.906 61.5611 65.516 61.8371 65.012C62.1251 64.496 62.2691 63.902 62.2691 63.23C62.2691 62.546 62.1251 61.958 61.8371 61.466C61.5611 60.962 61.1771 60.572 60.6851 60.296C60.2051 60.02 59.6591 59.882 59.0471 59.882C58.4471 59.882 57.9011 60.02 57.4091 60.296C56.9291 60.572 56.5451 60.962 56.2571 61.466C55.9811 61.958 55.8431 62.546 55.8431 63.23C55.8431 63.902 55.9811 64.496 56.2571 65.012C56.5451 65.516 56.9291 65.906 57.4091 66.182C57.9011 66.458 58.4471 66.596 59.0471 66.596ZM66.5257 68V58.46H68.2537V65.408L74.1037 58.46H75.6697V68H73.9417V61.052L68.1097 68H66.5257ZM81.6555 68.126C80.9355 68.126 80.2275 68.036 79.5315 67.856C78.8475 67.664 78.2355 67.394 77.6955 67.046L78.2175 65.732C78.6735 66.02 79.1955 66.248 79.7835 66.416C80.3715 66.572 80.9655 66.65 81.5655 66.65C82.1175 66.65 82.5915 66.584 82.9875 66.452C83.3955 66.32 83.7075 66.14 83.9235 65.912C84.1395 65.672 84.2475 65.396 84.2475 65.084C84.2475 64.64 84.0495 64.298 83.6535 64.058C83.2575 63.818 82.7055 63.698 81.9975 63.698H80.2695V62.456H81.8895C82.3095 62.456 82.6755 62.408 82.9875 62.312C83.2995 62.216 83.5395 62.072 83.7075 61.88C83.8875 61.676 83.9775 61.442 83.9775 61.178C83.9775 60.89 83.8755 60.644 83.6715 60.44C83.4675 60.236 83.1795 60.08 82.8075 59.972C82.4475 59.864 82.0215 59.81 81.5295 59.81C81.0495 59.822 80.5575 59.888 80.0535 60.008C79.5615 60.128 79.0575 60.314 78.5415 60.566L78.0735 59.216C78.6495 58.94 79.2135 58.73 79.7655 58.586C80.3295 58.43 80.8875 58.346 81.4395 58.334C82.2675 58.31 83.0055 58.406 83.6535 58.622C84.3015 58.826 84.8115 59.126 85.1835 59.522C85.5675 59.918 85.7595 60.386 85.7595 60.926C85.7595 61.382 85.6155 61.79 85.3275 62.15C85.0395 62.498 84.6555 62.774 84.1755 62.978C83.6955 63.182 83.1435 63.284 82.5195 63.284L82.5915 62.87C83.6595 62.87 84.4995 63.08 85.1115 63.5C85.7235 63.92 86.0295 64.49 86.0295 65.21C86.0295 65.786 85.8375 66.296 85.4535 66.74C85.0695 67.172 84.5475 67.514 83.8875 67.766C83.2395 68.006 82.4955 68.126 81.6555 68.126ZM89.1425 71.6C88.6865 71.6 88.2425 71.522 87.8105 71.366C87.3785 71.222 87.0065 71.006 86.6945 70.718L87.4325 69.422C87.6725 69.65 87.9365 69.824 88.2245 69.944C88.5125 70.064 88.8185 70.124 89.1425 70.124C89.5625 70.124 89.9105 70.016 90.1865 69.8C90.4625 69.584 90.7205 69.2 90.9605 68.648L91.5545 67.334L91.7345 67.118L95.4785 58.46H97.1705L92.5445 68.954C92.2685 69.626 91.9565 70.154 91.6085 70.538C91.2725 70.922 90.9005 71.192 90.4925 71.348C90.0845 71.516 89.6345 71.6 89.1425 71.6ZM91.4105 68.306L87.0545 58.46H88.8545L92.5625 66.956L91.4105 68.306ZM98.9397 68V58.46H100.668V62.51H106.104V58.46H107.832V68H106.104V64.004H100.668V68H98.9397ZM117.042 68V65.984L116.952 65.606V62.168C116.952 61.436 116.736 60.872 116.304 60.476C115.884 60.068 115.248 59.864 114.396 59.864C113.832 59.864 113.28 59.96 112.74 60.152C112.2 60.332 111.744 60.578 111.372 60.89L110.652 59.594C111.144 59.198 111.732 58.898 112.416 58.694C113.112 58.478 113.838 58.37 114.594 58.37C115.902 58.37 116.91 58.688 117.618 59.324C118.326 59.96 118.68 60.932 118.68 62.24V68H117.042ZM113.91 68.108C113.202 68.108 112.578 67.988 112.038 67.748C111.51 67.508 111.102 67.178 110.814 66.758C110.526 66.326 110.382 65.84 110.382 65.3C110.382 64.784 110.502 64.316 110.742 63.896C110.994 63.476 111.396 63.14 111.948 62.888C112.512 62.636 113.268 62.51 114.216 62.51H117.24V63.752H114.288C113.424 63.752 112.842 63.896 112.542 64.184C112.242 64.472 112.092 64.82 112.092 65.228C112.092 65.696 112.278 66.074 112.65 66.362C113.022 66.638 113.538 66.776 114.198 66.776C114.846 66.776 115.41 66.632 115.89 66.344C116.382 66.056 116.736 65.636 116.952 65.084L117.294 66.272C117.066 66.836 116.664 67.286 116.088 67.622C115.512 67.946 114.786 68.108 113.91 68.108ZM126.625 68V58.46H135.463V68H133.735V59.54L134.149 59.972H127.939L128.353 59.54V68H126.625ZM143.865 68.108C143.073 68.108 142.347 67.928 141.687 67.568C141.039 67.196 140.517 66.65 140.121 65.93C139.737 65.21 139.545 64.31 139.545 63.23C139.545 62.15 139.731 61.25 140.103 60.53C140.487 59.81 141.003 59.27 141.651 58.91C142.311 58.55 143.049 58.37 143.865 58.37C144.801 58.37 145.629 58.574 146.349 58.982C147.069 59.39 147.639 59.96 148.059 60.692C148.479 61.412 148.689 62.258 148.689 63.23C148.689 64.202 148.479 65.054 148.059 65.786C147.639 66.518 147.069 67.088 146.349 67.496C145.629 67.904 144.801 68.108 143.865 68.108ZM138.807 71.492V58.46H140.463V61.034L140.355 63.248L140.535 65.462V71.492H138.807ZM143.721 66.596C144.333 66.596 144.879 66.458 145.359 66.182C145.851 65.906 146.235 65.516 146.511 65.012C146.799 64.496 146.943 63.902 146.943 63.23C146.943 62.546 146.799 61.958 146.511 61.466C146.235 60.962 145.851 60.572 145.359 60.296C144.879 60.02 144.333 59.882 143.721 59.882C143.121 59.882 142.575 60.02 142.083 60.296C141.603 60.572 141.219 60.962 140.931 61.466C140.655 61.958 140.517 62.546 140.517 63.23C140.517 63.902 140.655 64.496 140.931 65.012C141.219 65.516 141.603 65.906 142.083 66.182C142.575 66.458 143.121 66.596 143.721 66.596ZM151.2 68V58.46H152.928V65.408L158.778 58.46H160.344V68H158.616V61.052L152.784 68H151.2ZM168.532 68V58.46H177.37V68H175.642V59.54L176.056 59.972H169.846L170.26 59.54V68H168.532ZM184.961 68.108C183.941 68.108 183.041 67.898 182.261 67.478C181.493 67.058 180.893 66.482 180.461 65.75C180.041 65.018 179.831 64.178 179.831 63.23C179.831 62.282 180.035 61.442 180.443 60.71C180.863 59.978 181.433 59.408 182.153 59C182.885 58.58 183.707 58.37 184.619 58.37C185.543 58.37 186.359 58.574 187.067 58.982C187.775 59.39 188.327 59.966 188.723 60.71C189.131 61.442 189.335 62.3 189.335 63.284C189.335 63.356 189.329 63.44 189.317 63.536C189.317 63.632 189.311 63.722 189.299 63.806H181.181V62.564H188.399L187.697 62.996C187.709 62.384 187.583 61.838 187.319 61.358C187.055 60.878 186.689 60.506 186.221 60.242C185.765 59.966 185.231 59.828 184.619 59.828C184.019 59.828 183.485 59.966 183.017 60.242C182.549 60.506 182.183 60.884 181.919 61.376C181.655 61.856 181.523 62.408 181.523 63.032V63.32C181.523 63.956 181.667 64.526 181.955 65.03C182.255 65.522 182.669 65.906 183.197 66.182C183.725 66.458 184.331 66.596 185.015 66.596C185.579 66.596 186.089 66.5 186.545 66.308C187.013 66.116 187.421 65.828 187.769 65.444L188.723 66.56C188.291 67.064 187.751 67.448 187.103 67.712C186.467 67.976 185.753 68.108 184.961 68.108ZM197.074 68.108C196.282 68.108 195.556 67.928 194.896 67.568C194.248 67.196 193.726 66.65 193.33 65.93C192.946 65.21 192.754 64.31 192.754 63.23C192.754 62.15 192.94 61.25 193.312 60.53C193.696 59.81 194.212 59.27 194.86 58.91C195.52 58.55 196.258 58.37 197.074 58.37C198.01 58.37 198.838 58.574 199.558 58.982C200.278 59.39 200.848 59.96 201.268 60.692C201.688 61.412 201.898 62.258 201.898 63.23C201.898 64.202 201.688 65.054 201.268 65.786C200.848 66.518 200.278 67.088 199.558 67.496C198.838 67.904 198.01 68.108 197.074 68.108ZM192.016 71.492V58.46H193.672V61.034L193.564 63.248L193.744 65.462V71.492H192.016ZM196.93 66.596C197.542 66.596 198.088 66.458 198.568 66.182C199.06 65.906 199.444 65.516 199.72 65.012C200.008 64.496 200.152 63.902 200.152 63.23C200.152 62.546 200.008 61.958 199.72 61.466C199.444 60.962 199.06 60.572 198.568 60.296C198.088 60.02 197.542 59.882 196.93 59.882C196.33 59.882 195.784 60.02 195.292 60.296C194.812 60.572 194.428 60.962 194.14 61.466C193.864 61.958 193.726 62.546 193.726 63.23C193.726 63.902 193.864 64.496 194.14 65.012C194.428 65.516 194.812 65.906 195.292 66.182C195.784 66.458 196.33 66.596 196.93 66.596ZM208.656 68.108C207.636 68.108 206.736 67.898 205.956 67.478C205.188 67.058 204.588 66.482 204.156 65.75C203.736 65.018 203.526 64.178 203.526 63.23C203.526 62.282 203.73 61.442 204.138 60.71C204.558 59.978 205.128 59.408 205.848 59C206.58 58.58 207.402 58.37 208.314 58.37C209.238 58.37 210.054 58.574 210.762 58.982C211.47 59.39 212.022 59.966 212.418 60.71C212.826 61.442 213.03 62.3 213.03 63.284C213.03 63.356 213.024 63.44 213.012 63.536C213.012 63.632 213.006 63.722 212.994 63.806H204.876V62.564H212.094L211.392 62.996C211.404 62.384 211.278 61.838 211.014 61.358C210.75 60.878 210.384 60.506 209.916 60.242C209.46 59.966 208.926 59.828 208.314 59.828C207.714 59.828 207.18 59.966 206.712 60.242C206.244 60.506 205.878 60.884 205.614 61.376C205.35 61.856 205.218 62.408 205.218 63.032V63.32C205.218 63.956 205.362 64.526 205.65 65.03C205.95 65.522 206.364 65.906 206.892 66.182C207.42 66.458 208.026 66.596 208.71 66.596C209.274 66.596 209.784 66.5 210.24 66.308C210.708 66.116 211.116 65.828 211.464 65.444L212.418 66.56C211.986 67.064 211.446 67.448 210.798 67.712C210.162 67.976 209.448 68.108 208.656 68.108ZM215.675 68V58.46H217.403V68H215.675ZM217.817 56.75C217.565 56.75 217.355 56.666 217.187 56.498C217.019 56.318 216.935 56.102 216.935 55.85C216.935 55.586 217.019 55.37 217.187 55.202C217.355 55.022 217.565 54.932 217.817 54.932C218.069 54.932 218.279 55.022 218.447 55.202C218.627 55.37 218.717 55.586 218.717 55.85C218.717 56.102 218.627 56.318 218.447 56.498C218.279 56.666 218.069 56.75 217.817 56.75ZM215.261 56.75C215.009 56.75 214.793 56.666 214.613 56.498C214.445 56.318 214.361 56.102 214.361 55.85C214.361 55.586 214.445 55.37 214.613 55.202C214.793 55.022 215.009 54.932 215.261 54.932C215.513 54.932 215.723 55.022 215.891 55.202C216.059 55.37 216.143 55.586 216.143 55.85C216.143 56.102 216.059 56.318 215.891 56.498C215.723 56.666 215.513 56.75 215.261 56.75ZM223.37 68.126C222.65 68.126 221.942 68.036 221.246 67.856C220.562 67.664 219.95 67.394 219.41 67.046L219.932 65.732C220.388 66.02 220.91 66.248 221.498 66.416C222.086 66.572 222.68 66.65 223.28 66.65C223.832 66.65 224.306 66.584 224.702 66.452C225.11 66.32 225.422 66.14 225.638 65.912C225.854 65.672 225.962 65.396 225.962 65.084C225.962 64.64 225.764 64.298 225.368 64.058C224.972 63.818 224.42 63.698 223.712 63.698H221.984V62.456H223.604C224.024 62.456 224.39 62.408 224.702 62.312C225.014 62.216 225.254 62.072 225.422 61.88C225.602 61.676 225.692 61.442 225.692 61.178C225.692 60.89 225.59 60.644 225.386 60.44C225.182 60.236 224.894 60.08 224.522 59.972C224.162 59.864 223.736 59.81 223.244 59.81C222.764 59.822 222.272 59.888 221.768 60.008C221.276 60.128 220.772 60.314 220.256 60.566L219.788 59.216C220.364 58.94 220.928 58.73 221.48 58.586C222.044 58.43 222.602 58.346 223.154 58.334C223.982 58.31 224.72 58.406 225.368 58.622C226.016 58.826 226.526 59.126 226.898 59.522C227.282 59.918 227.474 60.386 227.474 60.926C227.474 61.382 227.33 61.79 227.042 62.15C226.754 62.498 226.37 62.774 225.89 62.978C225.41 63.182 224.858 63.284 224.234 63.284L224.306 62.87C225.374 62.87 226.214 63.08 226.826 63.5C227.438 63.92 227.744 64.49 227.744 65.21C227.744 65.786 227.552 66.296 227.168 66.74C226.784 67.172 226.262 67.514 225.602 67.766C224.954 68.006 224.21 68.126 223.37 68.126ZM236.887 67.19V59.972H232.747L232.657 61.808C232.633 62.408 232.591 62.99 232.531 63.554C232.483 64.106 232.399 64.616 232.279 65.084C232.171 65.552 232.009 65.936 231.793 66.236C231.577 66.536 231.289 66.722 230.929 66.794L229.219 66.488C229.591 66.5 229.891 66.38 230.119 66.128C230.347 65.864 230.521 65.504 230.641 65.048C230.773 64.592 230.869 64.076 230.929 63.5C230.989 62.912 231.037 62.306 231.073 61.682L231.217 58.46H238.615V67.19H236.887ZM228.841 70.214V66.488H240.073V70.214H238.453V68H230.479V70.214H228.841ZM242.325 68V58.46H244.053V68H242.325ZM243.189 56.624C242.853 56.624 242.571 56.516 242.343 56.3C242.127 56.084 242.019 55.82 242.019 55.508C242.019 55.184 242.127 54.914 242.343 54.698C242.571 54.482 242.853 54.374 243.189 54.374C243.525 54.374 243.801 54.482 244.017 54.698C244.245 54.902 244.359 55.16 244.359 55.472C244.359 55.796 244.251 56.072 244.035 56.3C243.819 56.516 243.537 56.624 243.189 56.624ZM250.116 64.022C250.116 63.554 250.194 63.146 250.35 62.798C250.506 62.45 250.698 62.138 250.926 61.862C251.166 61.586 251.424 61.334 251.7 61.106C251.976 60.866 252.234 60.632 252.474 60.404C252.714 60.164 252.906 59.912 253.05 59.648C253.206 59.384 253.284 59.078 253.284 58.73C253.284 58.154 253.056 57.686 252.6 57.326C252.144 56.966 251.514 56.786 250.71 56.786C249.99 56.786 249.366 56.906 248.838 57.146C248.31 57.386 247.86 57.74 247.488 58.208L246.174 57.272C246.678 56.636 247.32 56.144 248.1 55.796C248.88 55.436 249.792 55.256 250.836 55.256C251.7 55.256 252.45 55.388 253.086 55.652C253.722 55.904 254.214 56.27 254.562 56.75C254.922 57.218 255.102 57.788 255.102 58.46C255.102 58.964 255.024 59.396 254.868 59.756C254.712 60.116 254.514 60.434 254.274 60.71C254.034 60.986 253.776 61.244 253.5 61.484C253.236 61.724 252.984 61.964 252.744 62.204C252.504 62.444 252.306 62.708 252.15 62.996C251.994 63.284 251.916 63.626 251.916 64.022H250.116ZM251.034 68.108C250.698 68.108 250.416 67.994 250.188 67.766C249.972 67.538 249.864 67.268 249.864 66.956C249.864 66.62 249.972 66.344 250.188 66.128C250.416 65.912 250.698 65.804 251.034 65.804C251.37 65.804 251.646 65.912 251.862 66.128C252.078 66.344 252.186 66.62 252.186 66.956C252.186 67.268 252.078 67.538 251.862 67.766C251.646 67.994 251.37 68.108 251.034 68.108Z" fill="#232323"/>
</svg>
