<svg width="283" height="123" viewBox="0 0 283 123" fill="none" xmlns="http://www.w3.org/2000/svg">
<rect x="17.9998" width="265" height="102" rx="20" fill="white"/>
<path d="M12.2068 112.808L18.2182 83.3438L39.3613 99.8883L12.2068 112.808Z" fill="white"/>
<path d="M69.7396 46V41.896L70.2076 42.328H66.2656C65.2456 42.328 64.3636 42.154 63.6196 41.806C62.8876 41.458 62.3236 40.96 61.9276 40.312C61.5436 39.652 61.3516 38.86 61.3516 37.936C61.3516 36.976 61.5616 36.16 61.9816 35.488C62.4016 34.804 62.9956 34.288 63.7636 33.94C64.5316 33.58 65.4256 33.4 66.4456 33.4H71.5036V46H69.7396ZM61.3516 46L64.4656 41.536H66.3016L63.2596 46H61.3516ZM69.7396 41.32V34.444L70.2076 34.966H66.5176C65.4376 34.966 64.6096 35.218 64.0336 35.722C63.4576 36.214 63.1696 36.946 63.1696 37.918C63.1696 38.842 63.4396 39.556 63.9796 40.06C64.5316 40.564 65.3416 40.816 66.4096 40.816H70.2076L69.7396 41.32ZM82.0596 46L78.3696 41.356L79.7916 40.492L84.0936 46H82.0596ZM75.1476 46V36.46H76.8756V46H75.1476ZM76.3536 41.968V40.492H79.5036V41.968H76.3536ZM79.9356 41.428L78.3336 41.212L81.9876 36.46H83.8416L79.9356 41.428ZM85.9054 46V36.46H87.6334V46H85.9054ZM86.7694 34.624C86.4334 34.624 86.1514 34.516 85.9234 34.3C85.7074 34.084 85.5994 33.82 85.5994 33.508C85.5994 33.184 85.7074 32.914 85.9234 32.698C86.1514 32.482 86.4334 32.374 86.7694 32.374C87.1054 32.374 87.3814 32.482 87.5974 32.698C87.8254 32.902 87.9394 33.16 87.9394 33.472C87.9394 33.796 87.8314 34.072 87.6154 34.3C87.3994 34.516 87.1174 34.624 86.7694 34.624ZM95.8371 46V36.46H97.5651V46H95.8371ZM96.7011 34.624C96.3651 34.624 96.0831 34.516 95.8551 34.3C95.6391 34.084 95.5311 33.82 95.5311 33.508C95.5311 33.184 95.6391 32.914 95.8551 32.698C96.0831 32.482 96.3651 32.374 96.7011 32.374C97.0371 32.374 97.3131 32.482 97.5291 32.698C97.7571 32.902 97.8711 33.16 97.8711 33.472C97.8711 33.796 97.7631 34.072 97.5471 34.3C97.3311 34.516 97.0491 34.624 96.7011 34.624ZM100.935 46V36.46H107.955V37.972H102.249L102.663 37.576V46H100.935ZM114.782 46.108C113.99 46.108 113.264 45.928 112.604 45.568C111.956 45.196 111.434 44.65 111.038 43.93C110.654 43.21 110.462 42.31 110.462 41.23C110.462 40.15 110.648 39.25 111.02 38.53C111.404 37.81 111.92 37.27 112.568 36.91C113.228 36.55 113.966 36.37 114.782 36.37C115.718 36.37 116.546 36.574 117.266 36.982C117.986 37.39 118.556 37.96 118.976 38.692C119.396 39.412 119.606 40.258 119.606 41.23C119.606 42.202 119.396 43.054 118.976 43.786C118.556 44.518 117.986 45.088 117.266 45.496C116.546 45.904 115.718 46.108 114.782 46.108ZM109.724 49.492V36.46H111.38V39.034L111.272 41.248L111.452 43.462V49.492H109.724ZM114.638 44.596C115.25 44.596 115.796 44.458 116.276 44.182C116.768 43.906 117.152 43.516 117.428 43.012C117.716 42.496 117.86 41.902 117.86 41.23C117.86 40.546 117.716 39.958 117.428 39.466C117.152 38.962 116.768 38.572 116.276 38.296C115.796 38.02 115.25 37.882 114.638 37.882C114.038 37.882 113.492 38.02 113 38.296C112.52 38.572 112.136 38.962 111.848 39.466C111.572 39.958 111.434 40.546 111.434 41.23C111.434 41.902 111.572 42.496 111.848 43.012C112.136 43.516 112.52 43.906 113 44.182C113.492 44.458 114.038 44.596 114.638 44.596ZM127.878 46V43.984L127.788 43.606V40.168C127.788 39.436 127.572 38.872 127.14 38.476C126.72 38.068 126.084 37.864 125.232 37.864C124.668 37.864 124.116 37.96 123.576 38.152C123.036 38.332 122.58 38.578 122.208 38.89L121.488 37.594C121.98 37.198 122.568 36.898 123.252 36.694C123.948 36.478 124.674 36.37 125.43 36.37C126.738 36.37 127.746 36.688 128.454 37.324C129.162 37.96 129.516 38.932 129.516 40.24V46H127.878ZM124.746 46.108C124.038 46.108 123.414 45.988 122.874 45.748C122.346 45.508 121.938 45.178 121.65 44.758C121.362 44.326 121.218 43.84 121.218 43.3C121.218 42.784 121.338 42.316 121.578 41.896C121.83 41.476 122.232 41.14 122.784 40.888C123.348 40.636 124.104 40.51 125.052 40.51H128.076V41.752H125.124C124.26 41.752 123.678 41.896 123.378 42.184C123.078 42.472 122.928 42.82 122.928 43.228C122.928 43.696 123.114 44.074 123.486 44.362C123.858 44.638 124.374 44.776 125.034 44.776C125.682 44.776 126.246 44.632 126.726 44.344C127.218 44.056 127.572 43.636 127.788 43.084L128.13 44.272C127.902 44.836 127.5 45.286 126.924 45.622C126.348 45.946 125.622 46.108 124.746 46.108ZM138.964 44.488L138.568 44.938V36.46H140.296V44.938L139.864 44.488H144.904L144.49 44.938V36.46H146.218V46H132.628V36.46H134.356V44.938L133.942 44.488H138.964ZM156.485 46L152.795 41.356L154.217 40.492L158.519 46H156.485ZM149.573 46V36.46H151.301V46H149.573ZM150.779 41.968V40.492H153.929V41.968H150.779ZM154.361 41.428L152.759 41.212L156.413 36.46H158.267L154.361 41.428ZM160.331 46V36.46H162.059V43.408L167.909 36.46H169.475V46H167.747V39.052L161.915 46H160.331ZM177.663 46V36.46H179.445L183.549 43.516H182.829L187.041 36.46H188.661V46H187.095V38.404L187.383 38.566L183.531 44.92H182.775L178.905 38.44L179.247 38.368V46H177.663ZM196.111 46.108C195.151 46.108 194.299 45.898 193.555 45.478C192.811 45.058 192.223 44.482 191.791 43.75C191.359 43.006 191.143 42.166 191.143 41.23C191.143 40.282 191.359 39.442 191.791 38.71C192.223 37.978 192.811 37.408 193.555 37C194.299 36.58 195.151 36.37 196.111 36.37C197.059 36.37 197.905 36.58 198.649 37C199.405 37.408 199.993 37.978 200.413 38.71C200.845 39.43 201.061 40.27 201.061 41.23C201.061 42.178 200.845 43.018 200.413 43.75C199.993 44.482 199.405 45.058 198.649 45.478C197.905 45.898 197.059 46.108 196.111 46.108ZM196.111 44.596C196.723 44.596 197.269 44.458 197.749 44.182C198.241 43.906 198.625 43.516 198.901 43.012C199.177 42.496 199.315 41.902 199.315 41.23C199.315 40.546 199.177 39.958 198.901 39.466C198.625 38.962 198.241 38.572 197.749 38.296C197.269 38.02 196.723 37.882 196.111 37.882C195.499 37.882 194.953 38.02 194.473 38.296C193.993 38.572 193.609 38.962 193.321 39.466C193.033 39.958 192.889 40.546 192.889 41.23C192.889 41.902 193.033 42.496 193.321 43.012C193.609 43.516 193.993 43.906 194.473 44.182C194.953 44.458 195.499 44.596 196.111 44.596ZM214.561 46L211.519 41.356L212.941 40.492L216.613 46H214.561ZM209.539 41.968V40.492H212.635V41.968H209.539ZM213.103 41.428L211.465 41.212L214.507 36.46H216.361L213.103 41.428ZM203.851 46H201.799L205.453 40.492L206.875 41.356L203.851 46ZM210.061 46H208.333V36.46H210.061V46ZM208.855 41.968H205.777V40.492H208.855V41.968ZM205.309 41.428L202.051 36.46H203.887L206.929 41.212L205.309 41.428ZM218.515 46V36.46H220.243V40.51H225.679V36.46H227.407V46H225.679V42.004H220.243V46H218.515ZM236.617 46V43.984L236.527 43.606V40.168C236.527 39.436 236.311 38.872 235.879 38.476C235.459 38.068 234.823 37.864 233.971 37.864C233.407 37.864 232.855 37.96 232.315 38.152C231.775 38.332 231.319 38.578 230.947 38.89L230.227 37.594C230.719 37.198 231.307 36.898 231.991 36.694C232.687 36.478 233.413 36.37 234.169 36.37C235.477 36.37 236.485 36.688 237.193 37.324C237.901 37.96 238.255 38.932 238.255 40.24V46H236.617ZM233.485 46.108C232.777 46.108 232.153 45.988 231.613 45.748C231.085 45.508 230.677 45.178 230.389 44.758C230.101 44.326 229.957 43.84 229.957 43.3C229.957 42.784 230.077 42.316 230.317 41.896C230.569 41.476 230.971 41.14 231.523 40.888C232.087 40.636 232.843 40.51 233.791 40.51H236.815V41.752H233.863C232.999 41.752 232.417 41.896 232.117 42.184C231.817 42.472 231.667 42.82 231.667 43.228C231.667 43.696 231.853 44.074 232.225 44.362C232.597 44.638 233.113 44.776 233.773 44.776C234.421 44.776 234.985 44.632 235.465 44.344C235.957 44.056 236.311 43.636 236.527 43.084L236.869 44.272C236.641 44.836 236.239 45.286 235.663 45.622C235.087 45.946 234.361 46.108 233.485 46.108ZM45.7169 68.126C44.9969 68.126 44.2889 68.036 43.5929 67.856C42.9089 67.664 42.2969 67.394 41.7569 67.046L42.2789 65.732C42.7349 66.02 43.2569 66.248 43.8449 66.416C44.4329 66.572 45.0269 66.65 45.6269 66.65C46.1789 66.65 46.6529 66.584 47.0489 66.452C47.4569 66.32 47.7689 66.14 47.9849 65.912C48.2009 65.672 48.3089 65.396 48.3089 65.084C48.3089 64.64 48.1109 64.298 47.7149 64.058C47.3189 63.818 46.7669 63.698 46.0589 63.698H44.3309V62.456H45.9509C46.3709 62.456 46.7369 62.408 47.0489 62.312C47.3609 62.216 47.6009 62.072 47.7689 61.88C47.9489 61.676 48.0389 61.442 48.0389 61.178C48.0389 60.89 47.9369 60.644 47.7329 60.44C47.5289 60.236 47.2409 60.08 46.8689 59.972C46.5089 59.864 46.0829 59.81 45.5909 59.81C45.1109 59.822 44.6189 59.888 44.1149 60.008C43.6229 60.128 43.1189 60.314 42.6029 60.566L42.1349 59.216C42.7109 58.94 43.2749 58.73 43.8269 58.586C44.3909 58.43 44.9489 58.346 45.5009 58.334C46.3289 58.31 47.0669 58.406 47.7149 58.622C48.3629 58.826 48.8729 59.126 49.2449 59.522C49.6289 59.918 49.8209 60.386 49.8209 60.926C49.8209 61.382 49.6769 61.79 49.3889 62.15C49.1009 62.498 48.7169 62.774 48.2369 62.978C47.7569 63.182 47.2049 63.284 46.5809 63.284L46.6529 62.87C47.7209 62.87 48.5609 63.08 49.1729 63.5C49.7849 63.92 50.0909 64.49 50.0909 65.21C50.0909 65.786 49.8989 66.296 49.5149 66.74C49.1309 67.172 48.6089 67.514 47.9489 67.766C47.3009 68.006 46.5569 68.126 45.7169 68.126ZM57.7759 68.108C56.9839 68.108 56.2579 67.928 55.5979 67.568C54.9499 67.196 54.4279 66.65 54.0319 65.93C53.6479 65.21 53.4559 64.31 53.4559 63.23C53.4559 62.15 53.6419 61.25 54.0139 60.53C54.3979 59.81 54.9139 59.27 55.5619 58.91C56.2219 58.55 56.9599 58.37 57.7759 58.37C58.7119 58.37 59.5399 58.574 60.2599 58.982C60.9799 59.39 61.5499 59.96 61.9699 60.692C62.3899 61.412 62.5999 62.258 62.5999 63.23C62.5999 64.202 62.3899 65.054 61.9699 65.786C61.5499 66.518 60.9799 67.088 60.2599 67.496C59.5399 67.904 58.7119 68.108 57.7759 68.108ZM52.7179 71.492V58.46H54.3739V61.034L54.2659 63.248L54.4459 65.462V71.492H52.7179ZM57.6319 66.596C58.2439 66.596 58.7899 66.458 59.2699 66.182C59.7619 65.906 60.1459 65.516 60.4219 65.012C60.7099 64.496 60.8539 63.902 60.8539 63.23C60.8539 62.546 60.7099 61.958 60.4219 61.466C60.1459 60.962 59.7619 60.572 59.2699 60.296C58.7899 60.02 58.2439 59.882 57.6319 59.882C57.0319 59.882 56.4859 60.02 55.9939 60.296C55.5139 60.572 55.1299 60.962 54.8419 61.466C54.5659 61.958 54.4279 62.546 54.4279 63.23C54.4279 63.902 54.5659 64.496 54.8419 65.012C55.1299 65.516 55.5139 65.906 55.9939 66.182C56.4859 66.458 57.0319 66.596 57.6319 66.596ZM69.1965 68.108C68.2365 68.108 67.3845 67.898 66.6405 67.478C65.8965 67.058 65.3085 66.482 64.8765 65.75C64.4445 65.006 64.2285 64.166 64.2285 63.23C64.2285 62.282 64.4445 61.442 64.8765 60.71C65.3085 59.978 65.8965 59.408 66.6405 59C67.3845 58.58 68.2365 58.37 69.1965 58.37C70.1445 58.37 70.9905 58.58 71.7345 59C72.4905 59.408 73.0785 59.978 73.4985 60.71C73.9305 61.43 74.1465 62.27 74.1465 63.23C74.1465 64.178 73.9305 65.018 73.4985 65.75C73.0785 66.482 72.4905 67.058 71.7345 67.478C70.9905 67.898 70.1445 68.108 69.1965 68.108ZM69.1965 66.596C69.8085 66.596 70.3545 66.458 70.8345 66.182C71.3265 65.906 71.7105 65.516 71.9865 65.012C72.2625 64.496 72.4005 63.902 72.4005 63.23C72.4005 62.546 72.2625 61.958 71.9865 61.466C71.7105 60.962 71.3265 60.572 70.8345 60.296C70.3545 60.02 69.8085 59.882 69.1965 59.882C68.5845 59.882 68.0385 60.02 67.5585 60.296C67.0785 60.572 66.6945 60.962 66.4065 61.466C66.1185 61.958 65.9745 62.546 65.9745 63.23C65.9745 63.902 66.1185 64.496 66.4065 65.012C66.6945 65.516 67.0785 65.906 67.5585 66.182C68.0385 66.458 68.5845 66.596 69.1965 66.596ZM81.0518 68.144C80.2598 68.144 79.5578 68.018 78.9458 67.766C78.3458 67.514 77.8298 67.142 77.3978 66.65C76.9658 66.146 76.6358 65.516 76.4078 64.76C76.1918 63.992 76.0838 63.092 76.0838 62.06C76.0838 61.244 76.1558 60.512 76.2998 59.864C76.4438 59.216 76.6478 58.64 76.9118 58.136C77.1878 57.632 77.5238 57.194 77.9198 56.822C78.3278 56.45 78.7838 56.144 79.2878 55.904C79.8038 55.652 80.3678 55.46 80.9798 55.328L85.3358 54.356L85.5878 55.958L81.5738 56.822C81.3338 56.87 81.0458 56.942 80.7098 57.038C80.3738 57.134 80.0318 57.284 79.6838 57.488C79.3358 57.68 79.0118 57.95 78.7118 58.298C78.4118 58.646 78.1718 59.102 77.9918 59.666C77.8118 60.218 77.7218 60.902 77.7218 61.718C77.7218 61.946 77.7278 62.12 77.7398 62.24C77.7518 62.36 77.7638 62.48 77.7758 62.6C77.7998 62.72 77.8178 62.9 77.8298 63.14L77.1098 62.402C77.3018 61.742 77.6078 61.166 78.0278 60.674C78.4478 60.182 78.9518 59.804 79.5398 59.54C80.1398 59.264 80.7938 59.126 81.5018 59.126C82.3898 59.126 83.1758 59.318 83.8598 59.702C84.5558 60.086 85.1018 60.614 85.4978 61.286C85.8938 61.958 86.0918 62.726 86.0918 63.59C86.0918 64.466 85.8818 65.252 85.4618 65.948C85.0538 66.632 84.4718 67.172 83.7158 67.568C82.9598 67.952 82.0718 68.144 81.0518 68.144ZM81.2138 66.704C81.8258 66.704 82.3658 66.572 82.8338 66.308C83.3018 66.032 83.6678 65.666 83.9318 65.21C84.1958 64.742 84.3278 64.22 84.3278 63.644C84.3278 63.068 84.1958 62.558 83.9318 62.114C83.6678 61.67 83.3018 61.322 82.8338 61.07C82.3658 60.806 81.8138 60.674 81.1778 60.674C80.5778 60.674 80.0378 60.8 79.5578 61.052C79.0778 61.292 78.7058 61.634 78.4418 62.078C78.1778 62.51 78.0458 63.014 78.0458 63.59C78.0458 64.166 78.1778 64.694 78.4418 65.174C78.7178 65.642 79.0898 66.014 79.5578 66.29C80.0378 66.566 80.5898 66.704 81.2138 66.704ZM88.5597 68V58.46H90.2877V65.408L96.1377 58.46H97.7037V68H95.9757V61.052L90.1437 68H88.5597ZM102.948 68V59.522L103.38 59.972H99.4558V58.46H108.168V59.972H104.262L104.676 59.522V68H102.948ZM109.935 68V58.46H111.663V65.408L117.513 58.46H119.079V68H117.351V61.052L111.519 68H109.935ZM133.783 67.19V59.972H129.643L129.553 61.808C129.529 62.408 129.487 62.99 129.427 63.554C129.379 64.106 129.295 64.616 129.175 65.084C129.067 65.552 128.905 65.936 128.689 66.236C128.473 66.536 128.185 66.722 127.825 66.794L126.115 66.488C126.487 66.5 126.787 66.38 127.015 66.128C127.243 65.864 127.417 65.504 127.537 65.048C127.669 64.592 127.765 64.076 127.825 63.5C127.885 62.912 127.933 62.306 127.969 61.682L128.113 58.46H135.511V67.19H133.783ZM125.737 70.214V66.488H136.969V70.214H135.349V68H127.375V70.214H125.737ZM137.636 67.982L137.744 66.524C137.828 66.536 137.906 66.548 137.978 66.56C138.05 66.572 138.116 66.578 138.176 66.578C138.56 66.578 138.86 66.446 139.076 66.182C139.304 65.918 139.472 65.57 139.58 65.138C139.688 64.694 139.766 64.196 139.814 63.644C139.862 63.092 139.898 62.54 139.922 61.988L140.084 58.46H147.41V68H145.682V59.468L146.096 59.972H141.2L141.596 59.45L141.47 62.096C141.434 62.936 141.368 63.722 141.272 64.454C141.176 65.186 141.026 65.828 140.822 66.38C140.63 66.932 140.36 67.364 140.012 67.676C139.676 67.988 139.238 68.144 138.698 68.144C138.542 68.144 138.374 68.126 138.194 68.09C138.026 68.066 137.84 68.03 137.636 67.982ZM156.853 68V64.652L157.123 64.976H154.081C152.809 64.976 151.813 64.706 151.093 64.166C150.385 63.626 150.031 62.84 150.031 61.808C150.031 60.704 150.409 59.87 151.165 59.306C151.933 58.742 152.953 58.46 154.225 58.46H158.401V68H156.853ZM149.941 68L152.533 64.346H154.315L151.795 68H149.941ZM156.853 64.112V59.486L157.123 59.972H154.279C153.487 59.972 152.875 60.122 152.443 60.422C152.011 60.71 151.795 61.19 151.795 61.862C151.795 63.11 152.599 63.734 154.207 63.734H157.123L156.853 64.112ZM166.607 68V58.46H175.445V68H173.717V59.54L174.131 59.972H167.921L168.335 59.54V68H166.607ZM184.638 68V65.984L184.548 65.606V62.168C184.548 61.436 184.332 60.872 183.9 60.476C183.48 60.068 182.844 59.864 181.992 59.864C181.428 59.864 180.876 59.96 180.336 60.152C179.796 60.332 179.34 60.578 178.968 60.89L178.248 59.594C178.74 59.198 179.328 58.898 180.012 58.694C180.708 58.478 181.434 58.37 182.19 58.37C183.498 58.37 184.506 58.688 185.214 59.324C185.922 59.96 186.276 60.932 186.276 62.24V68H184.638ZM181.506 68.108C180.798 68.108 180.174 67.988 179.634 67.748C179.106 67.508 178.698 67.178 178.41 66.758C178.122 66.326 177.978 65.84 177.978 65.3C177.978 64.784 178.098 64.316 178.338 63.896C178.59 63.476 178.992 63.14 179.544 62.888C180.108 62.636 180.864 62.51 181.812 62.51H184.836V63.752H181.884C181.02 63.752 180.438 63.896 180.138 64.184C179.838 64.472 179.688 64.82 179.688 65.228C179.688 65.696 179.874 66.074 180.246 66.362C180.618 66.638 181.134 66.776 181.794 66.776C182.442 66.776 183.006 66.632 183.486 66.344C183.978 66.056 184.332 65.636 184.548 65.084L184.89 66.272C184.662 66.836 184.26 67.286 183.684 67.622C183.108 67.946 182.382 68.108 181.506 68.108ZM189.388 68V58.46H198.226V68H196.498V59.54L196.912 59.972H190.702L191.116 59.54V68H189.388ZM202.056 71.6C201.6 71.6 201.156 71.522 200.724 71.366C200.292 71.222 199.92 71.006 199.608 70.718L200.346 69.422C200.586 69.65 200.85 69.824 201.138 69.944C201.426 70.064 201.732 70.124 202.056 70.124C202.476 70.124 202.824 70.016 203.1 69.8C203.376 69.584 203.634 69.2 203.874 68.648L204.468 67.334L204.648 67.118L208.392 58.46H210.084L205.458 68.954C205.182 69.626 204.87 70.154 204.522 70.538C204.186 70.922 203.814 71.192 203.406 71.348C202.998 71.516 202.548 71.6 202.056 71.6ZM204.324 68.306L199.968 58.46H201.768L205.476 66.956L204.324 68.306ZM222.63 68L219.588 63.356L221.01 62.492L224.682 68H222.63ZM217.608 63.968V62.492H220.704V63.968H217.608ZM221.172 63.428L219.534 63.212L222.576 58.46H224.43L221.172 63.428ZM211.92 68H209.868L213.522 62.492L214.944 63.356L211.92 68ZM218.13 68H216.402V58.46H218.13V68ZM216.924 63.968H213.846V62.492H216.924V63.968ZM213.378 63.428L210.12 58.46H211.956L214.998 63.212L213.378 63.428ZM233.495 68L229.805 63.356L231.227 62.492L235.529 68H233.495ZM226.583 68V58.46H228.311V68H226.583ZM227.789 63.968V62.492H230.939V63.968H227.789ZM231.371 63.428L229.769 63.212L233.423 58.46H235.277L231.371 63.428ZM237.341 68V58.46H239.069V65.408L244.919 58.46H246.485V68H244.757V61.052L238.925 68H237.341ZM252.533 64.022C252.533 63.554 252.611 63.146 252.767 62.798C252.923 62.45 253.115 62.138 253.343 61.862C253.583 61.586 253.841 61.334 254.117 61.106C254.393 60.866 254.651 60.632 254.891 60.404C255.131 60.164 255.323 59.912 255.467 59.648C255.623 59.384 255.701 59.078 255.701 58.73C255.701 58.154 255.473 57.686 255.017 57.326C254.561 56.966 253.931 56.786 253.127 56.786C252.407 56.786 251.783 56.906 251.255 57.146C250.727 57.386 250.277 57.74 249.905 58.208L248.591 57.272C249.095 56.636 249.737 56.144 250.517 55.796C251.297 55.436 252.209 55.256 253.253 55.256C254.117 55.256 254.867 55.388 255.503 55.652C256.139 55.904 256.631 56.27 256.979 56.75C257.339 57.218 257.519 57.788 257.519 58.46C257.519 58.964 257.441 59.396 257.285 59.756C257.129 60.116 256.931 60.434 256.691 60.71C256.451 60.986 256.193 61.244 255.917 61.484C255.653 61.724 255.401 61.964 255.161 62.204C254.921 62.444 254.723 62.708 254.567 62.996C254.411 63.284 254.333 63.626 254.333 64.022H252.533ZM253.451 68.108C253.115 68.108 252.833 67.994 252.605 67.766C252.389 67.538 252.281 67.268 252.281 66.956C252.281 66.62 252.389 66.344 252.605 66.128C252.833 65.912 253.115 65.804 253.451 65.804C253.787 65.804 254.063 65.912 254.279 66.128C254.495 66.344 254.603 66.62 254.603 66.956C254.603 67.268 254.495 67.538 254.279 67.766C254.063 67.994 253.787 68.108 253.451 68.108Z" fill="#232323"/>
</svg>
