<svg width="283" height="123" viewBox="0 0 283 123" fill="none" xmlns="http://www.w3.org/2000/svg">
<rect x="17.9999" width="265" height="102" rx="20" fill="white"/>
<path d="M12.2069 112.808L18.2183 83.3438L39.3614 99.8883L12.2069 112.808Z" fill="white"/>
<path d="M63.7631 40.888C63.0551 41.188 62.3651 41.416 61.6931 41.572C61.0331 41.716 60.3911 41.788 59.7671 41.788C58.2311 41.788 57.0371 41.416 56.1851 40.672C55.3451 39.928 54.9251 38.866 54.9251 37.486V33.4H56.6891V37.288C56.6891 38.224 56.9771 38.944 57.5531 39.448C58.1291 39.952 58.9331 40.204 59.9651 40.204C60.5771 40.204 61.2011 40.126 61.8371 39.97C62.4851 39.814 63.1151 39.586 63.7271 39.286L63.7631 40.888ZM63.4571 46V33.4H65.2391V46H63.4571ZM68.881 46V36.46H70.609V43.408L76.459 36.46H78.025V46H76.297V39.052L70.465 46H68.881ZM86.2131 46V36.46H95.0511V46H93.3231V37.54L93.7371 37.972H87.5271L87.9411 37.54V46H86.2131ZM102.481 46.108C101.521 46.108 100.669 45.898 99.9247 45.478C99.1807 45.058 98.5927 44.482 98.1607 43.75C97.7287 43.006 97.5127 42.166 97.5127 41.23C97.5127 40.282 97.7287 39.442 98.1607 38.71C98.5927 37.978 99.1807 37.408 99.9247 37C100.669 36.58 101.521 36.37 102.481 36.37C103.429 36.37 104.275 36.58 105.019 37C105.775 37.408 106.363 37.978 106.783 38.71C107.215 39.43 107.431 40.27 107.431 41.23C107.431 42.178 107.215 43.018 106.783 43.75C106.363 44.482 105.775 45.058 105.019 45.478C104.275 45.898 103.429 46.108 102.481 46.108ZM102.481 44.596C103.093 44.596 103.639 44.458 104.119 44.182C104.611 43.906 104.995 43.516 105.271 43.012C105.547 42.496 105.685 41.902 105.685 41.23C105.685 40.546 105.547 39.958 105.271 39.466C104.995 38.962 104.611 38.572 104.119 38.296C103.639 38.02 103.093 37.882 102.481 37.882C101.869 37.882 101.323 38.02 100.843 38.296C100.363 38.572 99.9787 38.962 99.6907 39.466C99.4027 39.958 99.2587 40.546 99.2587 41.23C99.2587 41.902 99.4027 42.496 99.6907 43.012C99.9787 43.516 100.363 43.906 100.843 44.182C101.323 44.458 101.869 44.596 102.481 44.596ZM111.464 46V37.522L111.896 37.972H107.972V36.46H116.684V37.972H112.778L113.192 37.522V46H111.464ZM123.509 46.108C122.717 46.108 121.991 45.928 121.331 45.568C120.683 45.196 120.161 44.65 119.765 43.93C119.381 43.21 119.189 42.31 119.189 41.23C119.189 40.15 119.375 39.25 119.747 38.53C120.131 37.81 120.647 37.27 121.295 36.91C121.955 36.55 122.693 36.37 123.509 36.37C124.445 36.37 125.273 36.574 125.993 36.982C126.713 37.39 127.283 37.96 127.703 38.692C128.123 39.412 128.333 40.258 128.333 41.23C128.333 42.202 128.123 43.054 127.703 43.786C127.283 44.518 126.713 45.088 125.993 45.496C125.273 45.904 124.445 46.108 123.509 46.108ZM118.451 49.492V36.46H120.107V39.034L119.999 41.248L120.179 43.462V49.492H118.451ZM123.365 44.596C123.977 44.596 124.523 44.458 125.003 44.182C125.495 43.906 125.879 43.516 126.155 43.012C126.443 42.496 126.587 41.902 126.587 41.23C126.587 40.546 126.443 39.958 126.155 39.466C125.879 38.962 125.495 38.572 125.003 38.296C124.523 38.02 123.977 37.882 123.365 37.882C122.765 37.882 122.219 38.02 121.727 38.296C121.247 38.572 120.863 38.962 120.575 39.466C120.299 39.958 120.161 40.546 120.161 41.23C120.161 41.902 120.299 42.496 120.575 43.012C120.863 43.516 121.247 43.906 121.727 44.182C122.219 44.458 122.765 44.596 123.365 44.596ZM130.844 46V36.46H132.572V46H130.844ZM131.708 34.624C131.372 34.624 131.09 34.516 130.862 34.3C130.646 34.084 130.538 33.82 130.538 33.508C130.538 33.184 130.646 32.914 130.862 32.698C131.09 32.482 131.372 32.374 131.708 32.374C132.044 32.374 132.32 32.482 132.536 32.698C132.764 32.902 132.878 33.16 132.878 33.472C132.878 33.796 132.77 34.072 132.554 34.3C132.338 34.516 132.056 34.624 131.708 34.624ZM140.352 46.144C139.56 46.144 138.858 46.018 138.246 45.766C137.646 45.514 137.13 45.142 136.698 44.65C136.266 44.146 135.936 43.516 135.708 42.76C135.492 41.992 135.384 41.092 135.384 40.06C135.384 39.244 135.456 38.512 135.6 37.864C135.744 37.216 135.948 36.64 136.212 36.136C136.488 35.632 136.824 35.194 137.22 34.822C137.628 34.45 138.084 34.144 138.588 33.904C139.104 33.652 139.668 33.46 140.28 33.328L144.636 32.356L144.888 33.958L140.874 34.822C140.634 34.87 140.346 34.942 140.01 35.038C139.674 35.134 139.332 35.284 138.984 35.488C138.636 35.68 138.312 35.95 138.012 36.298C137.712 36.646 137.472 37.102 137.292 37.666C137.112 38.218 137.022 38.902 137.022 39.718C137.022 39.946 137.028 40.12 137.04 40.24C137.052 40.36 137.064 40.48 137.076 40.6C137.1 40.72 137.118 40.9 137.13 41.14L136.41 40.402C136.602 39.742 136.908 39.166 137.328 38.674C137.748 38.182 138.252 37.804 138.84 37.54C139.44 37.264 140.094 37.126 140.802 37.126C141.69 37.126 142.476 37.318 143.16 37.702C143.856 38.086 144.402 38.614 144.798 39.286C145.194 39.958 145.392 40.726 145.392 41.59C145.392 42.466 145.182 43.252 144.762 43.948C144.354 44.632 143.772 45.172 143.016 45.568C142.26 45.952 141.372 46.144 140.352 46.144ZM140.514 44.704C141.126 44.704 141.666 44.572 142.134 44.308C142.602 44.032 142.968 43.666 143.232 43.21C143.496 42.742 143.628 42.22 143.628 41.644C143.628 41.068 143.496 40.558 143.232 40.114C142.968 39.67 142.602 39.322 142.134 39.07C141.666 38.806 141.114 38.674 140.478 38.674C139.878 38.674 139.338 38.8 138.858 39.052C138.378 39.292 138.006 39.634 137.742 40.078C137.478 40.51 137.346 41.014 137.346 41.59C137.346 42.166 137.478 42.694 137.742 43.174C138.018 43.642 138.39 44.014 138.858 44.29C139.338 44.566 139.89 44.704 140.514 44.704ZM152.108 46.108C151.088 46.108 150.188 45.898 149.408 45.478C148.64 45.058 148.04 44.482 147.608 43.75C147.188 43.018 146.978 42.178 146.978 41.23C146.978 40.282 147.182 39.442 147.59 38.71C148.01 37.978 148.58 37.408 149.3 37C150.032 36.58 150.854 36.37 151.766 36.37C152.69 36.37 153.506 36.574 154.214 36.982C154.922 37.39 155.474 37.966 155.87 38.71C156.278 39.442 156.482 40.3 156.482 41.284C156.482 41.356 156.476 41.44 156.464 41.536C156.464 41.632 156.458 41.722 156.446 41.806H148.328V40.564H155.546L154.844 40.996C154.856 40.384 154.73 39.838 154.466 39.358C154.202 38.878 153.836 38.506 153.368 38.242C152.912 37.966 152.378 37.828 151.766 37.828C151.166 37.828 150.632 37.966 150.164 38.242C149.696 38.506 149.33 38.884 149.066 39.376C148.802 39.856 148.67 40.408 148.67 41.032V41.32C148.67 41.956 148.814 42.526 149.102 43.03C149.402 43.522 149.816 43.906 150.344 44.182C150.872 44.458 151.478 44.596 152.162 44.596C152.726 44.596 153.236 44.5 153.692 44.308C154.16 44.116 154.568 43.828 154.916 43.444L155.87 44.56C155.438 45.064 154.898 45.448 154.25 45.712C153.614 45.976 152.9 46.108 152.108 46.108ZM159.162 46V36.46H160.89V40.51H166.326V36.46H168.054V46H166.326V42.004H160.89V46H159.162ZM176.248 46V36.46H185.086V46H183.358V37.54L183.772 37.972H177.562L177.976 37.54V46H176.248ZM194.28 46V43.984L194.19 43.606V40.168C194.19 39.436 193.974 38.872 193.542 38.476C193.122 38.068 192.486 37.864 191.634 37.864C191.07 37.864 190.518 37.96 189.978 38.152C189.438 38.332 188.982 38.578 188.61 38.89L187.89 37.594C188.382 37.198 188.97 36.898 189.654 36.694C190.35 36.478 191.076 36.37 191.832 36.37C193.14 36.37 194.148 36.688 194.856 37.324C195.564 37.96 195.918 38.932 195.918 40.24V46H194.28ZM191.148 46.108C190.44 46.108 189.816 45.988 189.276 45.748C188.748 45.508 188.34 45.178 188.052 44.758C187.764 44.326 187.62 43.84 187.62 43.3C187.62 42.784 187.74 42.316 187.98 41.896C188.232 41.476 188.634 41.14 189.186 40.888C189.75 40.636 190.506 40.51 191.454 40.51H194.478V41.752H191.526C190.662 41.752 190.08 41.896 189.78 42.184C189.48 42.472 189.33 42.82 189.33 43.228C189.33 43.696 189.516 44.074 189.888 44.362C190.26 44.638 190.776 44.776 191.436 44.776C192.084 44.776 192.648 44.632 193.128 44.344C193.62 44.056 193.974 43.636 194.19 43.084L194.532 44.272C194.304 44.836 193.902 45.286 193.326 45.622C192.75 45.946 192.024 46.108 191.148 46.108ZM199.029 46V36.46H200.757V44.488H205.977V36.46H207.705V46H199.029ZM207.579 48.214V45.91L208.011 46H205.977V44.488H209.217V48.214H207.579ZM211.457 46V36.46H213.185V40.366H216.065V41.968H213.185V46H211.457ZM219.899 46.108C218.963 46.108 218.129 45.898 217.397 45.478C216.677 45.058 216.107 44.482 215.687 43.75C215.267 43.006 215.057 42.166 215.057 41.23C215.057 40.282 215.267 39.442 215.687 38.71C216.107 37.966 216.677 37.39 217.397 36.982C218.129 36.574 218.963 36.37 219.899 36.37C220.823 36.37 221.651 36.574 222.383 36.982C223.115 37.39 223.691 37.966 224.111 38.71C224.531 39.442 224.741 40.282 224.741 41.23C224.741 42.178 224.531 43.018 224.111 43.75C223.691 44.482 223.115 45.058 222.383 45.478C221.651 45.898 220.823 46.108 219.899 46.108ZM219.899 44.596C220.499 44.596 221.033 44.458 221.501 44.182C221.969 43.894 222.341 43.504 222.617 43.012C222.893 42.508 223.031 41.914 223.031 41.23C223.031 40.546 222.893 39.958 222.617 39.466C222.341 38.962 221.969 38.572 221.501 38.296C221.033 38.02 220.499 37.882 219.899 37.882C219.311 37.882 218.777 38.02 218.297 38.296C217.829 38.572 217.457 38.962 217.181 39.466C216.905 39.958 216.767 40.546 216.767 41.23C216.767 41.914 216.905 42.508 217.181 43.012C217.457 43.504 217.829 43.894 218.297 44.182C218.777 44.458 219.311 44.596 219.899 44.596ZM234.137 46L230.447 41.356L231.869 40.492L236.171 46H234.137ZM227.225 46V36.46H228.953V46H227.225ZM228.431 41.968V40.492H231.581V41.968H228.431ZM232.013 41.428L230.411 41.212L234.065 36.46H235.919L232.013 41.428ZM237.924 49.6C237.468 49.6 237.024 49.522 236.592 49.366C236.16 49.222 235.788 49.006 235.476 48.718L236.214 47.422C236.454 47.65 236.718 47.824 237.006 47.944C237.294 48.064 237.6 48.124 237.924 48.124C238.344 48.124 238.692 48.016 238.968 47.8C239.244 47.584 239.502 47.2 239.742 46.648L240.336 45.334L240.516 45.118L244.26 36.46H245.952L241.326 46.954C241.05 47.626 240.738 48.154 240.39 48.538C240.054 48.922 239.682 49.192 239.274 49.348C238.866 49.516 238.416 49.6 237.924 49.6ZM240.192 46.306L235.836 36.46H237.636L241.344 44.956L240.192 46.306ZM97.2203 67.19V59.972H93.0803L92.9903 61.808C92.9663 62.408 92.9243 62.99 92.8643 63.554C92.8163 64.106 92.7323 64.616 92.6123 65.084C92.5043 65.552 92.3423 65.936 92.1263 66.236C91.9103 66.536 91.6223 66.722 91.2623 66.794L89.5523 66.488C89.9243 66.5 90.2243 66.38 90.4523 66.128C90.6803 65.864 90.8543 65.504 90.9743 65.048C91.1063 64.592 91.2023 64.076 91.2623 63.5C91.3223 62.912 91.3703 62.306 91.4063 61.682L91.5503 58.46H98.9483V67.19H97.2203ZM89.1743 70.214V66.488H100.406V70.214H98.7863V68H90.8123V70.214H89.1743ZM107.715 68.108C106.923 68.108 106.197 67.928 105.537 67.568C104.889 67.196 104.367 66.65 103.971 65.93C103.587 65.21 103.395 64.31 103.395 63.23C103.395 62.15 103.581 61.25 103.953 60.53C104.337 59.81 104.853 59.27 105.501 58.91C106.161 58.55 106.899 58.37 107.715 58.37C108.651 58.37 109.479 58.574 110.199 58.982C110.919 59.39 111.489 59.96 111.909 60.692C112.329 61.412 112.539 62.258 112.539 63.23C112.539 64.202 112.329 65.054 111.909 65.786C111.489 66.518 110.919 67.088 110.199 67.496C109.479 67.904 108.651 68.108 107.715 68.108ZM102.657 71.492V58.46H104.313V61.034L104.205 63.248L104.385 65.462V71.492H102.657ZM107.571 66.596C108.183 66.596 108.729 66.458 109.209 66.182C109.701 65.906 110.085 65.516 110.361 65.012C110.649 64.496 110.793 63.902 110.793 63.23C110.793 62.546 110.649 61.958 110.361 61.466C110.085 60.962 109.701 60.572 109.209 60.296C108.729 60.02 108.183 59.882 107.571 59.882C106.971 59.882 106.425 60.02 105.933 60.296C105.453 60.572 105.069 60.962 104.781 61.466C104.505 61.958 104.367 62.546 104.367 63.23C104.367 63.902 104.505 64.496 104.781 65.012C105.069 65.516 105.453 65.906 105.933 66.182C106.425 66.458 106.971 66.596 107.571 66.596ZM115.272 71.6C114.816 71.6 114.372 71.522 113.94 71.366C113.508 71.222 113.136 71.006 112.824 70.718L113.562 69.422C113.802 69.65 114.066 69.824 114.354 69.944C114.642 70.064 114.948 70.124 115.272 70.124C115.692 70.124 116.04 70.016 116.316 69.8C116.592 69.584 116.85 69.2 117.09 68.648L117.684 67.334L117.864 67.118L121.608 58.46H123.3L118.674 68.954C118.398 69.626 118.086 70.154 117.738 70.538C117.402 70.922 117.03 71.192 116.622 71.348C116.214 71.516 115.764 71.6 115.272 71.6ZM117.54 68.306L113.184 58.46H114.984L118.692 66.956L117.54 68.306ZM125.07 68V58.46H132.09V59.972H126.384L126.798 59.576V68H125.07ZM132.859 63.806V62.312H137.701V63.806H132.859ZM140.398 68V58.46H149.236V68H147.508V59.54L147.922 59.972H141.712L142.126 59.54V68H140.398ZM158.429 68V65.984L158.339 65.606V62.168C158.339 61.436 158.123 60.872 157.691 60.476C157.271 60.068 156.635 59.864 155.783 59.864C155.219 59.864 154.667 59.96 154.127 60.152C153.587 60.332 153.131 60.578 152.759 60.89L152.039 59.594C152.531 59.198 153.119 58.898 153.803 58.694C154.499 58.478 155.225 58.37 155.981 58.37C157.289 58.37 158.297 58.688 159.005 59.324C159.713 59.96 160.067 60.932 160.067 62.24V68H158.429ZM155.297 68.108C154.589 68.108 153.965 67.988 153.425 67.748C152.897 67.508 152.489 67.178 152.201 66.758C151.913 66.326 151.769 65.84 151.769 65.3C151.769 64.784 151.889 64.316 152.129 63.896C152.381 63.476 152.783 63.14 153.335 62.888C153.899 62.636 154.655 62.51 155.603 62.51H158.627V63.752H155.675C154.811 63.752 154.229 63.896 153.929 64.184C153.629 64.472 153.479 64.82 153.479 65.228C153.479 65.696 153.665 66.074 154.037 66.362C154.409 66.638 154.925 66.776 155.585 66.776C156.233 66.776 156.797 66.632 157.277 66.344C157.769 66.056 158.123 65.636 158.339 65.084L158.681 66.272C158.453 66.836 158.051 67.286 157.475 67.622C156.899 67.946 156.173 68.108 155.297 68.108ZM163.179 68V58.46H164.907V66.488H170.127V58.46H171.855V68H163.179ZM171.729 70.214V67.91L172.161 68H170.127V66.488H173.367V70.214H171.729ZM175.607 68V58.46H177.335V62.366H180.215V63.968H177.335V68H175.607ZM184.049 68.108C183.113 68.108 182.279 67.898 181.547 67.478C180.827 67.058 180.257 66.482 179.837 65.75C179.417 65.006 179.207 64.166 179.207 63.23C179.207 62.282 179.417 61.442 179.837 60.71C180.257 59.966 180.827 59.39 181.547 58.982C182.279 58.574 183.113 58.37 184.049 58.37C184.973 58.37 185.801 58.574 186.533 58.982C187.265 59.39 187.841 59.966 188.261 60.71C188.681 61.442 188.891 62.282 188.891 63.23C188.891 64.178 188.681 65.018 188.261 65.75C187.841 66.482 187.265 67.058 186.533 67.478C185.801 67.898 184.973 68.108 184.049 68.108ZM184.049 66.596C184.649 66.596 185.183 66.458 185.651 66.182C186.119 65.894 186.491 65.504 186.767 65.012C187.043 64.508 187.181 63.914 187.181 63.23C187.181 62.546 187.043 61.958 186.767 61.466C186.491 60.962 186.119 60.572 185.651 60.296C185.183 60.02 184.649 59.882 184.049 59.882C183.461 59.882 182.927 60.02 182.447 60.296C181.979 60.572 181.607 60.962 181.331 61.466C181.055 61.958 180.917 62.546 180.917 63.23C180.917 63.914 181.055 64.508 181.331 65.012C181.607 65.504 181.979 65.894 182.447 66.182C182.927 66.458 183.461 66.596 184.049 66.596ZM198.286 68L194.596 63.356L196.018 62.492L200.32 68H198.286ZM191.374 68V58.46H193.102V68H191.374ZM192.58 63.968V62.492H195.73V63.968H192.58ZM196.162 63.428L194.56 63.212L198.214 58.46H200.068L196.162 63.428ZM204.755 64.022C204.755 63.554 204.833 63.146 204.989 62.798C205.145 62.45 205.337 62.138 205.565 61.862C205.805 61.586 206.063 61.334 206.339 61.106C206.615 60.866 206.873 60.632 207.113 60.404C207.353 60.164 207.545 59.912 207.689 59.648C207.845 59.384 207.923 59.078 207.923 58.73C207.923 58.154 207.695 57.686 207.239 57.326C206.783 56.966 206.153 56.786 205.349 56.786C204.629 56.786 204.005 56.906 203.477 57.146C202.949 57.386 202.499 57.74 202.127 58.208L200.813 57.272C201.317 56.636 201.959 56.144 202.739 55.796C203.519 55.436 204.431 55.256 205.475 55.256C206.339 55.256 207.089 55.388 207.725 55.652C208.361 55.904 208.853 56.27 209.201 56.75C209.561 57.218 209.741 57.788 209.741 58.46C209.741 58.964 209.663 59.396 209.507 59.756C209.351 60.116 209.153 60.434 208.913 60.71C208.673 60.986 208.415 61.244 208.139 61.484C207.875 61.724 207.623 61.964 207.383 62.204C207.143 62.444 206.945 62.708 206.789 62.996C206.633 63.284 206.555 63.626 206.555 64.022H204.755ZM205.673 68.108C205.337 68.108 205.055 67.994 204.827 67.766C204.611 67.538 204.503 67.268 204.503 66.956C204.503 66.62 204.611 66.344 204.827 66.128C205.055 65.912 205.337 65.804 205.673 65.804C206.009 65.804 206.285 65.912 206.501 66.128C206.717 66.344 206.825 66.62 206.825 66.956C206.825 67.268 206.717 67.538 206.501 67.766C206.285 67.994 206.009 68.108 205.673 68.108Z" fill="#232323"/>
</svg>
