<svg width="283" height="123" viewBox="0 0 283 123" fill="none" xmlns="http://www.w3.org/2000/svg">
<rect x="18" width="265" height="102" rx="20" fill="white"/>
<path d="M12.207 112.808L18.2184 83.3439L39.3614 99.8884L12.207 112.808Z" fill="white"/>
<path d="M58.1558 46V41.896L58.6238 42.328H54.6818C53.6618 42.328 52.7798 42.154 52.0358 41.806C51.3038 41.458 50.7398 40.96 50.3438 40.312C49.9598 39.652 49.7678 38.86 49.7678 37.936C49.7678 36.976 49.9778 36.16 50.3978 35.488C50.8178 34.804 51.4118 34.288 52.1798 33.94C52.9478 33.58 53.8418 33.4 54.8618 33.4H59.9198V46H58.1558ZM49.7678 46L52.8818 41.536H54.7178L51.6758 46H49.7678ZM58.1558 41.32V34.444L58.6238 34.966H54.9338C53.8538 34.966 53.0258 35.218 52.4498 35.722C51.8738 36.214 51.5858 36.946 51.5858 37.918C51.5858 38.842 51.8558 39.556 52.3958 40.06C52.9478 40.564 53.7578 40.816 54.8258 40.816H58.6238L58.1558 41.32ZM70.4758 46L66.7858 41.356L68.2078 40.492L72.5098 46H70.4758ZM63.5638 46V36.46H65.2918V46H63.5638ZM64.7698 41.968V40.492H67.9198V41.968H64.7698ZM68.3518 41.428L66.7498 41.212L70.4038 36.46H72.2578L68.3518 41.428ZM79.1556 46V36.46H87.9936V46H86.2656V37.54L86.6796 37.972H80.4696L80.8836 37.54V46H79.1556ZM96.3952 46.108C95.6032 46.108 94.8772 45.928 94.2172 45.568C93.5692 45.196 93.0472 44.65 92.6512 43.93C92.2672 43.21 92.0752 42.31 92.0752 41.23C92.0752 40.15 92.2612 39.25 92.6332 38.53C93.0172 37.81 93.5332 37.27 94.1812 36.91C94.8412 36.55 95.5792 36.37 96.3952 36.37C97.3312 36.37 98.1592 36.574 98.8792 36.982C99.5992 37.39 100.169 37.96 100.589 38.692C101.009 39.412 101.219 40.258 101.219 41.23C101.219 42.202 101.009 43.054 100.589 43.786C100.169 44.518 99.5992 45.088 98.8792 45.496C98.1592 45.904 97.3312 46.108 96.3952 46.108ZM91.3372 49.492V36.46H92.9932V39.034L92.8852 41.248L93.0652 43.462V49.492H91.3372ZM96.2512 44.596C96.8632 44.596 97.4092 44.458 97.8892 44.182C98.3812 43.906 98.7652 43.516 99.0412 43.012C99.3292 42.496 99.4732 41.902 99.4732 41.23C99.4732 40.546 99.3292 39.958 99.0412 39.466C98.7652 38.962 98.3812 38.572 97.8892 38.296C97.4092 38.02 96.8632 37.882 96.2512 37.882C95.6512 37.882 95.1052 38.02 94.6132 38.296C94.1332 38.572 93.7492 38.962 93.4612 39.466C93.1852 39.958 93.0472 40.546 93.0472 41.23C93.0472 41.902 93.1852 42.496 93.4612 43.012C93.7492 43.516 94.1332 43.906 94.6132 44.182C95.1052 44.458 95.6512 44.596 96.2512 44.596ZM109.492 46V43.984L109.402 43.606V40.168C109.402 39.436 109.186 38.872 108.754 38.476C108.334 38.068 107.698 37.864 106.846 37.864C106.282 37.864 105.73 37.96 105.19 38.152C104.65 38.332 104.194 38.578 103.822 38.89L103.102 37.594C103.594 37.198 104.182 36.898 104.866 36.694C105.562 36.478 106.288 36.37 107.044 36.37C108.352 36.37 109.36 36.688 110.068 37.324C110.776 37.96 111.13 38.932 111.13 40.24V46H109.492ZM106.36 46.108C105.652 46.108 105.028 45.988 104.488 45.748C103.96 45.508 103.552 45.178 103.264 44.758C102.976 44.326 102.832 43.84 102.832 43.3C102.832 42.784 102.952 42.316 103.192 41.896C103.444 41.476 103.846 41.14 104.398 40.888C104.962 40.636 105.718 40.51 106.666 40.51H109.69V41.752H106.738C105.874 41.752 105.292 41.896 104.992 42.184C104.692 42.472 104.542 42.82 104.542 43.228C104.542 43.696 104.728 44.074 105.1 44.362C105.472 44.638 105.988 44.776 106.648 44.776C107.296 44.776 107.86 44.632 108.34 44.344C108.832 44.056 109.186 43.636 109.402 43.084L109.744 44.272C109.516 44.836 109.114 45.286 108.538 45.622C107.962 45.946 107.236 46.108 106.36 46.108ZM114.242 46V36.46H118.67C119.786 36.46 120.662 36.676 121.298 37.108C121.946 37.528 122.27 38.128 122.27 38.908C122.27 39.688 121.964 40.294 121.352 40.726C120.752 41.146 119.954 41.356 118.958 41.356L119.228 40.888C120.368 40.888 121.214 41.098 121.766 41.518C122.318 41.938 122.594 42.556 122.594 43.372C122.594 44.2 122.282 44.848 121.658 45.316C121.046 45.772 120.104 46 118.832 46H114.242ZM115.934 44.668H118.706C119.426 44.668 119.966 44.56 120.326 44.344C120.686 44.116 120.866 43.756 120.866 43.264C120.866 42.76 120.698 42.394 120.362 42.166C120.038 41.926 119.522 41.806 118.814 41.806H115.934V44.668ZM115.934 40.564H118.526C119.186 40.564 119.684 40.444 120.02 40.204C120.368 39.952 120.542 39.604 120.542 39.16C120.542 38.704 120.368 38.362 120.02 38.134C119.684 37.906 119.186 37.792 118.526 37.792H115.934V40.564ZM125.298 46V36.46H127.026V43.408L132.876 36.46H134.442V46H132.714V39.052L126.882 46H125.298ZM136.212 45.982L136.32 44.524C136.404 44.536 136.482 44.548 136.554 44.56C136.626 44.572 136.692 44.578 136.752 44.578C137.136 44.578 137.436 44.446 137.652 44.182C137.88 43.918 138.048 43.57 138.156 43.138C138.264 42.694 138.342 42.196 138.39 41.644C138.438 41.092 138.474 40.54 138.498 39.988L138.66 36.46H145.986V46H144.258V37.468L144.672 37.972H139.776L140.172 37.45L140.046 40.096C140.01 40.936 139.944 41.722 139.848 42.454C139.752 43.186 139.602 43.828 139.398 44.38C139.206 44.932 138.936 45.364 138.588 45.676C138.252 45.988 137.814 46.144 137.274 46.144C137.118 46.144 136.95 46.126 136.77 46.09C136.602 46.066 136.416 46.03 136.212 45.982ZM153.737 39.7C154.949 39.712 155.873 39.988 156.509 40.528C157.145 41.068 157.463 41.83 157.463 42.814C157.463 43.846 157.115 44.644 156.419 45.208C155.723 45.76 154.739 46.03 153.467 46.018L149.327 46V36.46H151.055V39.682L153.737 39.7ZM153.323 44.704C154.103 44.716 154.691 44.56 155.087 44.236C155.495 43.912 155.699 43.432 155.699 42.796C155.699 42.172 155.501 41.716 155.105 41.428C154.709 41.14 154.115 40.99 153.323 40.978L151.055 40.942V44.686L153.323 44.704ZM159.681 46V36.46H161.409V40.51H166.845V36.46H168.573V46H166.845V42.004H161.409V46H159.681ZM176.019 46.108C175.059 46.108 174.207 45.898 173.463 45.478C172.719 45.058 172.131 44.482 171.699 43.75C171.267 43.006 171.051 42.166 171.051 41.23C171.051 40.282 171.267 39.442 171.699 38.71C172.131 37.978 172.719 37.408 173.463 37C174.207 36.58 175.059 36.37 176.019 36.37C176.967 36.37 177.813 36.58 178.557 37C179.313 37.408 179.901 37.978 180.321 38.71C180.753 39.43 180.969 40.27 180.969 41.23C180.969 42.178 180.753 43.018 180.321 43.75C179.901 44.482 179.313 45.058 178.557 45.478C177.813 45.898 176.967 46.108 176.019 46.108ZM176.019 44.596C176.631 44.596 177.177 44.458 177.657 44.182C178.149 43.906 178.533 43.516 178.809 43.012C179.085 42.496 179.223 41.902 179.223 41.23C179.223 40.546 179.085 39.958 178.809 39.466C178.533 38.962 178.149 38.572 177.657 38.296C177.177 38.02 176.631 37.882 176.019 37.882C175.407 37.882 174.861 38.02 174.381 38.296C173.901 38.572 173.517 38.962 173.229 39.466C172.941 39.958 172.797 40.546 172.797 41.23C172.797 41.902 172.941 42.496 173.229 43.012C173.517 43.516 173.901 43.906 174.381 44.182C174.861 44.458 175.407 44.596 176.019 44.596ZM195.21 46L191.52 41.356L192.942 40.492L197.244 46H195.21ZM188.298 46V36.46H190.026V46H188.298ZM189.504 41.968V40.492H192.654V41.968H189.504ZM193.086 41.428L191.484 41.212L195.138 36.46H196.992L193.086 41.428ZM198.997 49.6C198.541 49.6 198.097 49.522 197.665 49.366C197.233 49.222 196.861 49.006 196.549 48.718L197.287 47.422C197.527 47.65 197.791 47.824 198.079 47.944C198.367 48.064 198.673 48.124 198.997 48.124C199.417 48.124 199.765 48.016 200.041 47.8C200.317 47.584 200.575 47.2 200.815 46.648L201.409 45.334L201.589 45.118L205.333 36.46H207.025L202.399 46.954C202.123 47.626 201.811 48.154 201.463 48.538C201.127 48.922 200.755 49.192 200.347 49.348C199.939 49.516 199.489 49.6 198.997 49.6ZM201.265 46.306L196.909 36.46H198.709L202.417 44.956L201.265 46.306ZM208.794 46V36.46H217.632V46H215.904V37.54L216.318 37.972H210.108L210.522 37.54V46H208.794ZM226.826 46V43.984L226.736 43.606V40.168C226.736 39.436 226.52 38.872 226.088 38.476C225.668 38.068 225.032 37.864 224.18 37.864C223.616 37.864 223.064 37.96 222.524 38.152C221.984 38.332 221.528 38.578 221.156 38.89L220.436 37.594C220.928 37.198 221.516 36.898 222.2 36.694C222.896 36.478 223.622 36.37 224.378 36.37C225.686 36.37 226.694 36.688 227.402 37.324C228.11 37.96 228.464 38.932 228.464 40.24V46H226.826ZM223.694 46.108C222.986 46.108 222.362 45.988 221.822 45.748C221.294 45.508 220.886 45.178 220.598 44.758C220.31 44.326 220.166 43.84 220.166 43.3C220.166 42.784 220.286 42.316 220.526 41.896C220.778 41.476 221.18 41.14 221.732 40.888C222.296 40.636 223.052 40.51 224 40.51H227.024V41.752H224.072C223.208 41.752 222.626 41.896 222.326 42.184C222.026 42.472 221.876 42.82 221.876 43.228C221.876 43.696 222.062 44.074 222.434 44.362C222.806 44.638 223.322 44.776 223.982 44.776C224.63 44.776 225.194 44.632 225.674 44.344C226.166 44.056 226.52 43.636 226.736 43.084L227.078 44.272C226.85 44.836 226.448 45.286 225.872 45.622C225.296 45.946 224.57 46.108 223.694 46.108ZM233.465 46V37.522L233.897 37.972H229.973V36.46H238.685V37.972H234.779L235.193 37.522V46H233.465ZM240.452 46V36.46H242.18V43.408L248.03 36.46H249.596V46H247.868V39.052L242.036 46H240.452ZM76.3849 68.144C75.5929 68.144 74.8909 68.018 74.2789 67.766C73.6789 67.514 73.1629 67.142 72.7309 66.65C72.2989 66.146 71.9689 65.516 71.7409 64.76C71.5249 63.992 71.4169 63.092 71.4169 62.06C71.4169 61.244 71.4889 60.512 71.6329 59.864C71.7769 59.216 71.9809 58.64 72.2449 58.136C72.5209 57.632 72.8569 57.194 73.2529 56.822C73.6609 56.45 74.1169 56.144 74.6209 55.904C75.1369 55.652 75.7009 55.46 76.3129 55.328L80.6689 54.356L80.9209 55.958L76.9069 56.822C76.6669 56.87 76.3789 56.942 76.0429 57.038C75.7069 57.134 75.3649 57.284 75.0169 57.488C74.6689 57.68 74.3449 57.95 74.0449 58.298C73.7449 58.646 73.5049 59.102 73.3249 59.666C73.1449 60.218 73.0549 60.902 73.0549 61.718C73.0549 61.946 73.0609 62.12 73.0729 62.24C73.0849 62.36 73.0969 62.48 73.1089 62.6C73.1329 62.72 73.1509 62.9 73.1629 63.14L72.4429 62.402C72.6349 61.742 72.9409 61.166 73.3609 60.674C73.7809 60.182 74.2849 59.804 74.8729 59.54C75.4729 59.264 76.1269 59.126 76.8349 59.126C77.7229 59.126 78.5089 59.318 79.1929 59.702C79.8889 60.086 80.4349 60.614 80.8309 61.286C81.2269 61.958 81.4249 62.726 81.4249 63.59C81.4249 64.466 81.2149 65.252 80.7949 65.948C80.3869 66.632 79.8049 67.172 79.0489 67.568C78.2929 67.952 77.4049 68.144 76.3849 68.144ZM76.5469 66.704C77.1589 66.704 77.6989 66.572 78.1669 66.308C78.6349 66.032 79.0009 65.666 79.2649 65.21C79.5289 64.742 79.6609 64.22 79.6609 63.644C79.6609 63.068 79.5289 62.558 79.2649 62.114C79.0009 61.67 78.6349 61.322 78.1669 61.07C77.6989 60.806 77.1469 60.674 76.5109 60.674C75.9109 60.674 75.3709 60.8 74.8909 61.052C74.4109 61.292 74.0389 61.634 73.7749 62.078C73.5109 62.51 73.3789 63.014 73.3789 63.59C73.3789 64.166 73.5109 64.694 73.7749 65.174C74.0509 65.642 74.4229 66.014 74.8909 66.29C75.3709 66.566 75.9229 66.704 76.5469 66.704ZM87.9789 68.108C87.0189 68.108 86.1669 67.898 85.4229 67.478C84.6789 67.058 84.0909 66.482 83.6589 65.75C83.2269 65.006 83.0109 64.166 83.0109 63.23C83.0109 62.282 83.2269 61.442 83.6589 60.71C84.0909 59.978 84.6789 59.408 85.4229 59C86.1669 58.58 87.0189 58.37 87.9789 58.37C88.9269 58.37 89.7729 58.58 90.5169 59C91.2729 59.408 91.8609 59.978 92.2809 60.71C92.7129 61.43 92.9289 62.27 92.9289 63.23C92.9289 64.178 92.7129 65.018 92.2809 65.75C91.8609 66.482 91.2729 67.058 90.5169 67.478C89.7729 67.898 88.9269 68.108 87.9789 68.108ZM87.9789 66.596C88.5909 66.596 89.1369 66.458 89.6169 66.182C90.1089 65.906 90.4929 65.516 90.7689 65.012C91.0449 64.496 91.1829 63.902 91.1829 63.23C91.1829 62.546 91.0449 61.958 90.7689 61.466C90.4929 60.962 90.1089 60.572 89.6169 60.296C89.1369 60.02 88.5909 59.882 87.9789 59.882C87.3669 59.882 86.8209 60.02 86.3409 60.296C85.8609 60.572 85.4769 60.962 85.1889 61.466C84.9009 61.958 84.7569 62.546 84.7569 63.23C84.7569 63.902 84.9009 64.496 85.1889 65.012C85.4769 65.516 85.8609 65.906 86.3409 66.182C86.8209 66.458 87.3669 66.596 87.9789 66.596ZM100.482 68.108C99.6901 68.108 98.9641 67.928 98.3041 67.568C97.6561 67.196 97.1341 66.65 96.7381 65.93C96.3541 65.21 96.1621 64.31 96.1621 63.23C96.1621 62.15 96.3481 61.25 96.7201 60.53C97.1041 59.81 97.6201 59.27 98.2681 58.91C98.9281 58.55 99.6661 58.37 100.482 58.37C101.418 58.37 102.246 58.574 102.966 58.982C103.686 59.39 104.256 59.96 104.676 60.692C105.096 61.412 105.306 62.258 105.306 63.23C105.306 64.202 105.096 65.054 104.676 65.786C104.256 66.518 103.686 67.088 102.966 67.496C102.246 67.904 101.418 68.108 100.482 68.108ZM95.4241 71.492V58.46H97.0801V61.034L96.9721 63.248L97.1521 65.462V71.492H95.4241ZM100.338 66.596C100.95 66.596 101.496 66.458 101.976 66.182C102.468 65.906 102.852 65.516 103.128 65.012C103.416 64.496 103.56 63.902 103.56 63.23C103.56 62.546 103.416 61.958 103.128 61.466C102.852 60.962 102.468 60.572 101.976 60.296C101.496 60.02 100.95 59.882 100.338 59.882C99.7381 59.882 99.1921 60.02 98.7001 60.296C98.2201 60.572 97.8361 60.962 97.5481 61.466C97.2721 61.958 97.1341 62.546 97.1341 63.23C97.1341 63.902 97.2721 64.496 97.5481 65.012C97.8361 65.516 98.2201 65.906 98.7001 66.182C99.1921 66.458 99.7381 66.596 100.338 66.596ZM111.903 68.108C110.943 68.108 110.091 67.898 109.347 67.478C108.603 67.058 108.015 66.482 107.583 65.75C107.151 65.006 106.935 64.166 106.935 63.23C106.935 62.282 107.151 61.442 107.583 60.71C108.015 59.978 108.603 59.408 109.347 59C110.091 58.58 110.943 58.37 111.903 58.37C112.851 58.37 113.697 58.58 114.441 59C115.197 59.408 115.785 59.978 116.205 60.71C116.637 61.43 116.853 62.27 116.853 63.23C116.853 64.178 116.637 65.018 116.205 65.75C115.785 66.482 115.197 67.058 114.441 67.478C113.697 67.898 112.851 68.108 111.903 68.108ZM111.903 66.596C112.515 66.596 113.061 66.458 113.541 66.182C114.033 65.906 114.417 65.516 114.693 65.012C114.969 64.496 115.107 63.902 115.107 63.23C115.107 62.546 114.969 61.958 114.693 61.466C114.417 60.962 114.033 60.572 113.541 60.296C113.061 60.02 112.515 59.882 111.903 59.882C111.291 59.882 110.745 60.02 110.265 60.296C109.785 60.572 109.401 60.962 109.113 61.466C108.825 61.958 108.681 62.546 108.681 63.23C108.681 63.902 108.825 64.496 109.113 65.012C109.401 65.516 109.785 65.906 110.265 66.182C110.745 66.458 111.291 66.596 111.903 66.596ZM125.794 67.19V59.972H121.654L121.564 61.808C121.54 62.408 121.498 62.99 121.438 63.554C121.39 64.106 121.306 64.616 121.186 65.084C121.078 65.552 120.916 65.936 120.7 66.236C120.484 66.536 120.196 66.722 119.836 66.794L118.126 66.488C118.498 66.5 118.798 66.38 119.026 66.128C119.254 65.864 119.428 65.504 119.548 65.048C119.68 64.592 119.776 64.076 119.836 63.5C119.896 62.912 119.944 62.306 119.98 61.682L120.124 58.46H127.522V67.19H125.794ZM117.748 70.214V66.488H128.98V70.214H127.36V68H119.386V70.214H117.748ZM137.081 68V65.984L136.991 65.606V62.168C136.991 61.436 136.775 60.872 136.343 60.476C135.923 60.068 135.287 59.864 134.435 59.864C133.871 59.864 133.319 59.96 132.779 60.152C132.239 60.332 131.783 60.578 131.411 60.89L130.691 59.594C131.183 59.198 131.771 58.898 132.455 58.694C133.151 58.478 133.877 58.37 134.633 58.37C135.941 58.37 136.949 58.688 137.657 59.324C138.365 59.96 138.719 60.932 138.719 62.24V68H137.081ZM133.949 68.108C133.241 68.108 132.617 67.988 132.077 67.748C131.549 67.508 131.141 67.178 130.853 66.758C130.565 66.326 130.421 65.84 130.421 65.3C130.421 64.784 130.541 64.316 130.781 63.896C131.033 63.476 131.435 63.14 131.987 62.888C132.551 62.636 133.307 62.51 134.255 62.51H137.279V63.752H134.327C133.463 63.752 132.881 63.896 132.581 64.184C132.281 64.472 132.131 64.82 132.131 65.228C132.131 65.696 132.317 66.074 132.689 66.362C133.061 66.638 133.577 66.776 134.237 66.776C134.885 66.776 135.449 66.632 135.929 66.344C136.421 66.056 136.775 65.636 136.991 65.084L137.333 66.272C137.105 66.836 136.703 67.286 136.127 67.622C135.551 67.946 134.825 68.108 133.949 68.108ZM143.72 68V59.522L144.152 59.972H140.228V58.46H148.94V59.972H145.034L145.448 59.522V68H143.72ZM151.193 71.6C150.737 71.6 150.293 71.522 149.861 71.366C149.429 71.222 149.057 71.006 148.745 70.718L149.483 69.422C149.723 69.65 149.987 69.824 150.275 69.944C150.563 70.064 150.869 70.124 151.193 70.124C151.613 70.124 151.961 70.016 152.237 69.8C152.513 69.584 152.771 69.2 153.011 68.648L153.605 67.334L153.785 67.118L157.529 58.46H159.221L154.595 68.954C154.319 69.626 154.007 70.154 153.659 70.538C153.323 70.922 152.951 71.192 152.543 71.348C152.135 71.516 151.685 71.6 151.193 71.6ZM153.461 68.306L149.105 58.46H150.905L154.613 66.956L153.461 68.306ZM171.675 68V65.984L171.585 65.606V62.168C171.585 61.436 171.369 60.872 170.937 60.476C170.517 60.068 169.881 59.864 169.029 59.864C168.465 59.864 167.913 59.96 167.373 60.152C166.833 60.332 166.377 60.578 166.005 60.89L165.285 59.594C165.777 59.198 166.365 58.898 167.049 58.694C167.745 58.478 168.471 58.37 169.227 58.37C170.535 58.37 171.543 58.688 172.251 59.324C172.959 59.96 173.313 60.932 173.313 62.24V68H171.675ZM168.543 68.108C167.835 68.108 167.211 67.988 166.671 67.748C166.143 67.508 165.735 67.178 165.447 66.758C165.159 66.326 165.015 65.84 165.015 65.3C165.015 64.784 165.135 64.316 165.375 63.896C165.627 63.476 166.029 63.14 166.581 62.888C167.145 62.636 167.901 62.51 168.849 62.51H171.873V63.752H168.921C168.057 63.752 167.475 63.896 167.175 64.184C166.875 64.472 166.725 64.82 166.725 65.228C166.725 65.696 166.911 66.074 167.283 66.362C167.655 66.638 168.171 66.776 168.831 66.776C169.479 66.776 170.043 66.632 170.523 66.344C171.015 66.056 171.369 65.636 171.585 65.084L171.927 66.272C171.699 66.836 171.297 67.286 170.721 67.622C170.145 67.946 169.419 68.108 168.543 68.108ZM176.424 68V58.46H183.444V59.972H177.738L178.152 59.576V68H176.424ZM191.063 68V65.984L190.973 65.606V62.168C190.973 61.436 190.757 60.872 190.325 60.476C189.905 60.068 189.269 59.864 188.417 59.864C187.853 59.864 187.301 59.96 186.761 60.152C186.221 60.332 185.765 60.578 185.393 60.89L184.673 59.594C185.165 59.198 185.753 58.898 186.437 58.694C187.133 58.478 187.859 58.37 188.615 58.37C189.923 58.37 190.931 58.688 191.639 59.324C192.347 59.96 192.701 60.932 192.701 62.24V68H191.063ZM187.931 68.108C187.223 68.108 186.599 67.988 186.059 67.748C185.531 67.508 185.123 67.178 184.835 66.758C184.547 66.326 184.403 65.84 184.403 65.3C184.403 64.784 184.523 64.316 184.763 63.896C185.015 63.476 185.417 63.14 185.969 62.888C186.533 62.636 187.289 62.51 188.237 62.51H191.261V63.752H188.309C187.445 63.752 186.863 63.896 186.563 64.184C186.263 64.472 186.113 64.82 186.113 65.228C186.113 65.696 186.299 66.074 186.671 66.362C187.043 66.638 187.559 66.776 188.219 66.776C188.867 66.776 189.431 66.632 189.911 66.344C190.403 66.056 190.757 65.636 190.973 65.084L191.315 66.272C191.087 66.836 190.685 67.286 190.109 67.622C189.533 67.946 188.807 68.108 187.931 68.108ZM195.813 68V58.46H197.595L201.699 65.516H200.979L205.191 58.46H206.811V68H205.245V60.404L205.533 60.566L201.681 66.92H200.925L197.055 60.44L197.397 60.368V68H195.813ZM210.66 71.6C210.204 71.6 209.76 71.522 209.328 71.366C208.896 71.222 208.524 71.006 208.212 70.718L208.95 69.422C209.19 69.65 209.454 69.824 209.742 69.944C210.03 70.064 210.336 70.124 210.66 70.124C211.08 70.124 211.428 70.016 211.704 69.8C211.98 69.584 212.238 69.2 212.478 68.648L213.072 67.334L213.252 67.118L216.996 58.46H218.688L214.062 68.954C213.786 69.626 213.474 70.154 213.126 70.538C212.79 70.922 212.418 71.192 212.01 71.348C211.602 71.516 211.152 71.6 210.66 71.6ZM212.928 68.306L208.572 58.46H210.372L214.08 66.956L212.928 68.306ZM223.485 64.022C223.485 63.554 223.563 63.146 223.719 62.798C223.875 62.45 224.067 62.138 224.295 61.862C224.535 61.586 224.793 61.334 225.069 61.106C225.345 60.866 225.603 60.632 225.843 60.404C226.083 60.164 226.275 59.912 226.419 59.648C226.575 59.384 226.653 59.078 226.653 58.73C226.653 58.154 226.425 57.686 225.969 57.326C225.513 56.966 224.883 56.786 224.079 56.786C223.359 56.786 222.735 56.906 222.207 57.146C221.679 57.386 221.229 57.74 220.857 58.208L219.543 57.272C220.047 56.636 220.689 56.144 221.469 55.796C222.249 55.436 223.161 55.256 224.205 55.256C225.069 55.256 225.819 55.388 226.455 55.652C227.091 55.904 227.583 56.27 227.931 56.75C228.291 57.218 228.471 57.788 228.471 58.46C228.471 58.964 228.393 59.396 228.237 59.756C228.081 60.116 227.883 60.434 227.643 60.71C227.403 60.986 227.145 61.244 226.869 61.484C226.605 61.724 226.353 61.964 226.113 62.204C225.873 62.444 225.675 62.708 225.519 62.996C225.363 63.284 225.285 63.626 225.285 64.022H223.485ZM224.403 68.108C224.067 68.108 223.785 67.994 223.557 67.766C223.341 67.538 223.233 67.268 223.233 66.956C223.233 66.62 223.341 66.344 223.557 66.128C223.785 65.912 224.067 65.804 224.403 65.804C224.739 65.804 225.015 65.912 225.231 66.128C225.447 66.344 225.555 66.62 225.555 66.956C225.555 67.268 225.447 67.538 225.231 67.766C225.015 67.994 224.739 68.108 224.403 68.108Z" fill="#232323"/>
</svg>
