<svg width="283" height="123" viewBox="0 0 283 123" fill="none" xmlns="http://www.w3.org/2000/svg">
<rect x="18" width="265" height="102" rx="20" fill="white"/>
<path d="M12.207 112.808L18.2184 83.3439L39.3614 99.8884L12.207 112.808Z" fill="white"/>
<path d="M92.8462 46V41.896L93.3142 42.328H89.3722C88.3522 42.328 87.4702 42.154 86.7262 41.806C85.9942 41.458 85.4302 40.96 85.0342 40.312C84.6502 39.652 84.4582 38.86 84.4582 37.936C84.4582 36.976 84.6682 36.16 85.0882 35.488C85.5082 34.804 86.1022 34.288 86.8702 33.94C87.6382 33.58 88.5322 33.4 89.5522 33.4H94.6102V46H92.8462ZM84.4582 46L87.5722 41.536H89.4082L86.3662 46H84.4582ZM92.8462 41.32V34.444L93.3142 34.966H89.6242C88.5442 34.966 87.7162 35.218 87.1402 35.722C86.5642 36.214 86.2762 36.946 86.2762 37.918C86.2762 38.842 86.5462 39.556 87.0862 40.06C87.6382 40.564 88.4482 40.816 89.5162 40.816H93.3142L92.8462 41.32ZM105.166 46L101.476 41.356L102.898 40.492L107.2 46H105.166ZM98.2542 46V36.46H99.9822V46H98.2542ZM99.4602 41.968V40.492H102.61V41.968H99.4602ZM103.042 41.428L101.44 41.212L105.094 36.46H106.948L103.042 41.428ZM118.904 46.108C118.112 46.108 117.386 45.928 116.726 45.568C116.078 45.196 115.556 44.65 115.16 43.93C114.776 43.21 114.584 42.31 114.584 41.23C114.584 40.15 114.77 39.25 115.142 38.53C115.526 37.81 116.042 37.27 116.69 36.91C117.35 36.55 118.088 36.37 118.904 36.37C119.84 36.37 120.668 36.574 121.388 36.982C122.108 37.39 122.678 37.96 123.098 38.692C123.518 39.412 123.728 40.258 123.728 41.23C123.728 42.202 123.518 43.054 123.098 43.786C122.678 44.518 122.108 45.088 121.388 45.496C120.668 45.904 119.84 46.108 118.904 46.108ZM113.846 49.492V36.46H115.502V39.034L115.394 41.248L115.574 43.462V49.492H113.846ZM118.76 44.596C119.372 44.596 119.918 44.458 120.398 44.182C120.89 43.906 121.274 43.516 121.55 43.012C121.838 42.496 121.982 41.902 121.982 41.23C121.982 40.546 121.838 39.958 121.55 39.466C121.274 38.962 120.89 38.572 120.398 38.296C119.918 38.02 119.372 37.882 118.76 37.882C118.16 37.882 117.614 38.02 117.122 38.296C116.642 38.572 116.258 38.962 115.97 39.466C115.694 39.958 115.556 40.546 115.556 41.23C115.556 41.902 115.694 42.496 115.97 43.012C116.258 43.516 116.642 43.906 117.122 44.182C117.614 44.458 118.16 44.596 118.76 44.596ZM130.325 46.108C129.365 46.108 128.513 45.898 127.769 45.478C127.025 45.058 126.437 44.482 126.005 43.75C125.573 43.006 125.357 42.166 125.357 41.23C125.357 40.282 125.573 39.442 126.005 38.71C126.437 37.978 127.025 37.408 127.769 37C128.513 36.58 129.365 36.37 130.325 36.37C131.273 36.37 132.119 36.58 132.863 37C133.619 37.408 134.207 37.978 134.627 38.71C135.059 39.43 135.275 40.27 135.275 41.23C135.275 42.178 135.059 43.018 134.627 43.75C134.207 44.482 133.619 45.058 132.863 45.478C132.119 45.898 131.273 46.108 130.325 46.108ZM130.325 44.596C130.937 44.596 131.483 44.458 131.963 44.182C132.455 43.906 132.839 43.516 133.115 43.012C133.391 42.496 133.529 41.902 133.529 41.23C133.529 40.546 133.391 39.958 133.115 39.466C132.839 38.962 132.455 38.572 131.963 38.296C131.483 38.02 130.937 37.882 130.325 37.882C129.713 37.882 129.167 38.02 128.687 38.296C128.207 38.572 127.823 38.962 127.535 39.466C127.247 39.958 127.103 40.546 127.103 41.23C127.103 41.902 127.247 42.496 127.535 43.012C127.823 43.516 128.207 43.906 128.687 44.182C129.167 44.458 129.713 44.596 130.325 44.596ZM140.454 46.126C139.734 46.126 139.026 46.036 138.33 45.856C137.646 45.664 137.034 45.394 136.494 45.046L137.016 43.732C137.472 44.02 137.994 44.248 138.582 44.416C139.17 44.572 139.764 44.65 140.364 44.65C140.916 44.65 141.39 44.584 141.786 44.452C142.194 44.32 142.506 44.14 142.722 43.912C142.938 43.672 143.046 43.396 143.046 43.084C143.046 42.64 142.848 42.298 142.452 42.058C142.056 41.818 141.504 41.698 140.796 41.698H139.068V40.456H140.688C141.108 40.456 141.474 40.408 141.786 40.312C142.098 40.216 142.338 40.072 142.506 39.88C142.686 39.676 142.776 39.442 142.776 39.178C142.776 38.89 142.674 38.644 142.47 38.44C142.266 38.236 141.978 38.08 141.606 37.972C141.246 37.864 140.82 37.81 140.328 37.81C139.848 37.822 139.356 37.888 138.852 38.008C138.36 38.128 137.856 38.314 137.34 38.566L136.872 37.216C137.448 36.94 138.012 36.73 138.564 36.586C139.128 36.43 139.686 36.346 140.238 36.334C141.066 36.31 141.804 36.406 142.452 36.622C143.1 36.826 143.61 37.126 143.982 37.522C144.366 37.918 144.558 38.386 144.558 38.926C144.558 39.382 144.414 39.79 144.126 40.15C143.838 40.498 143.454 40.774 142.974 40.978C142.494 41.182 141.942 41.284 141.318 41.284L141.39 40.87C142.458 40.87 143.298 41.08 143.91 41.5C144.522 41.92 144.828 42.49 144.828 43.21C144.828 43.786 144.636 44.296 144.252 44.74C143.868 45.172 143.346 45.514 142.686 45.766C142.038 46.006 141.294 46.126 140.454 46.126ZM147.455 46V36.46H151.883C152.999 36.46 153.875 36.676 154.511 37.108C155.159 37.528 155.483 38.128 155.483 38.908C155.483 39.688 155.177 40.294 154.565 40.726C153.965 41.146 153.167 41.356 152.171 41.356L152.441 40.888C153.581 40.888 154.427 41.098 154.979 41.518C155.531 41.938 155.807 42.556 155.807 43.372C155.807 44.2 155.495 44.848 154.871 45.316C154.259 45.772 153.317 46 152.045 46H147.455ZM149.147 44.668H151.919C152.639 44.668 153.179 44.56 153.539 44.344C153.899 44.116 154.079 43.756 154.079 43.264C154.079 42.76 153.911 42.394 153.575 42.166C153.251 41.926 152.735 41.806 152.027 41.806H149.147V44.668ZM149.147 40.564H151.739C152.399 40.564 152.897 40.444 153.233 40.204C153.581 39.952 153.755 39.604 153.755 39.16C153.755 38.704 153.581 38.362 153.233 38.134C152.897 37.906 152.399 37.792 151.739 37.792H149.147V40.564ZM164.362 46V43.984L164.272 43.606V40.168C164.272 39.436 164.056 38.872 163.624 38.476C163.204 38.068 162.568 37.864 161.716 37.864C161.152 37.864 160.6 37.96 160.06 38.152C159.52 38.332 159.064 38.578 158.692 38.89L157.972 37.594C158.464 37.198 159.052 36.898 159.736 36.694C160.432 36.478 161.158 36.37 161.914 36.37C163.222 36.37 164.23 36.688 164.938 37.324C165.646 37.96 166 38.932 166 40.24V46H164.362ZM161.23 46.108C160.522 46.108 159.898 45.988 159.358 45.748C158.83 45.508 158.422 45.178 158.134 44.758C157.846 44.326 157.702 43.84 157.702 43.3C157.702 42.784 157.822 42.316 158.062 41.896C158.314 41.476 158.716 41.14 159.268 40.888C159.832 40.636 160.588 40.51 161.536 40.51H164.56V41.752H161.608C160.744 41.752 160.162 41.896 159.862 42.184C159.562 42.472 159.412 42.82 159.412 43.228C159.412 43.696 159.598 44.074 159.97 44.362C160.342 44.638 160.858 44.776 161.518 44.776C162.166 44.776 162.73 44.632 163.21 44.344C163.702 44.056 164.056 43.636 164.272 43.084L164.614 44.272C164.386 44.836 163.984 45.286 163.408 45.622C162.832 45.946 162.106 46.108 161.23 46.108ZM180.434 46L177.392 41.356L178.814 40.492L182.486 46H180.434ZM175.412 41.968V40.492H178.508V41.968H175.412ZM178.976 41.428L177.338 41.212L180.38 36.46H182.234L178.976 41.428ZM169.724 46H167.672L171.326 40.492L172.748 41.356L169.724 46ZM175.934 46H174.206V36.46H175.934V46ZM174.728 41.968H171.65V40.492H174.728V41.968ZM171.182 41.428L167.924 36.46H169.76L172.802 41.212L171.182 41.428ZM184.387 46V36.46H186.115V43.408L191.965 36.46H193.531V46H191.803V39.052L185.971 46H184.387ZM198.775 46V37.522L199.207 37.972H195.283V36.46H203.995V37.972H200.089L200.503 37.522V46H198.775ZM205.762 46V36.46H207.49V43.408L213.34 36.46H214.906V46H213.178V39.052L207.346 46H205.762ZM69.7864 68V58.46H78.6244V68H76.8964V59.54L77.3104 59.972H71.1004L71.5144 59.54V68H69.7864ZM87.8181 68V65.984L87.7281 65.606V62.168C87.7281 61.436 87.5121 60.872 87.0801 60.476C86.6601 60.068 86.0241 59.864 85.1721 59.864C84.6081 59.864 84.0561 59.96 83.5161 60.152C82.9761 60.332 82.5201 60.578 82.1481 60.89L81.4281 59.594C81.9201 59.198 82.5081 58.898 83.1921 58.694C83.8881 58.478 84.6141 58.37 85.3701 58.37C86.6781 58.37 87.6861 58.688 88.3941 59.324C89.1021 59.96 89.4561 60.932 89.4561 62.24V68H87.8181ZM84.6861 68.108C83.9781 68.108 83.3541 67.988 82.8141 67.748C82.2861 67.508 81.8781 67.178 81.5901 66.758C81.3021 66.326 81.1581 65.84 81.1581 65.3C81.1581 64.784 81.2781 64.316 81.5181 63.896C81.7701 63.476 82.1721 63.14 82.7241 62.888C83.2881 62.636 84.0441 62.51 84.9921 62.51H88.0161V63.752H85.0641C84.2001 63.752 83.6181 63.896 83.3181 64.184C83.0181 64.472 82.8681 64.82 82.8681 65.228C82.8681 65.696 83.0541 66.074 83.4261 66.362C83.7981 66.638 84.3141 66.776 84.9741 66.776C85.6221 66.776 86.1861 66.632 86.6661 66.344C87.1581 66.056 87.5121 65.636 87.7281 65.084L88.0701 66.272C87.8421 66.836 87.4401 67.286 86.8641 67.622C86.2881 67.946 85.5621 68.108 84.6861 68.108ZM92.5677 68V58.46H94.2957V66.488H99.5157V58.46H101.244V68H92.5677ZM101.118 70.214V67.91L101.55 68H99.5157V66.488H102.756V70.214H101.118ZM104.995 68V58.46H106.723V62.366H109.603V63.968H106.723V68H104.995ZM113.437 68.108C112.501 68.108 111.667 67.898 110.935 67.478C110.215 67.058 109.645 66.482 109.225 65.75C108.805 65.006 108.595 64.166 108.595 63.23C108.595 62.282 108.805 61.442 109.225 60.71C109.645 59.966 110.215 59.39 110.935 58.982C111.667 58.574 112.501 58.37 113.437 58.37C114.361 58.37 115.189 58.574 115.921 58.982C116.653 59.39 117.229 59.966 117.649 60.71C118.069 61.442 118.279 62.282 118.279 63.23C118.279 64.178 118.069 65.018 117.649 65.75C117.229 66.482 116.653 67.058 115.921 67.478C115.189 67.898 114.361 68.108 113.437 68.108ZM113.437 66.596C114.037 66.596 114.571 66.458 115.039 66.182C115.507 65.894 115.879 65.504 116.155 65.012C116.431 64.508 116.569 63.914 116.569 63.23C116.569 62.546 116.431 61.958 116.155 61.466C115.879 60.962 115.507 60.572 115.039 60.296C114.571 60.02 114.037 59.882 113.437 59.882C112.849 59.882 112.315 60.02 111.835 60.296C111.367 60.572 110.995 60.962 110.719 61.466C110.443 61.958 110.305 62.546 110.305 63.23C110.305 63.914 110.443 64.508 110.719 65.012C110.995 65.504 111.367 65.894 111.835 66.182C112.315 66.458 112.849 66.596 113.437 66.596ZM126.775 64.094C126.271 64.334 125.749 64.526 125.209 64.67C124.681 64.802 124.135 64.868 123.571 64.868C122.419 64.868 121.507 64.598 120.835 64.058C120.175 63.518 119.845 62.684 119.845 61.556V58.46H121.573V61.448C121.573 62.132 121.783 62.636 122.203 62.96C122.635 63.284 123.211 63.446 123.931 63.446C124.387 63.446 124.855 63.386 125.335 63.266C125.827 63.146 126.307 62.978 126.775 62.762V64.094ZM126.649 68V58.46H128.377V68H126.649ZM138.644 68L134.954 63.356L136.376 62.492L140.678 68H138.644ZM131.732 68V58.46H133.46V68H131.732ZM132.938 63.968V62.492H136.088V63.968H132.938ZM136.52 63.428L134.918 63.212L138.572 58.46H140.426L136.52 63.428ZM142.49 68V58.46H144.218V68H142.49ZM143.354 56.624C143.018 56.624 142.736 56.516 142.508 56.3C142.292 56.084 142.184 55.82 142.184 55.508C142.184 55.184 142.292 54.914 142.508 54.698C142.736 54.482 143.018 54.374 143.354 54.374C143.69 54.374 143.966 54.482 144.182 54.698C144.41 54.902 144.524 55.16 144.524 55.472C144.524 55.796 144.416 56.072 144.2 56.3C143.984 56.516 143.702 56.624 143.354 56.624ZM147.587 68V58.46H152.015C153.131 58.46 154.007 58.676 154.643 59.108C155.291 59.528 155.615 60.128 155.615 60.908C155.615 61.688 155.309 62.294 154.697 62.726C154.097 63.146 153.299 63.356 152.303 63.356L152.573 62.888C153.713 62.888 154.559 63.098 155.111 63.518C155.663 63.938 155.939 64.556 155.939 65.372C155.939 66.2 155.627 66.848 155.003 67.316C154.391 67.772 153.449 68 152.177 68H147.587ZM149.279 66.668H152.051C152.771 66.668 153.311 66.56 153.671 66.344C154.031 66.116 154.211 65.756 154.211 65.264C154.211 64.76 154.043 64.394 153.707 64.166C153.383 63.926 152.867 63.806 152.159 63.806H149.279V66.668ZM149.279 62.564H151.871C152.531 62.564 153.029 62.444 153.365 62.204C153.713 61.952 153.887 61.604 153.887 61.16C153.887 60.704 153.713 60.362 153.365 60.134C153.029 59.906 152.531 59.792 151.871 59.792H149.279V62.564ZM163.478 68V58.46H167.906C169.022 58.46 169.898 58.676 170.534 59.108C171.182 59.528 171.506 60.128 171.506 60.908C171.506 61.688 171.2 62.294 170.588 62.726C169.988 63.146 169.19 63.356 168.194 63.356L168.464 62.888C169.604 62.888 170.45 63.098 171.002 63.518C171.554 63.938 171.83 64.556 171.83 65.372C171.83 66.2 171.518 66.848 170.894 67.316C170.282 67.772 169.34 68 168.068 68H163.478ZM165.17 66.668H167.942C168.662 66.668 169.202 66.56 169.562 66.344C169.922 66.116 170.102 65.756 170.102 65.264C170.102 64.76 169.934 64.394 169.598 64.166C169.274 63.926 168.758 63.806 168.05 63.806H165.17V66.668ZM165.17 62.564H167.762C168.422 62.564 168.92 62.444 169.256 62.204C169.604 61.952 169.778 61.604 169.778 61.16C169.778 60.704 169.604 60.362 169.256 60.134C168.92 59.906 168.422 59.792 167.762 59.792H165.17V62.564ZM181.05 67.19V59.972H176.91L176.82 61.808C176.796 62.408 176.754 62.99 176.694 63.554C176.646 64.106 176.562 64.616 176.442 65.084C176.334 65.552 176.172 65.936 175.956 66.236C175.74 66.536 175.452 66.722 175.092 66.794L173.382 66.488C173.754 66.5 174.054 66.38 174.282 66.128C174.51 65.864 174.684 65.504 174.804 65.048C174.936 64.592 175.032 64.076 175.092 63.5C175.152 62.912 175.2 62.306 175.236 61.682L175.38 58.46H182.778V67.19H181.05ZM173.004 70.214V66.488H184.236V70.214H182.616V68H174.642V70.214H173.004ZM190.574 68.108C189.614 68.108 188.762 67.898 188.018 67.478C187.274 67.058 186.686 66.482 186.254 65.75C185.822 65.006 185.606 64.166 185.606 63.23C185.606 62.282 185.822 61.442 186.254 60.71C186.686 59.978 187.274 59.408 188.018 59C188.762 58.58 189.614 58.37 190.574 58.37C191.522 58.37 192.368 58.58 193.112 59C193.868 59.408 194.456 59.978 194.876 60.71C195.308 61.43 195.524 62.27 195.524 63.23C195.524 64.178 195.308 65.018 194.876 65.75C194.456 66.482 193.868 67.058 193.112 67.478C192.368 67.898 191.522 68.108 190.574 68.108ZM190.574 66.596C191.186 66.596 191.732 66.458 192.212 66.182C192.704 65.906 193.088 65.516 193.364 65.012C193.64 64.496 193.778 63.902 193.778 63.23C193.778 62.546 193.64 61.958 193.364 61.466C193.088 60.962 192.704 60.572 192.212 60.296C191.732 60.02 191.186 59.882 190.574 59.882C189.962 59.882 189.416 60.02 188.936 60.296C188.456 60.572 188.072 60.962 187.784 61.466C187.496 61.958 187.352 62.546 187.352 63.23C187.352 63.902 187.496 64.496 187.784 65.012C188.072 65.516 188.456 65.906 188.936 66.182C189.416 66.458 189.962 66.596 190.574 66.596ZM198.019 68V58.46H199.801L203.905 65.516H203.185L207.397 58.46H209.017V68H207.451V60.404L207.739 60.566L203.887 66.92H203.131L199.261 60.44L199.603 60.368V68H198.019ZM218.23 68V65.984L218.14 65.606V62.168C218.14 61.436 217.924 60.872 217.492 60.476C217.072 60.068 216.436 59.864 215.584 59.864C215.02 59.864 214.468 59.96 213.928 60.152C213.388 60.332 212.932 60.578 212.56 60.89L211.84 59.594C212.332 59.198 212.92 58.898 213.604 58.694C214.3 58.478 215.026 58.37 215.782 58.37C217.09 58.37 218.098 58.688 218.806 59.324C219.514 59.96 219.868 60.932 219.868 62.24V68H218.23ZM215.098 68.108C214.39 68.108 213.766 67.988 213.226 67.748C212.698 67.508 212.29 67.178 212.002 66.758C211.714 66.326 211.57 65.84 211.57 65.3C211.57 64.784 211.69 64.316 211.93 63.896C212.182 63.476 212.584 63.14 213.136 62.888C213.7 62.636 214.456 62.51 215.404 62.51H218.428V63.752H215.476C214.612 63.752 214.03 63.896 213.73 64.184C213.43 64.472 213.28 64.82 213.28 65.228C213.28 65.696 213.466 66.074 213.838 66.362C214.21 66.638 214.726 66.776 215.386 66.776C216.034 66.776 216.598 66.632 217.078 66.344C217.57 66.056 217.924 65.636 218.14 65.084L218.482 66.272C218.254 66.836 217.852 67.286 217.276 67.622C216.7 67.946 215.974 68.108 215.098 68.108ZM225.673 64.022C225.673 63.554 225.751 63.146 225.907 62.798C226.063 62.45 226.255 62.138 226.483 61.862C226.723 61.586 226.981 61.334 227.257 61.106C227.533 60.866 227.791 60.632 228.031 60.404C228.271 60.164 228.463 59.912 228.607 59.648C228.763 59.384 228.841 59.078 228.841 58.73C228.841 58.154 228.613 57.686 228.157 57.326C227.701 56.966 227.071 56.786 226.267 56.786C225.547 56.786 224.923 56.906 224.395 57.146C223.867 57.386 223.417 57.74 223.045 58.208L221.731 57.272C222.235 56.636 222.877 56.144 223.657 55.796C224.437 55.436 225.349 55.256 226.393 55.256C227.257 55.256 228.007 55.388 228.643 55.652C229.279 55.904 229.771 56.27 230.119 56.75C230.479 57.218 230.659 57.788 230.659 58.46C230.659 58.964 230.581 59.396 230.425 59.756C230.269 60.116 230.071 60.434 229.831 60.71C229.591 60.986 229.333 61.244 229.057 61.484C228.793 61.724 228.541 61.964 228.301 62.204C228.061 62.444 227.863 62.708 227.707 62.996C227.551 63.284 227.473 63.626 227.473 64.022H225.673ZM226.591 68.108C226.255 68.108 225.973 67.994 225.745 67.766C225.529 67.538 225.421 67.268 225.421 66.956C225.421 66.62 225.529 66.344 225.745 66.128C225.973 65.912 226.255 65.804 226.591 65.804C226.927 65.804 227.203 65.912 227.419 66.128C227.635 66.344 227.743 66.62 227.743 66.956C227.743 67.268 227.635 67.538 227.419 67.766C227.203 67.994 226.927 68.108 226.591 68.108Z" fill="#232323"/>
</svg>
