<svg width="283" height="123" viewBox="0 0 283 123" fill="none" xmlns="http://www.w3.org/2000/svg">
<rect x="18" width="265" height="102" rx="20" fill="white"/>
<path d="M12.207 112.808L18.2184 83.3439L39.3614 99.8884L12.207 112.808Z" fill="white"/>
<path d="M50.6323 46V41.896L51.1003 42.328H47.1583C46.1383 42.328 45.2563 42.154 44.5123 41.806C43.7803 41.458 43.2163 40.96 42.8203 40.312C42.4363 39.652 42.2443 38.86 42.2443 37.936C42.2443 36.976 42.4543 36.16 42.8743 35.488C43.2943 34.804 43.8883 34.288 44.6563 33.94C45.4243 33.58 46.3183 33.4 47.3383 33.4H52.3963V46H50.6323ZM42.2443 46L45.3583 41.536H47.1943L44.1523 46H42.2443ZM50.6323 41.32V34.444L51.1003 34.966H47.4103C46.3303 34.966 45.5023 35.218 44.9263 35.722C44.3503 36.214 44.0623 36.946 44.0623 37.918C44.0623 38.842 44.3323 39.556 44.8723 40.06C45.4243 40.564 46.2343 40.816 47.3023 40.816H51.1003L50.6323 41.32ZM62.9523 46L59.2623 41.356L60.6843 40.492L64.9863 46H62.9523ZM56.0403 46V36.46H57.7683V46H56.0403ZM57.2463 41.968V40.492H60.3963V41.968H57.2463ZM60.8283 41.428L59.2263 41.212L62.8803 36.46H64.7343L60.8283 41.428ZM66.7981 46V36.46H68.5261V46H66.7981ZM67.6621 34.624C67.3261 34.624 67.0441 34.516 66.8161 34.3C66.6001 34.084 66.4921 33.82 66.4921 33.508C66.4921 33.184 66.6001 32.914 66.8161 32.698C67.0441 32.482 67.3261 32.374 67.6621 32.374C67.9981 32.374 68.2741 32.482 68.4901 32.698C68.7181 32.902 68.8321 33.16 68.8321 33.472C68.8321 33.796 68.7241 34.072 68.5081 34.3C68.2921 34.516 68.0101 34.624 67.6621 34.624ZM76.7298 46V36.46H85.5678V46H83.8398V37.54L84.2538 37.972H78.0438L78.4578 37.54V46H76.7298ZM93.9694 46.108C93.1774 46.108 92.4514 45.928 91.7914 45.568C91.1434 45.196 90.6214 44.65 90.2254 43.93C89.8414 43.21 89.6494 42.31 89.6494 41.23C89.6494 40.15 89.8354 39.25 90.2074 38.53C90.5914 37.81 91.1074 37.27 91.7554 36.91C92.4154 36.55 93.1534 36.37 93.9694 36.37C94.9054 36.37 95.7334 36.574 96.4534 36.982C97.1734 37.39 97.7434 37.96 98.1634 38.692C98.5834 39.412 98.7934 40.258 98.7934 41.23C98.7934 42.202 98.5834 43.054 98.1634 43.786C97.7434 44.518 97.1734 45.088 96.4534 45.496C95.7334 45.904 94.9054 46.108 93.9694 46.108ZM88.9114 49.492V36.46H90.5674V39.034L90.4594 41.248L90.6394 43.462V49.492H88.9114ZM93.8254 44.596C94.4374 44.596 94.9834 44.458 95.4634 44.182C95.9554 43.906 96.3394 43.516 96.6154 43.012C96.9034 42.496 97.0474 41.902 97.0474 41.23C97.0474 40.546 96.9034 39.958 96.6154 39.466C96.3394 38.962 95.9554 38.572 95.4634 38.296C94.9834 38.02 94.4374 37.882 93.8254 37.882C93.2254 37.882 92.6794 38.02 92.1874 38.296C91.7074 38.572 91.3234 38.962 91.0354 39.466C90.7594 39.958 90.6214 40.546 90.6214 41.23C90.6214 41.902 90.7594 42.496 91.0354 43.012C91.3234 43.516 91.7074 43.906 92.1874 44.182C92.6794 44.458 93.2254 44.596 93.8254 44.596ZM105.552 46.108C104.532 46.108 103.632 45.898 102.852 45.478C102.084 45.058 101.484 44.482 101.052 43.75C100.632 43.018 100.422 42.178 100.422 41.23C100.422 40.282 100.626 39.442 101.034 38.71C101.454 37.978 102.024 37.408 102.744 37C103.476 36.58 104.298 36.37 105.21 36.37C106.134 36.37 106.95 36.574 107.658 36.982C108.366 37.39 108.918 37.966 109.314 38.71C109.722 39.442 109.926 40.3 109.926 41.284C109.926 41.356 109.92 41.44 109.908 41.536C109.908 41.632 109.902 41.722 109.89 41.806H101.772V40.564H108.99L108.288 40.996C108.3 40.384 108.174 39.838 107.91 39.358C107.646 38.878 107.28 38.506 106.812 38.242C106.356 37.966 105.822 37.828 105.21 37.828C104.61 37.828 104.076 37.966 103.608 38.242C103.14 38.506 102.774 38.884 102.51 39.376C102.246 39.856 102.114 40.408 102.114 41.032V41.32C102.114 41.956 102.258 42.526 102.546 43.03C102.846 43.522 103.26 43.906 103.788 44.182C104.316 44.458 104.922 44.596 105.606 44.596C106.17 44.596 106.68 44.5 107.136 44.308C107.604 44.116 108.012 43.828 108.36 43.444L109.314 44.56C108.882 45.064 108.342 45.448 107.694 45.712C107.058 45.976 106.344 46.108 105.552 46.108ZM118.965 45.19V37.972H114.825L114.735 39.808C114.711 40.408 114.669 40.99 114.609 41.554C114.561 42.106 114.477 42.616 114.357 43.084C114.249 43.552 114.087 43.936 113.871 44.236C113.655 44.536 113.367 44.722 113.007 44.794L111.297 44.488C111.669 44.5 111.969 44.38 112.197 44.128C112.425 43.864 112.599 43.504 112.719 43.048C112.851 42.592 112.947 42.076 113.007 41.5C113.067 40.912 113.115 40.306 113.151 39.682L113.295 36.46H120.693V45.19H118.965ZM110.919 48.214V44.488H122.151V48.214H120.531V46H112.557V48.214H110.919ZM124.402 46V36.46H126.184L130.288 43.516H129.568L133.78 36.46H135.4V46H133.834V38.404L134.122 38.566L130.27 44.92H129.514L125.644 38.44L125.986 38.368V46H124.402ZM143.011 46.108C141.991 46.108 141.091 45.898 140.311 45.478C139.543 45.058 138.943 44.482 138.511 43.75C138.091 43.018 137.881 42.178 137.881 41.23C137.881 40.282 138.085 39.442 138.493 38.71C138.913 37.978 139.483 37.408 140.203 37C140.935 36.58 141.757 36.37 142.669 36.37C143.593 36.37 144.409 36.574 145.117 36.982C145.825 37.39 146.377 37.966 146.773 38.71C147.181 39.442 147.385 40.3 147.385 41.284C147.385 41.356 147.379 41.44 147.367 41.536C147.367 41.632 147.361 41.722 147.349 41.806H139.231V40.564H146.449L145.747 40.996C145.759 40.384 145.633 39.838 145.369 39.358C145.105 38.878 144.739 38.506 144.271 38.242C143.815 37.966 143.281 37.828 142.669 37.828C142.069 37.828 141.535 37.966 141.067 38.242C140.599 38.506 140.233 38.884 139.969 39.376C139.705 39.856 139.573 40.408 139.573 41.032V41.32C139.573 41.956 139.717 42.526 140.005 43.03C140.305 43.522 140.719 43.906 141.247 44.182C141.775 44.458 142.381 44.596 143.065 44.596C143.629 44.596 144.139 44.5 144.595 44.308C145.063 44.116 145.471 43.828 145.819 43.444L146.773 44.56C146.341 45.064 145.801 45.448 145.153 45.712C144.517 45.976 143.803 46.108 143.011 46.108ZM151.551 46V37.522L151.983 37.972H148.059V36.46H156.771V37.972H152.865L153.279 37.522V46H151.551ZM158.538 46V36.46H160.266V43.408L166.116 36.46H167.682V46H165.954V39.052L160.122 46H158.538ZM180.28 46.144C179.488 46.144 178.786 46.018 178.174 45.766C177.574 45.514 177.058 45.142 176.626 44.65C176.194 44.146 175.864 43.516 175.636 42.76C175.42 41.992 175.312 41.092 175.312 40.06C175.312 39.244 175.384 38.512 175.528 37.864C175.672 37.216 175.876 36.64 176.14 36.136C176.416 35.632 176.752 35.194 177.148 34.822C177.556 34.45 178.012 34.144 178.516 33.904C179.032 33.652 179.596 33.46 180.208 33.328L184.564 32.356L184.816 33.958L180.802 34.822C180.562 34.87 180.274 34.942 179.938 35.038C179.602 35.134 179.26 35.284 178.912 35.488C178.564 35.68 178.24 35.95 177.94 36.298C177.64 36.646 177.4 37.102 177.22 37.666C177.04 38.218 176.95 38.902 176.95 39.718C176.95 39.946 176.956 40.12 176.968 40.24C176.98 40.36 176.992 40.48 177.004 40.6C177.028 40.72 177.046 40.9 177.058 41.14L176.338 40.402C176.53 39.742 176.836 39.166 177.256 38.674C177.676 38.182 178.18 37.804 178.768 37.54C179.368 37.264 180.022 37.126 180.73 37.126C181.618 37.126 182.404 37.318 183.088 37.702C183.784 38.086 184.33 38.614 184.726 39.286C185.122 39.958 185.32 40.726 185.32 41.59C185.32 42.466 185.11 43.252 184.69 43.948C184.282 44.632 183.7 45.172 182.944 45.568C182.188 45.952 181.3 46.144 180.28 46.144ZM180.442 44.704C181.054 44.704 181.594 44.572 182.062 44.308C182.53 44.032 182.896 43.666 183.16 43.21C183.424 42.742 183.556 42.22 183.556 41.644C183.556 41.068 183.424 40.558 183.16 40.114C182.896 39.67 182.53 39.322 182.062 39.07C181.594 38.806 181.042 38.674 180.406 38.674C179.806 38.674 179.266 38.8 178.786 39.052C178.306 39.292 177.934 39.634 177.67 40.078C177.406 40.51 177.274 41.014 177.274 41.59C177.274 42.166 177.406 42.694 177.67 43.174C177.946 43.642 178.318 44.014 178.786 44.29C179.266 44.566 179.818 44.704 180.442 44.704ZM192.036 46.108C191.016 46.108 190.116 45.898 189.336 45.478C188.568 45.058 187.968 44.482 187.536 43.75C187.116 43.018 186.906 42.178 186.906 41.23C186.906 40.282 187.11 39.442 187.518 38.71C187.938 37.978 188.508 37.408 189.228 37C189.96 36.58 190.782 36.37 191.694 36.37C192.618 36.37 193.434 36.574 194.142 36.982C194.85 37.39 195.402 37.966 195.798 38.71C196.206 39.442 196.41 40.3 196.41 41.284C196.41 41.356 196.404 41.44 196.392 41.536C196.392 41.632 196.386 41.722 196.374 41.806H188.256V40.564H195.474L194.772 40.996C194.784 40.384 194.658 39.838 194.394 39.358C194.13 38.878 193.764 38.506 193.296 38.242C192.84 37.966 192.306 37.828 191.694 37.828C191.094 37.828 190.56 37.966 190.092 38.242C189.624 38.506 189.258 38.884 188.994 39.376C188.73 39.856 188.598 40.408 188.598 41.032V41.32C188.598 41.956 188.742 42.526 189.03 43.03C189.33 43.522 189.744 43.906 190.272 44.182C190.8 44.458 191.406 44.596 192.09 44.596C192.654 44.596 193.164 44.5 193.62 44.308C194.088 44.116 194.496 43.828 194.844 43.444L195.798 44.56C195.366 45.064 194.826 45.448 194.178 45.712C193.542 45.976 192.828 46.108 192.036 46.108ZM201.67 46.126C200.95 46.126 200.242 46.036 199.546 45.856C198.862 45.664 198.25 45.394 197.71 45.046L198.232 43.732C198.688 44.02 199.21 44.248 199.798 44.416C200.386 44.572 200.98 44.65 201.58 44.65C202.132 44.65 202.606 44.584 203.002 44.452C203.41 44.32 203.722 44.14 203.938 43.912C204.154 43.672 204.262 43.396 204.262 43.084C204.262 42.64 204.064 42.298 203.668 42.058C203.272 41.818 202.72 41.698 202.012 41.698H200.284V40.456H201.904C202.324 40.456 202.69 40.408 203.002 40.312C203.314 40.216 203.554 40.072 203.722 39.88C203.902 39.676 203.992 39.442 203.992 39.178C203.992 38.89 203.89 38.644 203.686 38.44C203.482 38.236 203.194 38.08 202.822 37.972C202.462 37.864 202.036 37.81 201.544 37.81C201.064 37.822 200.572 37.888 200.068 38.008C199.576 38.128 199.072 38.314 198.556 38.566L198.088 37.216C198.664 36.94 199.228 36.73 199.78 36.586C200.344 36.43 200.902 36.346 201.454 36.334C202.282 36.31 203.02 36.406 203.668 36.622C204.316 36.826 204.826 37.126 205.198 37.522C205.582 37.918 205.774 38.386 205.774 38.926C205.774 39.382 205.63 39.79 205.342 40.15C205.054 40.498 204.67 40.774 204.19 40.978C203.71 41.182 203.158 41.284 202.534 41.284L202.606 40.87C203.674 40.87 204.514 41.08 205.126 41.5C205.738 41.92 206.044 42.49 206.044 43.21C206.044 43.786 205.852 44.296 205.468 44.74C205.084 45.172 204.562 45.514 203.902 45.766C203.254 46.006 202.51 46.126 201.67 46.126ZM208.671 46V36.46H217.509V46H215.781V37.54L216.195 37.972H209.985L210.399 37.54V46H208.671ZM225.101 46.108C224.081 46.108 223.181 45.898 222.401 45.478C221.633 45.058 221.033 44.482 220.601 43.75C220.181 43.018 219.971 42.178 219.971 41.23C219.971 40.282 220.175 39.442 220.583 38.71C221.003 37.978 221.573 37.408 222.293 37C223.025 36.58 223.847 36.37 224.759 36.37C225.683 36.37 226.499 36.574 227.207 36.982C227.915 37.39 228.467 37.966 228.863 38.71C229.271 39.442 229.475 40.3 229.475 41.284C229.475 41.356 229.469 41.44 229.457 41.536C229.457 41.632 229.451 41.722 229.439 41.806H221.321V40.564H228.539L227.837 40.996C227.849 40.384 227.723 39.838 227.459 39.358C227.195 38.878 226.829 38.506 226.361 38.242C225.905 37.966 225.371 37.828 224.759 37.828C224.159 37.828 223.625 37.966 223.157 38.242C222.689 38.506 222.323 38.884 222.059 39.376C221.795 39.856 221.663 40.408 221.663 41.032V41.32C221.663 41.956 221.807 42.526 222.095 43.03C222.395 43.522 222.809 43.906 223.337 44.182C223.865 44.458 224.471 44.596 225.155 44.596C225.719 44.596 226.229 44.5 226.685 44.308C227.153 44.116 227.561 43.828 227.909 43.444L228.863 44.56C228.431 45.064 227.891 45.448 227.243 45.712C226.607 45.976 225.893 46.108 225.101 46.108ZM238.168 42.094C237.664 42.334 237.142 42.526 236.602 42.67C236.074 42.802 235.528 42.868 234.964 42.868C233.812 42.868 232.9 42.598 232.228 42.058C231.568 41.518 231.238 40.684 231.238 39.556V36.46H232.966V39.448C232.966 40.132 233.176 40.636 233.596 40.96C234.028 41.284 234.604 41.446 235.324 41.446C235.78 41.446 236.248 41.386 236.728 41.266C237.22 41.146 237.7 40.978 238.168 40.762V42.094ZM238.042 46V36.46H239.77V46H238.042ZM243.124 46V36.46H244.852V40.51H250.288V36.46H252.016V46H250.288V42.004H244.852V46H243.124ZM255.376 46V36.46H257.104V46H255.376ZM256.24 34.624C255.904 34.624 255.622 34.516 255.394 34.3C255.178 34.084 255.07 33.82 255.07 33.508C255.07 33.184 255.178 32.914 255.394 32.698C255.622 32.482 255.904 32.374 256.24 32.374C256.576 32.374 256.852 32.482 257.068 32.698C257.296 32.902 257.41 33.16 257.41 33.472C257.41 33.796 257.302 34.072 257.086 34.3C256.87 34.516 256.588 34.624 256.24 34.624ZM55.3581 67.19V59.972H51.2181L51.1281 61.808C51.1041 62.408 51.0621 62.99 51.0021 63.554C50.9541 64.106 50.8701 64.616 50.7501 65.084C50.6421 65.552 50.4801 65.936 50.2641 66.236C50.0481 66.536 49.7601 66.722 49.4001 66.794L47.6901 66.488C48.0621 66.5 48.3621 66.38 48.5901 66.128C48.8181 65.864 48.9921 65.504 49.1121 65.048C49.2441 64.592 49.3401 64.076 49.4001 63.5C49.4601 62.912 49.5081 62.306 49.5441 61.682L49.6881 58.46H57.0861V67.19H55.3581ZM47.3121 70.214V66.488H58.5441V70.214H56.9241V68H48.9501V70.214H47.3121ZM59.2112 67.982L59.3192 66.524C59.4032 66.536 59.4812 66.548 59.5532 66.56C59.6252 66.572 59.6912 66.578 59.7512 66.578C60.1352 66.578 60.4352 66.446 60.6512 66.182C60.8792 65.918 61.0472 65.57 61.1552 65.138C61.2632 64.694 61.3412 64.196 61.3892 63.644C61.4372 63.092 61.4732 62.54 61.4972 61.988L61.6592 58.46H68.9852V68H67.2572V59.468L67.6712 59.972H62.7752L63.1712 59.45L63.0452 62.096C63.0092 62.936 62.9432 63.722 62.8472 64.454C62.7512 65.186 62.6012 65.828 62.3972 66.38C62.2052 66.932 61.9352 67.364 61.5872 67.676C61.2512 67.988 60.8132 68.144 60.2732 68.144C60.1172 68.144 59.9492 68.126 59.7692 68.09C59.6012 68.066 59.4152 68.03 59.2112 67.982ZM78.4285 68V64.652L78.6985 64.976H75.6565C74.3845 64.976 73.3885 64.706 72.6685 64.166C71.9605 63.626 71.6065 62.84 71.6065 61.808C71.6065 60.704 71.9845 59.87 72.7405 59.306C73.5085 58.742 74.5285 58.46 75.8005 58.46H79.9765V68H78.4285ZM71.5165 68L74.1085 64.346H75.8905L73.3705 68H71.5165ZM78.4285 64.112V59.486L78.6985 59.972H75.8545C75.0625 59.972 74.4505 60.122 74.0185 60.422C73.5865 60.71 73.3705 61.19 73.3705 61.862C73.3705 63.11 74.1745 63.734 75.7825 63.734H78.6985L78.4285 64.112ZM88.1819 68V58.46H95.2019V59.972H89.4959L89.9099 59.576V68H88.1819ZM102.029 68.108C101.237 68.108 100.511 67.928 99.851 67.568C99.203 67.196 98.681 66.65 98.285 65.93C97.901 65.21 97.709 64.31 97.709 63.23C97.709 62.15 97.895 61.25 98.267 60.53C98.651 59.81 99.167 59.27 99.815 58.91C100.475 58.55 101.213 58.37 102.029 58.37C102.965 58.37 103.793 58.574 104.513 58.982C105.233 59.39 105.803 59.96 106.223 60.692C106.643 61.412 106.853 62.258 106.853 63.23C106.853 64.202 106.643 65.054 106.223 65.786C105.803 66.518 105.233 67.088 104.513 67.496C103.793 67.904 102.965 68.108 102.029 68.108ZM96.971 71.492V58.46H98.627V61.034L98.519 63.248L98.699 65.462V71.492H96.971ZM101.885 66.596C102.497 66.596 103.043 66.458 103.523 66.182C104.015 65.906 104.399 65.516 104.675 65.012C104.963 64.496 105.107 63.902 105.107 63.23C105.107 62.546 104.963 61.958 104.675 61.466C104.399 60.962 104.015 60.572 103.523 60.296C103.043 60.02 102.497 59.882 101.885 59.882C101.285 59.882 100.739 60.02 100.247 60.296C99.767 60.572 99.383 60.962 99.095 61.466C98.819 61.958 98.681 62.546 98.681 63.23C98.681 63.902 98.819 64.496 99.095 65.012C99.383 65.516 99.767 65.906 100.247 66.182C100.739 66.458 101.285 66.596 101.885 66.596ZM109.364 68V58.46H111.092V65.408L116.942 58.46H118.508V68H116.78V61.052L110.948 68H109.364ZM124.493 68.126C123.773 68.126 123.065 68.036 122.369 67.856C121.685 67.664 121.073 67.394 120.533 67.046L121.055 65.732C121.511 66.02 122.033 66.248 122.621 66.416C123.209 66.572 123.803 66.65 124.403 66.65C124.955 66.65 125.429 66.584 125.825 66.452C126.233 66.32 126.545 66.14 126.761 65.912C126.977 65.672 127.085 65.396 127.085 65.084C127.085 64.64 126.887 64.298 126.491 64.058C126.095 63.818 125.543 63.698 124.835 63.698H123.107V62.456H124.727C125.147 62.456 125.513 62.408 125.825 62.312C126.137 62.216 126.377 62.072 126.545 61.88C126.725 61.676 126.815 61.442 126.815 61.178C126.815 60.89 126.713 60.644 126.509 60.44C126.305 60.236 126.017 60.08 125.645 59.972C125.285 59.864 124.859 59.81 124.367 59.81C123.887 59.822 123.395 59.888 122.891 60.008C122.399 60.128 121.895 60.314 121.379 60.566L120.911 59.216C121.487 58.94 122.051 58.73 122.603 58.586C123.167 58.43 123.725 58.346 124.277 58.334C125.105 58.31 125.843 58.406 126.491 58.622C127.139 58.826 127.649 59.126 128.021 59.522C128.405 59.918 128.597 60.386 128.597 60.926C128.597 61.382 128.453 61.79 128.165 62.15C127.877 62.498 127.493 62.774 127.013 62.978C126.533 63.182 125.981 63.284 125.357 63.284L125.429 62.87C126.497 62.87 127.337 63.08 127.949 63.5C128.561 63.92 128.867 64.49 128.867 65.21C128.867 65.786 128.675 66.296 128.291 66.74C127.907 67.172 127.385 67.514 126.725 67.766C126.077 68.006 125.333 68.126 124.493 68.126ZM131.98 71.6C131.524 71.6 131.08 71.522 130.648 71.366C130.216 71.222 129.844 71.006 129.532 70.718L130.27 69.422C130.51 69.65 130.774 69.824 131.062 69.944C131.35 70.064 131.656 70.124 131.98 70.124C132.4 70.124 132.748 70.016 133.024 69.8C133.3 69.584 133.558 69.2 133.798 68.648L134.392 67.334L134.572 67.118L138.316 58.46H140.008L135.382 68.954C135.106 69.626 134.794 70.154 134.446 70.538C134.11 70.922 133.738 71.192 133.33 71.348C132.922 71.516 132.472 71.6 131.98 71.6ZM134.248 68.306L129.892 58.46H131.692L135.4 66.956L134.248 68.306ZM141.778 68V58.46H143.506V62.51H148.942V58.46H150.67V68H148.942V64.004H143.506V68H141.778ZM154.03 68V58.46H155.758V68H154.03ZM154.894 56.624C154.558 56.624 154.276 56.516 154.048 56.3C153.832 56.084 153.724 55.82 153.724 55.508C153.724 55.184 153.832 54.914 154.048 54.698C154.276 54.482 154.558 54.374 154.894 54.374C155.23 54.374 155.506 54.482 155.722 54.698C155.95 54.902 156.064 55.16 156.064 55.472C156.064 55.796 155.956 56.072 155.74 56.3C155.524 56.516 155.242 56.624 154.894 56.624ZM159.127 68V58.46H163.555C164.671 58.46 165.547 58.676 166.183 59.108C166.831 59.528 167.155 60.128 167.155 60.908C167.155 61.688 166.849 62.294 166.237 62.726C165.637 63.146 164.839 63.356 163.843 63.356L164.113 62.888C165.253 62.888 166.099 63.098 166.651 63.518C167.203 63.938 167.479 64.556 167.479 65.372C167.479 66.2 167.167 66.848 166.543 67.316C165.931 67.772 164.989 68 163.717 68H159.127ZM160.819 66.668H163.591C164.311 66.668 164.851 66.56 165.211 66.344C165.571 66.116 165.751 65.756 165.751 65.264C165.751 64.76 165.583 64.394 165.247 64.166C164.923 63.926 164.407 63.806 163.699 63.806H160.819V66.668ZM160.819 62.564H163.411C164.071 62.564 164.569 62.444 164.905 62.204C165.253 61.952 165.427 61.604 165.427 61.16C165.427 60.704 165.253 60.362 164.905 60.134C164.569 59.906 164.071 59.792 163.411 59.792H160.819V62.564ZM175.504 71.6C175.048 71.6 174.604 71.522 174.172 71.366C173.74 71.222 173.368 71.006 173.056 70.718L173.794 69.422C174.034 69.65 174.298 69.824 174.586 69.944C174.874 70.064 175.18 70.124 175.504 70.124C175.924 70.124 176.272 70.016 176.548 69.8C176.824 69.584 177.082 69.2 177.322 68.648L177.916 67.334L178.096 67.118L181.84 58.46H183.532L178.906 68.954C178.63 69.626 178.318 70.154 177.97 70.538C177.634 70.922 177.262 71.192 176.854 71.348C176.446 71.516 175.996 71.6 175.504 71.6ZM177.772 68.306L173.416 58.46H175.216L178.924 66.956L177.772 68.306ZM197.047 68L193.357 63.356L194.779 62.492L199.081 68H197.047ZM190.135 68V58.46H191.863V68H190.135ZM191.341 63.968V62.492H194.491V63.968H191.341ZM194.923 63.428L193.321 63.212L196.975 58.46H198.829L194.923 63.428ZM199.309 67.982L199.417 66.524C199.501 66.536 199.579 66.548 199.651 66.56C199.723 66.572 199.789 66.578 199.849 66.578C200.233 66.578 200.533 66.446 200.749 66.182C200.977 65.918 201.145 65.57 201.253 65.138C201.361 64.694 201.439 64.196 201.487 63.644C201.535 63.092 201.571 62.54 201.595 61.988L201.757 58.46H209.083V68H207.355V59.468L207.769 59.972H202.873L203.269 59.45L203.143 62.096C203.107 62.936 203.041 63.722 202.945 64.454C202.849 65.186 202.699 65.828 202.495 66.38C202.303 66.932 202.033 67.364 201.685 67.676C201.349 67.988 200.911 68.144 200.371 68.144C200.215 68.144 200.047 68.126 199.867 68.09C199.699 68.066 199.513 68.03 199.309 67.982ZM212.424 68V58.46H214.152V68H212.424ZM213.288 56.624C212.952 56.624 212.67 56.516 212.442 56.3C212.226 56.084 212.118 55.82 212.118 55.508C212.118 55.184 212.226 54.914 212.442 54.698C212.67 54.482 212.952 54.374 213.288 54.374C213.624 54.374 213.9 54.482 214.116 54.698C214.344 54.902 214.458 55.16 214.458 55.472C214.458 55.796 214.35 56.072 214.134 56.3C213.918 56.516 213.636 56.624 213.288 56.624ZM219.412 68V59.522L219.844 59.972H215.92V58.46H224.632V59.972H220.726L221.14 59.522V68H219.412ZM226.399 68V58.46H228.127V66.488H233.347V58.46H235.075V68H226.399ZM234.949 70.214V67.91L235.381 68H233.347V66.488H236.587V70.214H234.949ZM238.826 68V58.46H240.554V68H238.826ZM239.69 56.624C239.354 56.624 239.072 56.516 238.844 56.3C238.628 56.084 238.52 55.82 238.52 55.508C238.52 55.184 238.628 54.914 238.844 54.698C239.072 54.482 239.354 54.374 239.69 54.374C240.026 54.374 240.302 54.482 240.518 54.698C240.746 54.902 240.86 55.16 240.86 55.472C240.86 55.796 240.752 56.072 240.536 56.3C240.32 56.516 240.038 56.624 239.69 56.624ZM246.618 64.022C246.618 63.554 246.696 63.146 246.852 62.798C247.008 62.45 247.2 62.138 247.428 61.862C247.668 61.586 247.926 61.334 248.202 61.106C248.478 60.866 248.736 60.632 248.976 60.404C249.216 60.164 249.408 59.912 249.552 59.648C249.708 59.384 249.786 59.078 249.786 58.73C249.786 58.154 249.558 57.686 249.102 57.326C248.646 56.966 248.016 56.786 247.212 56.786C246.492 56.786 245.868 56.906 245.34 57.146C244.812 57.386 244.362 57.74 243.99 58.208L242.676 57.272C243.18 56.636 243.822 56.144 244.602 55.796C245.382 55.436 246.294 55.256 247.338 55.256C248.202 55.256 248.952 55.388 249.588 55.652C250.224 55.904 250.716 56.27 251.064 56.75C251.424 57.218 251.604 57.788 251.604 58.46C251.604 58.964 251.526 59.396 251.37 59.756C251.214 60.116 251.016 60.434 250.776 60.71C250.536 60.986 250.278 61.244 250.002 61.484C249.738 61.724 249.486 61.964 249.246 62.204C249.006 62.444 248.808 62.708 248.652 62.996C248.496 63.284 248.418 63.626 248.418 64.022H246.618ZM247.536 68.108C247.2 68.108 246.918 67.994 246.69 67.766C246.474 67.538 246.366 67.268 246.366 66.956C246.366 66.62 246.474 66.344 246.69 66.128C246.918 65.912 247.2 65.804 247.536 65.804C247.872 65.804 248.148 65.912 248.364 66.128C248.58 66.344 248.688 66.62 248.688 66.956C248.688 67.268 248.58 67.538 248.364 67.766C248.148 67.994 247.872 68.108 247.536 68.108Z" fill="#232323"/>
</svg>
