<svg width="283" height="123" viewBox="0 0 283 123" fill="none" xmlns="http://www.w3.org/2000/svg">
<rect x="17.9998" width="265" height="102" rx="20" fill="white"/>
<path d="M12.2068 112.808L18.2182 83.3438L39.3613 99.8883L12.2068 112.808Z" fill="white"/>
<path d="M82.7299 46V41.896L83.1979 42.328H79.2559C78.2359 42.328 77.3539 42.154 76.6099 41.806C75.8779 41.458 75.3139 40.96 74.9179 40.312C74.5339 39.652 74.3419 38.86 74.3419 37.936C74.3419 36.976 74.5519 36.16 74.9719 35.488C75.3919 34.804 75.9859 34.288 76.7539 33.94C77.5219 33.58 78.4159 33.4 79.4359 33.4H84.4939V46H82.7299ZM74.3419 46L77.4559 41.536H79.2919L76.2499 46H74.3419ZM82.7299 41.32V34.444L83.1979 34.966H79.5079C78.4279 34.966 77.5999 35.218 77.0239 35.722C76.4479 36.214 76.1599 36.946 76.1599 37.918C76.1599 38.842 76.4299 39.556 76.9699 40.06C77.5219 40.564 78.3319 40.816 79.3999 40.816H83.1979L82.7299 41.32ZM95.0499 46L91.3599 41.356L92.7819 40.492L97.0839 46H95.0499ZM88.1379 46V36.46H89.8659V46H88.1379ZM89.3439 41.968V40.492H92.4939V41.968H89.3439ZM92.9259 41.428L91.3239 41.212L94.9779 36.46H96.8319L92.9259 41.428ZM107.816 46.108C106.856 46.108 106.004 45.898 105.26 45.478C104.516 45.058 103.928 44.482 103.496 43.75C103.064 43.006 102.848 42.166 102.848 41.23C102.848 40.282 103.064 39.442 103.496 38.71C103.928 37.978 104.516 37.408 105.26 37C106.004 36.58 106.856 36.37 107.816 36.37C108.764 36.37 109.61 36.58 110.354 37C111.11 37.408 111.698 37.978 112.118 38.71C112.55 39.43 112.766 40.27 112.766 41.23C112.766 42.178 112.55 43.018 112.118 43.75C111.698 44.482 111.11 45.058 110.354 45.478C109.61 45.898 108.764 46.108 107.816 46.108ZM107.816 44.596C108.428 44.596 108.974 44.458 109.454 44.182C109.946 43.906 110.33 43.516 110.606 43.012C110.882 42.496 111.02 41.902 111.02 41.23C111.02 40.546 110.882 39.958 110.606 39.466C110.33 38.962 109.946 38.572 109.454 38.296C108.974 38.02 108.428 37.882 107.816 37.882C107.204 37.882 106.658 38.02 106.178 38.296C105.698 38.572 105.314 38.962 105.026 39.466C104.738 39.958 104.594 40.546 104.594 41.23C104.594 41.902 104.738 42.496 105.026 43.012C105.314 43.516 105.698 43.906 106.178 44.182C106.658 44.458 107.204 44.596 107.816 44.596ZM119.671 46.144C118.879 46.144 118.177 46.018 117.565 45.766C116.965 45.514 116.449 45.142 116.017 44.65C115.585 44.146 115.255 43.516 115.027 42.76C114.811 41.992 114.703 41.092 114.703 40.06C114.703 39.244 114.775 38.512 114.919 37.864C115.063 37.216 115.267 36.64 115.531 36.136C115.807 35.632 116.143 35.194 116.539 34.822C116.947 34.45 117.403 34.144 117.907 33.904C118.423 33.652 118.987 33.46 119.599 33.328L123.955 32.356L124.207 33.958L120.193 34.822C119.953 34.87 119.665 34.942 119.329 35.038C118.993 35.134 118.651 35.284 118.303 35.488C117.955 35.68 117.631 35.95 117.331 36.298C117.031 36.646 116.791 37.102 116.611 37.666C116.431 38.218 116.341 38.902 116.341 39.718C116.341 39.946 116.347 40.12 116.359 40.24C116.371 40.36 116.383 40.48 116.395 40.6C116.419 40.72 116.437 40.9 116.449 41.14L115.729 40.402C115.921 39.742 116.227 39.166 116.647 38.674C117.067 38.182 117.571 37.804 118.159 37.54C118.759 37.264 119.413 37.126 120.121 37.126C121.009 37.126 121.795 37.318 122.479 37.702C123.175 38.086 123.721 38.614 124.117 39.286C124.513 39.958 124.711 40.726 124.711 41.59C124.711 42.466 124.501 43.252 124.081 43.948C123.673 44.632 123.091 45.172 122.335 45.568C121.579 45.952 120.691 46.144 119.671 46.144ZM119.833 44.704C120.445 44.704 120.985 44.572 121.453 44.308C121.921 44.032 122.287 43.666 122.551 43.21C122.815 42.742 122.947 42.22 122.947 41.644C122.947 41.068 122.815 40.558 122.551 40.114C122.287 39.67 121.921 39.322 121.453 39.07C120.985 38.806 120.433 38.674 119.797 38.674C119.197 38.674 118.657 38.8 118.177 39.052C117.697 39.292 117.325 39.634 117.061 40.078C116.797 40.51 116.665 41.014 116.665 41.59C116.665 42.166 116.797 42.694 117.061 43.174C117.337 43.642 117.709 44.014 118.177 44.29C118.657 44.566 119.209 44.704 119.833 44.704ZM125.525 45.982L125.633 44.524C125.717 44.536 125.795 44.548 125.867 44.56C125.939 44.572 126.005 44.578 126.065 44.578C126.449 44.578 126.749 44.446 126.965 44.182C127.193 43.918 127.361 43.57 127.469 43.138C127.577 42.694 127.655 42.196 127.703 41.644C127.751 41.092 127.787 40.54 127.811 39.988L127.973 36.46H135.299V46H133.571V37.468L133.985 37.972H129.089L129.485 37.45L129.359 40.096C129.323 40.936 129.257 41.722 129.161 42.454C129.065 43.186 128.915 43.828 128.711 44.38C128.519 44.932 128.249 45.364 127.901 45.676C127.565 45.988 127.127 46.144 126.587 46.144C126.431 46.144 126.263 46.126 126.083 46.09C125.915 46.066 125.729 46.03 125.525 45.982ZM144.49 46V43.984L144.4 43.606V40.168C144.4 39.436 144.184 38.872 143.752 38.476C143.332 38.068 142.696 37.864 141.844 37.864C141.28 37.864 140.728 37.96 140.188 38.152C139.648 38.332 139.192 38.578 138.82 38.89L138.1 37.594C138.592 37.198 139.18 36.898 139.864 36.694C140.56 36.478 141.286 36.37 142.042 36.37C143.35 36.37 144.358 36.688 145.066 37.324C145.774 37.96 146.128 38.932 146.128 40.24V46H144.49ZM141.358 46.108C140.65 46.108 140.026 45.988 139.486 45.748C138.958 45.508 138.55 45.178 138.262 44.758C137.974 44.326 137.83 43.84 137.83 43.3C137.83 42.784 137.95 42.316 138.19 41.896C138.442 41.476 138.844 41.14 139.396 40.888C139.96 40.636 140.716 40.51 141.664 40.51H144.688V41.752H141.736C140.872 41.752 140.29 41.896 139.99 42.184C139.69 42.472 139.54 42.82 139.54 43.228C139.54 43.696 139.726 44.074 140.098 44.362C140.47 44.638 140.986 44.776 141.646 44.776C142.294 44.776 142.858 44.632 143.338 44.344C143.83 44.056 144.184 43.636 144.4 43.084L144.742 44.272C144.514 44.836 144.112 45.286 143.536 45.622C142.96 45.946 142.234 46.108 141.358 46.108ZM155.575 44.488L155.179 44.938V36.46H156.907V44.938L156.475 44.488H161.515L161.101 44.938V36.46H162.829V46H149.239V36.46H150.967V44.938L150.553 44.488H155.575ZM168.075 46V37.522L168.507 37.972H164.583V36.46H173.295V37.972H169.389L169.803 37.522V46H168.075ZM175.548 49.6C175.092 49.6 174.648 49.522 174.216 49.366C173.784 49.222 173.412 49.006 173.1 48.718L173.838 47.422C174.078 47.65 174.342 47.824 174.63 47.944C174.918 48.064 175.224 48.124 175.548 48.124C175.968 48.124 176.316 48.016 176.592 47.8C176.868 47.584 177.126 47.2 177.366 46.648L177.96 45.334L178.14 45.118L181.884 36.46H183.576L178.95 46.954C178.674 47.626 178.362 48.154 178.014 48.538C177.678 48.922 177.306 49.192 176.898 49.348C176.49 49.516 176.04 49.6 175.548 49.6ZM177.816 46.306L173.46 36.46H175.26L178.968 44.956L177.816 46.306ZM185.345 46V36.46H189.773C190.889 36.46 191.765 36.676 192.401 37.108C193.049 37.528 193.373 38.128 193.373 38.908C193.373 39.688 193.067 40.294 192.455 40.726C191.855 41.146 191.057 41.356 190.061 41.356L190.331 40.888C191.471 40.888 192.317 41.098 192.869 41.518C193.421 41.938 193.697 42.556 193.697 43.372C193.697 44.2 193.385 44.848 192.761 45.316C192.149 45.772 191.207 46 189.935 46H185.345ZM187.037 44.668H189.809C190.529 44.668 191.069 44.56 191.429 44.344C191.789 44.116 191.969 43.756 191.969 43.264C191.969 42.76 191.801 42.394 191.465 42.166C191.141 41.926 190.625 41.806 189.917 41.806H187.037V44.668ZM187.037 40.564H189.629C190.289 40.564 190.787 40.444 191.123 40.204C191.471 39.952 191.645 39.604 191.645 39.16C191.645 38.704 191.471 38.362 191.123 38.134C190.787 37.906 190.289 37.792 189.629 37.792H187.037V40.564ZM202.252 46V43.984L202.162 43.606V40.168C202.162 39.436 201.946 38.872 201.514 38.476C201.094 38.068 200.458 37.864 199.606 37.864C199.042 37.864 198.49 37.96 197.95 38.152C197.41 38.332 196.954 38.578 196.582 38.89L195.862 37.594C196.354 37.198 196.942 36.898 197.626 36.694C198.322 36.478 199.048 36.37 199.804 36.37C201.112 36.37 202.12 36.688 202.828 37.324C203.536 37.96 203.89 38.932 203.89 40.24V46H202.252ZM199.12 46.108C198.412 46.108 197.788 45.988 197.248 45.748C196.72 45.508 196.312 45.178 196.024 44.758C195.736 44.326 195.592 43.84 195.592 43.3C195.592 42.784 195.712 42.316 195.952 41.896C196.204 41.476 196.606 41.14 197.158 40.888C197.722 40.636 198.478 40.51 199.426 40.51H202.45V41.752H199.498C198.634 41.752 198.052 41.896 197.752 42.184C197.452 42.472 197.302 42.82 197.302 43.228C197.302 43.696 197.488 44.074 197.86 44.362C198.232 44.638 198.748 44.776 199.408 44.776C200.056 44.776 200.62 44.632 201.1 44.344C201.592 44.056 201.946 43.636 202.162 43.084L202.504 44.272C202.276 44.836 201.874 45.286 201.298 45.622C200.722 45.946 199.996 46.108 199.12 46.108ZM208.891 46V37.522L209.323 37.972H205.399V36.46H214.111V37.972H210.205L210.619 37.522V46H208.891ZM215.878 46V36.46H217.606V43.408L223.456 36.46H225.022V46H223.294V39.052L217.462 46H215.878ZM51.5406 68V59.522L51.9726 59.972H48.0486V58.46H56.7606V59.972H52.8546L53.2686 59.522V68H51.5406ZM62.3536 68.108C61.3336 68.108 60.4336 67.898 59.6536 67.478C58.8856 67.058 58.2856 66.482 57.8536 65.75C57.4336 65.018 57.2236 64.178 57.2236 63.23C57.2236 62.282 57.4276 61.442 57.8356 60.71C58.2556 59.978 58.8256 59.408 59.5456 59C60.2776 58.58 61.0996 58.37 62.0116 58.37C62.9356 58.37 63.7516 58.574 64.4596 58.982C65.1676 59.39 65.7196 59.966 66.1156 60.71C66.5236 61.442 66.7276 62.3 66.7276 63.284C66.7276 63.356 66.7216 63.44 66.7096 63.536C66.7096 63.632 66.7036 63.722 66.6916 63.806H58.5736V62.564H65.7916L65.0896 62.996C65.1016 62.384 64.9756 61.838 64.7116 61.358C64.4476 60.878 64.0816 60.506 63.6136 60.242C63.1576 59.966 62.6236 59.828 62.0116 59.828C61.4116 59.828 60.8776 59.966 60.4096 60.242C59.9416 60.506 59.5756 60.884 59.3116 61.376C59.0476 61.856 58.9156 62.408 58.9156 63.032V63.32C58.9156 63.956 59.0596 64.526 59.3476 65.03C59.6476 65.522 60.0616 65.906 60.5896 66.182C61.1176 66.458 61.7236 66.596 62.4076 66.596C62.9716 66.596 63.4816 66.5 63.9376 66.308C64.4056 66.116 64.8136 65.828 65.1616 65.444L66.1156 66.56C65.6836 67.064 65.1436 67.448 64.4956 67.712C63.8596 67.976 63.1456 68.108 62.3536 68.108ZM74.4664 68.108C73.6744 68.108 72.9484 67.928 72.2884 67.568C71.6404 67.196 71.1184 66.65 70.7224 65.93C70.3384 65.21 70.1464 64.31 70.1464 63.23C70.1464 62.15 70.3324 61.25 70.7044 60.53C71.0884 59.81 71.6044 59.27 72.2524 58.91C72.9124 58.55 73.6504 58.37 74.4664 58.37C75.4024 58.37 76.2304 58.574 76.9504 58.982C77.6704 59.39 78.2404 59.96 78.6604 60.692C79.0804 61.412 79.2904 62.258 79.2904 63.23C79.2904 64.202 79.0804 65.054 78.6604 65.786C78.2404 66.518 77.6704 67.088 76.9504 67.496C76.2304 67.904 75.4024 68.108 74.4664 68.108ZM69.4084 71.492V58.46H71.0644V61.034L70.9564 63.248L71.1364 65.462V71.492H69.4084ZM74.3224 66.596C74.9344 66.596 75.4804 66.458 75.9604 66.182C76.4524 65.906 76.8364 65.516 77.1124 65.012C77.4004 64.496 77.5444 63.902 77.5444 63.23C77.5444 62.546 77.4004 61.958 77.1124 61.466C76.8364 60.962 76.4524 60.572 75.9604 60.296C75.4804 60.02 74.9344 59.882 74.3224 59.882C73.7224 59.882 73.1764 60.02 72.6844 60.296C72.2044 60.572 71.8204 60.962 71.5324 61.466C71.2564 61.958 71.1184 62.546 71.1184 63.23C71.1184 63.902 71.2564 64.496 71.5324 65.012C71.8204 65.516 72.2044 65.906 72.6844 66.182C73.1764 66.458 73.7224 66.596 74.3224 66.596ZM87.5631 68V65.984L87.4731 65.606V62.168C87.4731 61.436 87.2571 60.872 86.8251 60.476C86.4051 60.068 85.7691 59.864 84.9171 59.864C84.3531 59.864 83.8011 59.96 83.2611 60.152C82.7211 60.332 82.2651 60.578 81.8931 60.89L81.1731 59.594C81.6651 59.198 82.2531 58.898 82.9371 58.694C83.6331 58.478 84.3591 58.37 85.1151 58.37C86.4231 58.37 87.4311 58.688 88.1391 59.324C88.8471 59.96 89.2011 60.932 89.2011 62.24V68H87.5631ZM84.4311 68.108C83.7231 68.108 83.0991 67.988 82.5591 67.748C82.0311 67.508 81.6231 67.178 81.3351 66.758C81.0471 66.326 80.9031 65.84 80.9031 65.3C80.9031 64.784 81.0231 64.316 81.2631 63.896C81.5151 63.476 81.9171 63.14 82.4691 62.888C83.0331 62.636 83.7891 62.51 84.7371 62.51H87.7611V63.752H84.8091C83.9451 63.752 83.3631 63.896 83.0631 64.184C82.7631 64.472 82.6131 64.82 82.6131 65.228C82.6131 65.696 82.7991 66.074 83.1711 66.362C83.5431 66.638 84.0591 66.776 84.7191 66.776C85.3671 66.776 85.9311 66.632 86.4111 66.344C86.9031 66.056 87.2571 65.636 87.4731 65.084L87.8151 66.272C87.5871 66.836 87.1851 67.286 86.6091 67.622C86.0331 67.946 85.3071 68.108 84.4311 68.108ZM97.3707 68.108C96.5787 68.108 95.8527 67.928 95.1927 67.568C94.5447 67.196 94.0227 66.65 93.6267 65.93C93.2427 65.21 93.0507 64.31 93.0507 63.23C93.0507 62.15 93.2367 61.25 93.6087 60.53C93.9927 59.81 94.5087 59.27 95.1567 58.91C95.8167 58.55 96.5547 58.37 97.3707 58.37C98.3067 58.37 99.1347 58.574 99.8547 58.982C100.575 59.39 101.145 59.96 101.565 60.692C101.985 61.412 102.195 62.258 102.195 63.23C102.195 64.202 101.985 65.054 101.565 65.786C101.145 66.518 100.575 67.088 99.8547 67.496C99.1347 67.904 98.3067 68.108 97.3707 68.108ZM92.3127 71.492V58.46H93.9687V61.034L93.8607 63.248L94.0407 65.462V71.492H92.3127ZM97.2267 66.596C97.8387 66.596 98.3847 66.458 98.8647 66.182C99.3567 65.906 99.7407 65.516 100.017 65.012C100.305 64.496 100.449 63.902 100.449 63.23C100.449 62.546 100.305 61.958 100.017 61.466C99.7407 60.962 99.3567 60.572 98.8647 60.296C98.3847 60.02 97.8387 59.882 97.2267 59.882C96.6267 59.882 96.0807 60.02 95.5887 60.296C95.1087 60.572 94.7247 60.962 94.4367 61.466C94.1607 61.958 94.0227 62.546 94.0227 63.23C94.0227 63.902 94.1607 64.496 94.4367 65.012C94.7247 65.516 95.1087 65.906 95.5887 66.182C96.0807 66.458 96.6267 66.596 97.2267 66.596ZM104.705 68V58.46H106.433V68H104.705ZM105.569 56.624C105.233 56.624 104.951 56.516 104.723 56.3C104.507 56.084 104.399 55.82 104.399 55.508C104.399 55.184 104.507 54.914 104.723 54.698C104.951 54.482 105.233 54.374 105.569 54.374C105.905 54.374 106.181 54.482 106.397 54.698C106.625 54.902 106.739 55.16 106.739 55.472C106.739 55.796 106.631 56.072 106.415 56.3C106.199 56.516 105.917 56.624 105.569 56.624ZM110.289 71.6C109.833 71.6 109.389 71.522 108.957 71.366C108.525 71.222 108.153 71.006 107.841 70.718L108.579 69.422C108.819 69.65 109.083 69.824 109.371 69.944C109.659 70.064 109.965 70.124 110.289 70.124C110.709 70.124 111.057 70.016 111.333 69.8C111.609 69.584 111.867 69.2 112.107 68.648L112.701 67.334L112.881 67.118L116.625 58.46H118.317L113.691 68.954C113.415 69.626 113.103 70.154 112.755 70.538C112.419 70.922 112.047 71.192 111.639 71.348C111.231 71.516 110.781 71.6 110.289 71.6ZM112.557 68.306L108.201 58.46H110.001L113.709 66.956L112.557 68.306ZM120.086 68V58.46H121.868L125.972 65.516H125.252L129.464 58.46H131.084V68H129.518V60.404L129.806 60.566L125.954 66.92H125.198L121.328 60.44L121.67 60.368V68H120.086ZM145.797 67.19V59.972H141.657L141.567 61.808C141.543 62.408 141.501 62.99 141.441 63.554C141.393 64.106 141.309 64.616 141.189 65.084C141.081 65.552 140.919 65.936 140.703 66.236C140.487 66.536 140.199 66.722 139.839 66.794L138.129 66.488C138.501 66.5 138.801 66.38 139.029 66.128C139.257 65.864 139.431 65.504 139.551 65.048C139.683 64.592 139.779 64.076 139.839 63.5C139.899 62.912 139.947 62.306 139.983 61.682L140.127 58.46H147.525V67.19H145.797ZM137.751 70.214V66.488H148.983V70.214H147.363V68H139.389V70.214H137.751ZM149.651 67.982L149.759 66.524C149.843 66.536 149.921 66.548 149.993 66.56C150.065 66.572 150.131 66.578 150.191 66.578C150.575 66.578 150.875 66.446 151.091 66.182C151.319 65.918 151.487 65.57 151.595 65.138C151.703 64.694 151.781 64.196 151.829 63.644C151.877 63.092 151.913 62.54 151.937 61.988L152.099 58.46H159.425V68H157.697V59.468L158.111 59.972H153.215L153.611 59.45L153.485 62.096C153.449 62.936 153.383 63.722 153.287 64.454C153.191 65.186 153.041 65.828 152.837 66.38C152.645 66.932 152.375 67.364 152.027 67.676C151.691 67.988 151.253 68.144 150.713 68.144C150.557 68.144 150.389 68.126 150.209 68.09C150.041 68.066 149.855 68.03 149.651 67.982ZM168.868 68V64.652L169.138 64.976H166.096C164.824 64.976 163.828 64.706 163.108 64.166C162.4 63.626 162.046 62.84 162.046 61.808C162.046 60.704 162.424 59.87 163.18 59.306C163.948 58.742 164.968 58.46 166.24 58.46H170.416V68H168.868ZM161.956 68L164.548 64.346H166.33L163.81 68H161.956ZM168.868 64.112V59.486L169.138 59.972H166.294C165.502 59.972 164.89 60.122 164.458 60.422C164.026 60.71 163.81 61.19 163.81 61.862C163.81 63.11 164.614 63.734 166.222 63.734H169.138L168.868 64.112ZM178.621 68V58.46H185.641V59.972H179.935L180.349 59.576V68H178.621ZM191.236 68.108C190.216 68.108 189.316 67.898 188.536 67.478C187.768 67.058 187.168 66.482 186.736 65.75C186.316 65.018 186.106 64.178 186.106 63.23C186.106 62.282 186.31 61.442 186.718 60.71C187.138 59.978 187.708 59.408 188.428 59C189.16 58.58 189.982 58.37 190.894 58.37C191.818 58.37 192.634 58.574 193.342 58.982C194.05 59.39 194.602 59.966 194.998 60.71C195.406 61.442 195.61 62.3 195.61 63.284C195.61 63.356 195.604 63.44 195.592 63.536C195.592 63.632 195.586 63.722 195.574 63.806H187.456V62.564H194.674L193.972 62.996C193.984 62.384 193.858 61.838 193.594 61.358C193.33 60.878 192.964 60.506 192.496 60.242C192.04 59.966 191.506 59.828 190.894 59.828C190.294 59.828 189.76 59.966 189.292 60.242C188.824 60.506 188.458 60.884 188.194 61.376C187.93 61.856 187.798 62.408 187.798 63.032V63.32C187.798 63.956 187.942 64.526 188.23 65.03C188.53 65.522 188.944 65.906 189.472 66.182C190 66.458 190.606 66.596 191.29 66.596C191.854 66.596 192.364 66.5 192.82 66.308C193.288 66.116 193.696 65.828 194.044 65.444L194.998 66.56C194.566 67.064 194.026 67.448 193.378 67.712C192.742 67.976 192.028 68.108 191.236 68.108ZM205.203 68L201.513 63.356L202.935 62.492L207.237 68H205.203ZM198.291 68V58.46H200.019V68H198.291ZM199.497 63.968V62.492H202.647V63.968H199.497ZM203.079 63.428L201.477 63.212L205.131 58.46H206.985L203.079 63.428ZM212.819 68.108C211.859 68.108 211.007 67.898 210.263 67.478C209.519 67.058 208.931 66.482 208.499 65.75C208.067 65.006 207.851 64.166 207.851 63.23C207.851 62.282 208.067 61.442 208.499 60.71C208.931 59.978 209.519 59.408 210.263 59C211.007 58.58 211.859 58.37 212.819 58.37C213.767 58.37 214.613 58.58 215.357 59C216.113 59.408 216.701 59.978 217.121 60.71C217.553 61.43 217.769 62.27 217.769 63.23C217.769 64.178 217.553 65.018 217.121 65.75C216.701 66.482 216.113 67.058 215.357 67.478C214.613 67.898 213.767 68.108 212.819 68.108ZM212.819 66.596C213.431 66.596 213.977 66.458 214.457 66.182C214.949 65.906 215.333 65.516 215.609 65.012C215.885 64.496 216.023 63.902 216.023 63.23C216.023 62.546 215.885 61.958 215.609 61.466C215.333 60.962 214.949 60.572 214.457 60.296C213.977 60.02 213.431 59.882 212.819 59.882C212.207 59.882 211.661 60.02 211.181 60.296C210.701 60.572 210.317 60.962 210.029 61.466C209.741 61.958 209.597 62.546 209.597 63.23C209.597 63.902 209.741 64.496 210.029 65.012C210.317 65.516 210.701 65.906 211.181 66.182C211.661 66.458 212.207 66.596 212.819 66.596ZM220.264 68V58.46H221.992V62.51H227.428V58.46H229.156V68H227.428V64.004H221.992V68H220.264ZM238.366 68V65.984L238.276 65.606V62.168C238.276 61.436 238.06 60.872 237.628 60.476C237.208 60.068 236.572 59.864 235.72 59.864C235.156 59.864 234.604 59.96 234.064 60.152C233.524 60.332 233.068 60.578 232.696 60.89L231.976 59.594C232.468 59.198 233.056 58.898 233.74 58.694C234.436 58.478 235.162 58.37 235.918 58.37C237.226 58.37 238.234 58.688 238.942 59.324C239.65 59.96 240.004 60.932 240.004 62.24V68H238.366ZM235.234 68.108C234.526 68.108 233.902 67.988 233.362 67.748C232.834 67.508 232.426 67.178 232.138 66.758C231.85 66.326 231.706 65.84 231.706 65.3C231.706 64.784 231.826 64.316 232.066 63.896C232.318 63.476 232.72 63.14 233.272 62.888C233.836 62.636 234.592 62.51 235.54 62.51H238.564V63.752H235.612C234.748 63.752 234.166 63.896 233.866 64.184C233.566 64.472 233.416 64.82 233.416 65.228C233.416 65.696 233.602 66.074 233.974 66.362C234.346 66.638 234.862 66.776 235.522 66.776C236.17 66.776 236.734 66.632 237.214 66.344C237.706 66.056 238.06 65.636 238.276 65.084L238.618 66.272C238.39 66.836 237.988 67.286 237.412 67.622C236.836 67.946 236.11 68.108 235.234 68.108ZM245.809 64.022C245.809 63.554 245.887 63.146 246.043 62.798C246.199 62.45 246.391 62.138 246.619 61.862C246.859 61.586 247.117 61.334 247.393 61.106C247.669 60.866 247.927 60.632 248.167 60.404C248.407 60.164 248.599 59.912 248.743 59.648C248.899 59.384 248.977 59.078 248.977 58.73C248.977 58.154 248.749 57.686 248.293 57.326C247.837 56.966 247.207 56.786 246.403 56.786C245.683 56.786 245.059 56.906 244.531 57.146C244.003 57.386 243.553 57.74 243.181 58.208L241.867 57.272C242.371 56.636 243.013 56.144 243.793 55.796C244.573 55.436 245.485 55.256 246.529 55.256C247.393 55.256 248.143 55.388 248.779 55.652C249.415 55.904 249.907 56.27 250.255 56.75C250.615 57.218 250.795 57.788 250.795 58.46C250.795 58.964 250.717 59.396 250.561 59.756C250.405 60.116 250.207 60.434 249.967 60.71C249.727 60.986 249.469 61.244 249.193 61.484C248.929 61.724 248.677 61.964 248.437 62.204C248.197 62.444 247.999 62.708 247.843 62.996C247.687 63.284 247.609 63.626 247.609 64.022H245.809ZM246.727 68.108C246.391 68.108 246.109 67.994 245.881 67.766C245.665 67.538 245.557 67.268 245.557 66.956C245.557 66.62 245.665 66.344 245.881 66.128C246.109 65.912 246.391 65.804 246.727 65.804C247.063 65.804 247.339 65.912 247.555 66.128C247.771 66.344 247.879 66.62 247.879 66.956C247.879 67.268 247.771 67.538 247.555 67.766C247.339 67.994 247.063 68.108 246.727 68.108Z" fill="#232323"/>
</svg>
