<svg width="40" height="41" viewBox="0 0 40 41" fill="none" xmlns="http://www.w3.org/2000/svg">
<rect width="40" height="40" transform="translate(0 0.5)" fill="white"/>
<rect width="40" height="40" transform="translate(0 0.5)" fill="white"/>
<path d="M5 4.49999C4.44772 4.49999 4 4.94771 4 5.49999C4 6.05228 4.44772 6.49999 5 6.49999L5 4.49999ZM9.16667 5.49999L10.1368 5.25746C10.0255 4.81229 9.62553 4.49999 9.16667 4.49999V5.49999ZM31.6667 28.1667C32.219 28.1667 32.6667 27.7189 32.6667 27.1667C32.6667 26.6144 32.219 26.1667 31.6667 26.1667V28.1667ZM35 8.83333L35.9701 9.07586C36.0448 8.77712 35.9777 8.46063 35.7882 8.21791C35.5987 7.9752 35.3079 7.83333 35 7.83333V8.83333ZM31.6667 22.1667V23.1667C32.1255 23.1667 32.5255 22.8544 32.6368 22.4092L31.6667 22.1667ZM5 6.49999H9.16667V4.49999H5L5 6.49999ZM8.19652 5.74253L9.02986 9.07586L10.9701 8.59079L10.1368 5.25746L8.19652 5.74253ZM9.02986 9.07586L12.3632 22.4092L14.3035 21.9241L10.9701 8.59079L9.02986 9.07586ZM13.3333 21.1667H12.5V23.1667H13.3333V21.1667ZM12.5 28.1667H31.6667V26.1667H12.5V28.1667ZM9 24.6667C9 26.5997 10.567 28.1667 12.5 28.1667V26.1667C11.6716 26.1667 11 25.4951 11 24.6667H9ZM12.5 21.1667C10.567 21.1667 9 22.7337 9 24.6667H11C11 23.8382 11.6716 23.1667 12.5 23.1667V21.1667ZM10 9.83333H35V7.83333H10V9.83333ZM34.0299 8.59079L30.6965 21.9241L32.6368 22.4092L35.9701 9.07586L34.0299 8.59079ZM31.6667 21.1667H13.3333V23.1667H31.6667V21.1667ZM30.6667 33.8333C30.6667 34.2015 30.3682 34.5 30 34.5V36.5C31.4728 36.5 32.6667 35.3061 32.6667 33.8333H30.6667ZM30 34.5C29.6318 34.5 29.3333 34.2015 29.3333 33.8333H27.3333C27.3333 35.3061 28.5272 36.5 30 36.5V34.5ZM29.3333 33.8333C29.3333 33.4651 29.6318 33.1667 30 33.1667V31.1667C28.5272 31.1667 27.3333 32.3606 27.3333 33.8333H29.3333ZM30 33.1667C30.3682 33.1667 30.6667 33.4651 30.6667 33.8333H32.6667C32.6667 32.3606 31.4728 31.1667 30 31.1667V33.1667ZM14 33.8333C14 34.2015 13.7015 34.5 13.3333 34.5V36.5C14.8061 36.5 16 35.3061 16 33.8333H14ZM13.3333 34.5C12.9651 34.5 12.6667 34.2015 12.6667 33.8333H10.6667C10.6667 35.3061 11.8606 36.5 13.3333 36.5V34.5ZM12.6667 33.8333C12.6667 33.4651 12.9651 33.1667 13.3333 33.1667V31.1667C11.8606 31.1667 10.6667 32.3606 10.6667 33.8333H12.6667ZM13.3333 33.1667C13.7015 33.1667 14 33.4651 14 33.8333H16C16 32.3606 14.8061 31.1667 13.3333 31.1667V33.1667Z" fill="#FF7A00"/>
<path d="M11 9H34L31 21.5H14L11 9Z" fill="#FF7A00"/>
</svg>
