<svg width="40" height="40" viewBox="0 0 40 40" fill="none" xmlns="http://www.w3.org/2000/svg">
<path d="M4.99997 3.99999C4.44768 3.99999 3.99997 4.44771 3.99997 4.99999C3.99997 5.55228 4.44768 5.99999 4.99997 5.99999L4.99997 3.99999ZM9.16664 4.99999L10.1368 4.75746C10.0255 4.31229 9.6255 3.99999 9.16664 3.99999L9.16664 4.99999ZM31.6666 27.6667C32.2189 27.6667 32.6666 27.2189 32.6666 26.6667C32.6666 26.1144 32.2189 25.6667 31.6666 25.6667V27.6667ZM35 8.33333L35.9701 8.57586C36.0448 8.27712 35.9777 7.96063 35.7882 7.71791C35.5987 7.4752 35.3079 7.33333 35 7.33333V8.33333ZM31.6666 21.6667V22.6667C32.1255 22.6667 32.5255 22.3544 32.6368 21.9092L31.6666 21.6667ZM4.99997 4.99999L4.99997 5.99999L9.16664 5.99999L9.16664 4.99999L9.16664 3.99999L4.99997 3.99999L4.99997 4.99999ZM9.16664 4.99999L8.19649 5.24253L9.02983 8.57586L9.99997 8.33333L10.9701 8.09079L10.1368 4.75746L9.16664 4.99999ZM9.99997 8.33333L9.02983 8.57586L12.3632 21.9092L13.3333 21.6667L14.3034 21.4241L10.9701 8.09079L9.99997 8.33333ZM13.3333 21.6667V20.6667H12.5V21.6667V22.6667H13.3333V21.6667ZM12.5 26.6667V27.6667H31.6666V26.6667V25.6667H12.5V26.6667ZM9.99997 24.1667H8.99997C8.99997 26.0997 10.567 27.6667 12.5 27.6667V26.6667V25.6667C11.6715 25.6667 11 24.9951 11 24.1667H9.99997ZM12.5 21.6667V20.6667C10.567 20.6667 8.99997 22.2337 8.99997 24.1667H9.99997H11C11 23.3382 11.6715 22.6667 12.5 22.6667V21.6667ZM9.99997 8.33333V9.33333H35V8.33333V7.33333H9.99997V8.33333ZM35 8.33333L34.0298 8.09079L30.6965 21.4241L31.6666 21.6667L32.6368 21.9092L35.9701 8.57586L35 8.33333ZM31.6666 21.6667V20.6667H13.3333V21.6667V22.6667H31.6666V21.6667ZM31.6666 33.3333H30.6666C30.6666 33.7015 30.3682 34 30 34V35V36C31.4727 36 32.6666 34.8061 32.6666 33.3333H31.6666ZM30 35V34C29.6318 34 29.3333 33.7015 29.3333 33.3333H28.3333H27.3333C27.3333 34.8061 28.5272 36 30 36V35ZM28.3333 33.3333H29.3333C29.3333 32.9651 29.6318 32.6667 30 32.6667V31.6667V30.6667C28.5272 30.6667 27.3333 31.8606 27.3333 33.3333H28.3333ZM30 31.6667V32.6667C30.3682 32.6667 30.6666 32.9651 30.6666 33.3333H31.6666H32.6666C32.6666 31.8606 31.4727 30.6667 30 30.6667V31.6667ZM15 33.3333H14C14 33.7015 13.7015 34 13.3333 34V35V36C14.8061 36 16 34.8061 16 33.3333H15ZM13.3333 35V34C12.9651 34 12.6666 33.7015 12.6666 33.3333H11.6666H10.6666C10.6666 34.8061 11.8605 36 13.3333 36V35ZM11.6666 33.3333H12.6666C12.6666 32.9651 12.9651 32.6667 13.3333 32.6667V31.6667V30.6667C11.8605 30.6667 10.6666 31.8606 10.6666 33.3333H11.6666ZM13.3333 31.6667V32.6667C13.7015 32.6667 14 32.9651 14 33.3333H15H16C16 31.8606 14.8061 30.6667 13.3333 30.6667V31.6667Z" fill="#5F6368"/>
</svg>
