<svg width="16" height="20" viewBox="0 0 16 20" fill="none" xmlns="http://www.w3.org/2000/svg">
<path d="M12.5 20H3.49996C3.37621 19.9984 3.25725 19.9519 3.16526 19.8691C3.07326 19.7863 3.01452 19.6729 2.99996 19.55L1.49997 3.55C1.49229 3.40822 1.53876 3.26882 1.62997 3.16C1.67753 3.10959 1.73487 3.0694 1.79849 3.04189C1.8621 3.01438 1.93066 3.00013 1.99997 3H14C14.0693 3.00013 14.1378 3.01438 14.2014 3.04189C14.2651 3.0694 14.3224 3.10959 14.37 3.16C14.417 3.21276 14.4528 3.27455 14.4751 3.34161C14.4975 3.40866 14.5059 3.47957 14.5 3.55L13 19.55C12.9854 19.6729 12.9267 19.7863 12.8347 19.8691C12.7427 19.9519 12.6237 19.9984 12.5 20V20ZM3.99996 19H12.09L13.49 4H2.54997L3.99996 19Z" fill="black"/>
<path d="M15 4H1C0.867392 4 0.740215 3.94732 0.646447 3.85355C0.552679 3.75979 0.5 3.63261 0.5 3.5C0.5 3.36739 0.552679 3.24021 0.646447 3.14645C0.740215 3.05268 0.867392 3 1 3H15C15.1326 3 15.2598 3.05268 15.3536 3.14645C15.4473 3.24021 15.5 3.36739 15.5 3.5C15.5 3.63261 15.4473 3.75979 15.3536 3.85355C15.2598 3.94732 15.1326 4 15 4Z" fill="black"/>
<path d="M10.5 1H5.5C5.36739 1 5.24021 0.947321 5.14645 0.853553C5.05268 0.759785 5 0.632608 5 0.5C5 0.367392 5.05268 0.240215 5.14645 0.146447C5.24021 0.0526785 5.36739 0 5.5 0H10.5C10.6326 0 10.7598 0.0526785 10.8536 0.146447C10.9473 0.240215 11 0.367392 11 0.5C11 0.632608 10.9473 0.759785 10.8536 0.853553C10.7598 0.947321 10.6326 1 10.5 1Z" fill="black"/>
<path d="M6.25 15.22C6.11739 15.22 5.99021 15.1674 5.89645 15.0736C5.80268 14.9798 5.75 14.8526 5.75 14.72V8.28003C5.75 8.14742 5.80268 8.02024 5.89645 7.92648C5.99021 7.83271 6.11739 7.78003 6.25 7.78003C6.38261 7.78003 6.50979 7.83271 6.60355 7.92648C6.69732 8.02024 6.75 8.14742 6.75 8.28003V14.72C6.75 14.8526 6.69732 14.9798 6.60355 15.0736C6.50979 15.1674 6.38261 15.22 6.25 15.22Z" fill="black"/>
<path d="M9.75 15.22C9.61739 15.22 9.49021 15.1674 9.39645 15.0736C9.30268 14.9798 9.25 14.8526 9.25 14.72V8.28003C9.25 8.14742 9.30268 8.02024 9.39645 7.92648C9.49021 7.83271 9.61739 7.78003 9.75 7.78003C9.88261 7.78003 10.0098 7.83271 10.1036 7.92648C10.1973 8.02024 10.25 8.14742 10.25 8.28003V14.72C10.25 14.8526 10.1973 14.9798 10.1036 15.0736C10.0098 15.1674 9.88261 15.22 9.75 15.22Z" fill="black"/>
</svg>
