<svg width="21" height="20" viewBox="0 0 21 20" fill="none" xmlns="http://www.w3.org/2000/svg">
<path fill-rule="evenodd" clip-rule="evenodd" d="M16.2475 5.91735C16.308 5.89719 16.3887 5.93751 16.4693 6.0484C16.4693 6.0484 16.4693 6.0484 20.1185 9.59678C20.3302 9.80848 20.3302 10.1311 20.1185 10.2923C20.1185 10.2923 20.1185 10.2923 16.4693 13.9012C16.3887 14.002 16.308 14.0323 16.2475 14.002C16.1871 13.9718 16.1467 13.871 16.1467 13.7399V6.1492C16.1467 6.01815 16.1871 5.93751 16.2475 5.91735Z" fill="#ED1C24"/>
<path fill-rule="evenodd" clip-rule="evenodd" d="M10.0076 0H10.2697L10.5116 0.100806C10.5116 0.100806 10.5116 0.100806 14.2717 3.82056C14.433 4.03226 14.3725 4.18347 14.1104 4.18347C14.1104 4.18347 14.1104 4.18347 12.5479 4.18347C12.2858 4.18347 12.064 4.40524 12.064 4.66734C12.064 4.66734 12.064 4.66734 12.064 7.42944C12.064 7.69153 11.8523 7.90323 11.5297 7.90323C11.5297 7.90323 11.5297 7.90323 8.79789 7.90323C8.52572 7.90323 8.31402 7.69153 8.31402 7.42944C8.31402 7.42944 8.31402 7.42944 8.31402 4.66734C8.31402 4.40524 8.10233 4.18347 7.83015 4.18347H6.16685C5.89467 4.18347 5.84427 4.03226 6.00556 3.82056C6.00556 3.82056 6.00556 3.82056 9.76564 0.100806L10.0076 0Z" fill="#ED1C24"/>
<path fill-rule="evenodd" clip-rule="evenodd" d="M4.13054 5.83669C4.19103 5.87701 4.23135 5.96774 4.23135 6.09879V13.8407C4.23135 13.9818 4.19103 14.0625 4.13054 14.0827C4.05998 14.1129 3.96925 14.0827 3.85837 14.002C3.85837 14.002 3.85837 14.002 0.15877 10.2923C-0.0529234 10.131 -0.0529234 9.80846 0.15877 9.59677C0.15877 9.59677 0.15877 9.59677 3.85837 5.93749C3.96925 5.83669 4.05998 5.80645 4.13054 5.83669Z" fill="#ED1C24"/>
<path fill-rule="evenodd" clip-rule="evenodd" d="M8.79787 11.9355C8.79787 11.9355 8.79787 11.9355 11.5297 11.9355C11.8523 11.9355 12.0741 12.1472 12.0741 12.4194C12.0741 12.4194 12.0741 12.4194 12.0741 15.3327C12.0741 15.6552 12.2858 15.8669 12.5479 15.8669H13.9995C14.2717 15.8669 14.3725 16.0181 14.1608 16.1794C14.1608 16.1794 14.1608 16.1794 10.5116 19.8387C10.4007 19.9496 10.2696 20 10.1386 20C10.0075 20 9.86642 19.9496 9.76561 19.8387C9.76561 19.8387 9.76561 19.8387 6.11642 16.1794C5.89464 16.0181 6.00553 15.8669 6.26763 15.8669C6.26763 15.8669 6.26763 15.8669 7.83013 15.8669C8.1023 15.8669 8.314 15.6552 8.314 15.3327C8.314 15.3327 8.314 15.3327 8.314 12.4194C8.314 12.1472 8.52569 11.9355 8.79787 11.9355Z" fill="#ED1C24"/>
</svg>
