<svg width="22" height="22" viewBox="0 0 22 22" fill="none" xmlns="http://www.w3.org/2000/svg">
<path d="M2 16.0066C2 15.2633 2.01117 14.5252 2.06063 13.7833C2.12265 12.8531 2.05338 11.9005 2.18527 10.9773C2.43272 9.2451 2.44687 7.47484 2.7613 5.75597C2.96888 4.62121 3.45757 2.98709 4.77571 2.80172C5.43682 2.70875 5.86001 3.19823 6.18378 3.69776C6.53987 4.24716 6.74361 4.90537 7.1573 5.42248C7.47038 5.81384 7.91918 6.40565 8.42725 6.54422C8.92382 6.67964 9.14969 6.80826 9.63994 6.54085C10.3365 6.16093 10.6448 5.14795 10.947 4.48601C11.3877 3.52057 12.3149 2 13.534 2C14.1902 2 14.6131 2.54807 14.8848 3.09142C15.0897 3.50111 15.3297 3.91103 15.4137 4.36474C15.531 4.99846 15.5133 5.66494 15.5956 6.30505C15.6625 6.82532 15.7034 7.30376 15.7034 7.83438C15.7034 8.13306 15.7034 9.02911 15.7034 8.73043" stroke="#98ED0F" stroke-width="2.5" stroke-linecap="round"/>
<path d="M15.7139 7.26276C15.7139 7.81471 15.6732 8.38306 15.7173 8.93358C15.7457 9.28922 15.9782 9.94998 16.199 10.2339C16.4835 10.5997 16.9871 11.0038 17.4723 11.0221C17.8872 11.0378 18.5419 11.0787 18.9006 10.8267C19.2892 10.5537 19.5111 10.18 19.7225 9.77236C19.9805 9.27486 20.2303 8.72634 20.3221 8.17565C20.4382 7.47907 20.4434 6.69411 20.4434 5.98944" stroke="#98ED0F" stroke-width="2.5" stroke-linecap="round"/>
<path d="M20.3723 5.75934C20.3723 8.45288 20.1989 11.0945 19.8906 13.7665C19.8242 14.3423 19.6675 14.8995 19.5841 15.4743C19.4875 16.1404 19.2545 16.8383 18.8565 17.3877C18.1555 18.3553 17.0876 19.3291 15.9326 19.7187C14.0477 20.3546 11.8616 19.965 10.9807 18.0075C10.6705 17.3182 10.5369 16.5414 10.307 15.8247C10.1913 15.4639 10.1251 15.2382 10.1251 14.8545" stroke="#98ED0F" stroke-width="2.5" stroke-linecap="round"/>
</svg>
