<svg width="14" height="20" viewBox="0 0 14 20" fill="none" xmlns="http://www.w3.org/2000/svg">
<path d="M13.094 11.4794L6.49864 9.97926C4.79907 9.59382 3.6075 8.05566 3.65309 6.30602C3.69868 4.55638 4.96872 3.08294 6.68604 2.78734C8.40336 2.49173 10.0893 3.45636 10.7122 5.09093C11.335 6.72551 10.7213 8.57442 9.2464 9.50629C9.21825 9.52739 9.20463 9.56283 9.21137 9.59746C9.21812 9.63209 9.24403 9.65977 9.27802 9.66865L12.212 10.3358C12.2818 10.352 12.3546 10.3258 12.3982 10.2687C13.8195 8.38294 14.0914 5.86421 13.1057 3.71622C12.12 1.56823 10.0368 0.140088 7.68629 0.000900906H7.41222C4.67294 -0.0421345 2.1404 1.45952 0.85425 3.88942C-0.431902 6.31931 -0.255 9.2681 1.31234 11.5253L7.18031 19.9435C7.20611 19.979 7.24723 20 7.29099 20C7.33475 20 7.37588 19.979 7.40168 19.9435L13.1783 11.7017C13.209 11.6636 13.2171 11.612 13.1998 11.5662C13.1824 11.5204 13.1421 11.4873 13.094 11.4794Z" fill="#FFC627"/>
</svg>
