<svg width="1366" height="52" viewBox="0 0 1366 52" fill="none" xmlns="http://www.w3.org/2000/svg">
<path fill-rule="evenodd" clip-rule="evenodd" d="M0 0L25.0433 1.2963C50.0867 2.59259 101.312 5.18519 151.398 11.6667C202.623 18.1481 252.71 28.5185 303.935 33.7037C354.022 38.8889 405.247 38.8889 455.333 31.1111C505.42 23.3333 556.645 7.77778 606.732 11.6667C657.957 15.5556 708.043 38.8889 759.268 42.7778C809.355 46.6667 860.58 31.1111 910.667 24.6296C960.753 18.1481 1011.98 20.7407 1062.06 25.9259C1113.29 31.1111 1163.38 38.8889 1214.6 35C1264.69 31.1111 1315.91 15.5556 1340.96 7.77778L1366 0V51.5H1310C1284.96 51.5 1264.69 51.5 1214.6 51.5C1163.38 51.5 1113.29 51.5 1062.06 51.5C1011.98 51.5 967.087 51.5 917 51.5C866.913 51.5 809.355 51.5 759.268 51.5C708.043 51.5 657.957 51.5 606.732 51.5C556.645 51.5 505.42 51.5 455.333 51.5C405.247 51.5 354.022 51.5 303.935 51.5C252.71 51.5 202.623 51.5 151.398 51.5C101.312 51.5 50.0867 51.5 25.0433 51.5H0V0Z" fill="#546C42"/>
</svg>
