<svg width="800" height="800" viewBox="0 0 800 800" fill="none" xmlns="http://www.w3.org/2000/svg">
<path d="M709.33 213.335L391.33 531.333C359.663 563 265.662 577.667 244.662 556.667C223.662 535.667 237.996 441.667 269.662 410L587.997 91.6673C595.847 83.1027 605.35 76.218 615.937 71.428C626.52 66.638 637.967 64.0413 649.583 63.7967C661.197 63.5523 672.743 65.6637 683.52 70.004C694.297 74.3443 704.083 80.8243 712.287 89.051C720.49 97.2777 726.943 107.081 731.253 117.87C735.563 128.659 737.647 140.209 737.37 151.824C737.093 163.439 734.463 174.878 729.647 185.45C724.827 196.022 717.917 205.508 709.33 213.335Z" stroke="white" stroke-width="50" stroke-linecap="round" stroke-linejoin="round"/>
<path d="M366.667 133.333H200C164.638 133.333 130.726 147.381 105.721 172.386C80.7167 197.391 66.667 231.304 66.667 266.667V600C66.667 635.363 80.7167 669.277 105.721 694.28C130.726 719.287 164.638 733.333 200 733.333H566.667C640.334 733.333 666.667 673.333 666.667 600V433.333" stroke="white" stroke-width="50" stroke-linecap="round" stroke-linejoin="round"/>
</svg>
