<svg width="1366" height="79" viewBox="0 0 1366 79" fill="none" xmlns="http://www.w3.org/2000/svg">
<path d="M1368 77H-2V3.15332L0.262695 3.45312L37.8193 8.4209L45.4951 9.40625C85.9116 14.5789 156.261 23.0976 227.58 20C265.628 18.3474 303.374 13.3913 341.282 9.24414C379.148 5.10168 417.125 1.77422 455.42 3.4375C493.716 5.10085 531.692 11.7521 569.563 19.417C607.482 27.0913 645.231 35.7655 683.301 41.5527C759.372 53.1168 834.326 53.1204 910.451 44.8545C948.529 40.7199 986.318 34.5184 1024.2 28.7168C1062.05 22.9189 1099.98 17.5247 1138.2 15.0342C1214.64 10.0542 1289.91 16.6941 1328.61 20.0059H1328.61L1366.18 23.3193L1368 23.4795V77Z" fill="white" stroke="#546C42" stroke-width="4"/>
<line y1="76.5" x2="1366" y2="76.5" stroke="white" stroke-width="5"/>
</svg>
