<svg width="1366" height="50" viewBox="0 0 1366 50" fill="none" xmlns="http://www.w3.org/2000/svg">
<path fill-rule="evenodd" clip-rule="evenodd" d="M0 0.435573L37.565 5.40446C76.2683 10.3733 151.398 20.3111 227.667 16.9985C303.935 13.6859 379.065 -2.87702 455.333 0.435573C531.602 3.74816 606.732 26.9363 683 38.5304C759.268 50.1245 834.398 50.1245 910.667 41.843C986.935 33.5615 1062.07 16.9985 1138.33 12.0296C1214.6 7.06076 1289.73 13.6859 1328.43 16.9985L1366 20.3111V50H1328.43C1289.73 50 1218.27 50 1142 50C1065.73 50 986.935 50 910.667 50C834.398 50 762.5 50 683 50C606.732 50 531.602 50 455.333 50C379.065 50 303.935 50 227.667 50C151.398 50 76.2683 50 37.565 50H0V0.435573Z" fill="white"/>
</svg>
