<svg width="65" height="45" viewBox="0 0 65 45" fill="none" xmlns="http://www.w3.org/2000/svg">
<path fill-rule="evenodd" clip-rule="evenodd" d="M31.2868 27.0612V21.9997V21.9987H34.0217C35.1492 21.9993 36.0969 21.6446 36.8645 20.9345C37.6404 20.2605 38.0741 19.2915 38.0521 18.2815C38.0674 17.2771 37.6345 16.3153 36.8645 15.6435C36.1036 14.9295 35.0802 14.5399 34.0217 14.5614H29.6315V27.0612H31.2868ZM31.2868 20.4637V16.1003V16.0993H34.0628C34.6815 16.0824 35.278 16.324 35.7007 16.7625C36.126 17.1637 36.3659 17.7146 36.3659 18.29C36.3659 18.8654 36.126 19.4163 35.7007 19.8174C35.2728 20.2468 34.6782 20.4814 34.0628 20.4637H31.2868Z" fill="#5F6368"/>
<path fill-rule="evenodd" clip-rule="evenodd" d="M44.7638 19.1812C44.0557 18.5469 43.0899 18.2297 41.8664 18.2297C40.2947 18.2297 39.1079 18.7883 38.3059 19.9053L39.7638 20.7959C40.3026 20.0393 41.0343 19.6609 41.959 19.6609C42.5485 19.6542 43.119 19.8633 43.5567 20.2464C43.9932 20.5964 44.2442 21.1183 44.2404 21.6676V22.0346C43.6044 21.6856 42.7949 21.511 41.8119 21.511C40.6604 21.5124 39.7399 21.7743 39.0503 22.2969C38.3608 22.8196 38.016 23.5234 38.016 24.4083C38.001 25.2142 38.3613 25.9836 38.9968 26.5028C39.6508 27.0613 40.4633 27.3406 41.4346 27.3406C42.5724 27.3406 43.4841 26.8519 44.1695 25.8745H44.2415V27.0613H45.8248V21.7903C45.8255 20.6852 45.4718 19.8155 44.7638 19.1812ZM40.2739 25.4905C39.9271 25.248 39.7226 24.8579 39.7249 24.4433C39.7249 23.9775 39.95 23.5895 40.4034 23.2704C40.8524 22.9559 41.4131 22.7986 42.0855 22.7986C43.0088 22.7986 43.7285 22.9981 44.2446 23.397C44.2446 24.0712 43.9705 24.6587 43.4221 25.1594C42.9282 25.6385 42.2586 25.9082 41.5601 25.9094C41.0944 25.9178 40.64 25.7698 40.2739 25.4905Z" fill="#5F6368"/>
<path fill-rule="evenodd" clip-rule="evenodd" d="M54.9138 18.5088L49.3865 30.8311H47.6777L49.7288 26.5195L46.0943 18.5088H47.8936L50.5205 24.6525H50.5565L53.1115 18.5088H54.9138Z" fill="#5F6368"/>
<path fill-rule="evenodd" clip-rule="evenodd" d="M24.5976 20.9086C24.5982 20.4193 24.5556 19.9308 24.4701 19.4485H17.4889V22.2142H21.4874C21.3221 23.1067 20.788 23.895 20.0089 24.3964V26.1916H22.3953C23.7925 24.9419 24.5976 23.0938 24.5976 20.9086Z" fill="#4285F4"/>
<path fill-rule="evenodd" clip-rule="evenodd" d="M17.4889 27.926C19.4866 27.926 21.1687 27.2897 22.3953 26.1926L20.0089 24.3973C19.3447 24.8342 18.4893 25.0835 17.4889 25.0835C15.558 25.0835 13.9192 23.8209 13.3331 22.1194H10.8748V23.9695C12.1314 26.395 14.6905 27.9259 17.4889 27.926Z" fill="#34A853"/>
<path fill-rule="evenodd" clip-rule="evenodd" d="M13.3332 22.1193C13.0234 21.2277 13.0234 20.2622 13.3332 19.3706V17.5205H10.8749C9.82386 19.5493 9.82386 21.9407 10.8749 23.9694L13.3332 22.1193Z" fill="#FBBC04"/>
<path fill-rule="evenodd" clip-rule="evenodd" d="M17.4889 16.4064C18.5446 16.3897 19.5647 16.7766 20.3287 17.4836L22.4415 15.434C21.1018 14.2133 19.3269 13.5431 17.4889 13.5639C14.6905 13.5641 12.1314 15.0949 10.8748 17.5205L13.3331 19.3705C13.9192 17.6691 15.558 16.4064 17.4889 16.4064Z" fill="#EA4335"/>
</svg>
