<svg width="65" height="45" viewBox="0 0 65 45" fill="none" xmlns="http://www.w3.org/2000/svg">
<path d="M38.4511 32.5123H26.8507V11.7949H38.4511V32.5123Z" fill="#FF5F00"/>
<path d="M27.5939 22.1519C27.5939 17.9492 29.574 14.2057 32.6575 11.7932C30.4026 10.029 27.5568 8.97607 24.464 8.97607C17.1421 8.97607 11.2069 14.875 11.2069 22.1519C11.2069 29.4287 17.1421 35.3276 24.464 35.3276C27.5568 35.3276 30.4026 34.2747 32.6575 32.5105C29.574 30.098 27.5939 26.3545 27.5939 22.1519Z" fill="#EB001B"/>
<path d="M54.0964 22.1519C54.0964 29.4287 48.1611 35.3276 40.8392 35.3276C37.7464 35.3276 34.9006 34.2747 32.6449 32.5105C35.7293 30.098 37.7094 26.3545 37.7094 22.1519C37.7094 17.9492 35.7293 14.2057 32.6449 11.7932C34.9006 10.029 37.7464 8.97607 40.8392 8.97607C48.1611 8.97607 54.0964 14.875 54.0964 22.1519Z" fill="#F79E1B"/>
</svg>
