<svg width="21" height="22" viewBox="0 0 21 22" fill="none" xmlns="http://www.w3.org/2000/svg">
<path d="M5.72479 5.73124C5.72479 4.47644 6.22326 3.273 7.11054 2.38572C7.99781 1.49845 9.20122 1 10.456 1C11.7108 1 12.9142 1.49845 13.8015 2.38572C14.6888 3.273 15.1872 4.47644 15.1872 5.73124C15.1872 8.34391 13.0687 11.1913 10.456 11.1913C7.84334 11.1913 5.72479 8.34391 5.72479 5.73124Z" stroke="white" stroke-width="1.4" stroke-miterlimit="10"/>
<path d="M10.4563 20.998C13.9878 21.001 14.2657 20.998 19.9125 20.998C19.2208 17.7082 15.2554 15.1843 10.4563 15.1843C5.6571 15.1843 1.68559 17.7082 1 20.998C5.61415 20.998 6.92442 21.0023 10.4563 20.998Z" stroke="white" stroke-width="1.4" stroke-miterlimit="10"/>
</svg>
