<svg width="23" height="22" viewBox="0 0 23 22" fill="none" xmlns="http://www.w3.org/2000/svg">
<path d="M1.41254 0.3C1.02594 0.3 0.712537 0.613401 0.712537 1C0.712537 1.3866 1.02594 1.7 1.41254 1.7L1.41254 0.3ZM4.19031 1L4.86941 0.830225C4.79151 0.518608 4.51152 0.3 4.19031 0.3L4.19031 1ZM6.96809 12.1111V12.8111C7.18365 12.8111 7.38718 12.7118 7.51984 12.5419C7.65249 12.372 7.69947 12.1505 7.64719 11.9413L6.96809 12.1111ZM19.1903 16.1444C19.5769 16.1444 19.8903 15.831 19.8903 15.4444C19.8903 15.0578 19.5769 14.7444 19.1903 14.7444V16.1444ZM4.74587 3.22222V2.52222C4.53032 2.52222 4.32678 2.62153 4.19413 2.79143C4.06147 2.96134 4.01449 3.18288 4.06677 3.392L4.74587 3.22222ZM21.4125 3.22222L22.0916 3.392C22.1439 3.18288 22.0969 2.96134 21.9643 2.79143C21.8316 2.62153 21.6281 2.52222 21.4125 2.52222V3.22222ZM19.1903 12.1111V12.8111C19.5115 12.8111 19.7915 12.5925 19.8694 12.2809L19.1903 12.1111ZM6.96809 12.1111L6.28899 12.2809C6.3669 12.5925 6.64689 12.8111 6.96809 12.8111V12.1111ZM1.41254 1.7L4.19031 1.7L4.19031 0.3L1.41254 0.3L1.41254 1.7ZM3.51121 1.16977L4.06677 3.392L5.42497 3.05245L4.86941 0.830225L3.51121 1.16977ZM4.06677 3.392L6.28899 12.2809L7.64719 11.9413L5.42497 3.05245L4.06677 3.392ZM6.96809 11.4111H6.41254V12.8111H6.96809V11.4111ZM6.41254 11.4111C5.10546 11.4111 4.04587 12.4707 4.04587 13.7778H5.44587C5.44587 13.2439 5.87866 12.8111 6.41254 12.8111V11.4111ZM4.04587 13.7778C4.04587 15.0849 5.10546 16.1444 6.41254 16.1444V14.7444C5.87866 14.7444 5.44587 14.3117 5.44587 13.7778H4.04587ZM6.41254 16.1444H19.1903V14.7444H6.41254V16.1444ZM4.74587 3.92222H21.4125V2.52222H4.74587V3.92222ZM20.7334 3.05245L18.5112 11.9413L19.8694 12.2809L22.0916 3.392L20.7334 3.05245ZM19.1903 11.4111H6.96809V12.8111H19.1903V11.4111ZM7.64719 11.9413L5.42497 3.05245L4.06677 3.392L6.28899 12.2809L7.64719 11.9413ZM18.4903 19.8889C18.4903 20.1159 18.3063 20.3 18.0792 20.3V21.7C19.0795 21.7 19.8903 20.8891 19.8903 19.8889H18.4903ZM18.0792 20.3C17.8522 20.3 17.6681 20.1159 17.6681 19.8889H16.2681C16.2681 20.8891 17.079 21.7 18.0792 21.7V20.3ZM17.6681 19.8889C17.6681 19.6618 17.8522 19.4778 18.0792 19.4778V18.0778C17.079 18.0778 16.2681 18.8886 16.2681 19.8889H17.6681ZM18.0792 19.4778C18.3063 19.4778 18.4903 19.6618 18.4903 19.8889H19.8903C19.8903 18.8886 19.0795 18.0778 18.0792 18.0778V19.4778ZM7.3792 19.8889C7.3792 20.1159 7.19514 20.3 6.96809 20.3V21.7C7.96834 21.7 8.7792 20.8891 8.7792 19.8889H7.3792ZM6.96809 20.3C6.74104 20.3 6.55698 20.1159 6.55698 19.8889H5.15698C5.15698 20.8891 5.96784 21.7 6.96809 21.7V20.3ZM6.55698 19.8889C6.55698 19.6618 6.74104 19.4778 6.96809 19.4778V18.0778C5.96784 18.0778 5.15698 18.8886 5.15698 19.8889H6.55698ZM6.96809 19.4778C7.19514 19.4778 7.3792 19.6618 7.3792 19.8889H8.7792C8.7792 18.8886 7.96834 18.0778 6.96809 18.0778V19.4778Z" fill="white"/>
</svg>
