<svg width="14" height="18" viewBox="0 0 14 18" fill="none" xmlns="http://www.w3.org/2000/svg">
<path fill-rule="evenodd" clip-rule="evenodd" d="M6.44152 0.3C5.27936 0.3 4.24758 1.04366 3.88007 2.14619L3.59547 3H2C1.72026 3 1.46735 3.11486 1.28586 3.3H1C0.613401 3.3 0.3 3.6134 0.3 4C0.3 4.3866 0.613401 4.7 1 4.7V17C1 17.5523 1.44772 18 2 18H12C12.5523 18 13 17.5523 13 17V4.7C13.3866 4.7 13.7 4.3866 13.7 4C13.7 3.6134 13.3866 3.3 13 3.3H12.7141C12.5327 3.11486 12.2797 3 12 3H10.4045L10.1199 2.14618C9.75242 1.04366 8.72064 0.3 7.55848 0.3H6.44152ZM8.9288 3L8.79177 2.5889C8.61482 2.05806 8.11804 1.7 7.55848 1.7H6.44152C5.88196 1.7 5.38518 2.05806 5.20823 2.5889L5.0712 3H8.9288ZM3.0288 4.7H2.4V16.6H11.6V4.7H10.9712H10H4H3.0288Z" fill="#5F6368"/>
</svg>
