<svg width="65" height="45" viewBox="0 0 65 45" fill="none" xmlns="http://www.w3.org/2000/svg">
<path d="M28.8598 30.7807H24.5322L27.239 15.0715H31.5663L28.8598 30.7807Z" fill="#15195A"/>
<path d="M44.5471 15.4557C43.6935 15.1378 42.3397 14.7869 40.6656 14.7869C36.3921 14.7869 33.3827 16.9259 33.3642 19.984C33.3287 22.2403 35.5189 23.4935 37.1569 24.2458C38.8312 25.0145 39.4003 25.5163 39.4003 26.2016C39.3833 27.2539 38.0474 27.7391 36.8015 27.7391C35.0737 27.7391 34.148 27.489 32.7411 26.9034L32.1713 26.6525L31.5657 30.1788C32.5807 30.6128 34.4506 30.998 36.3921 31.0149C40.9328 31.0149 43.889 28.909 43.924 25.65C43.9413 23.8618 42.7848 22.4915 40.2915 21.3718C38.7779 20.653 37.851 20.1684 37.851 19.4329C37.8687 18.7643 38.635 18.0796 40.3436 18.0796C41.7504 18.046 42.7841 18.3634 43.5672 18.6811L43.9586 18.8479L44.5471 15.4557Z" fill="#15195A"/>
<path fill-rule="evenodd" clip-rule="evenodd" d="M52.2935 15.0715H55.6409L59.1321 30.7804H55.1252C55.1252 30.7804 54.7331 28.9755 54.6089 28.424H49.0527C48.892 28.8416 48.1444 30.7804 48.1444 30.7804H43.6037L50.0317 16.3749C50.4771 15.3554 51.2613 15.0715 52.2935 15.0715ZM52.0269 20.8202C52.0269 20.8202 50.6556 24.313 50.2992 25.2155H53.8962C53.7182 24.4301 52.8987 20.6698 52.8987 20.6698L52.5963 19.3162C52.4689 19.6648 52.2848 20.144 52.1605 20.4672C52.0763 20.6863 52.0197 20.8337 52.0269 20.8202Z" fill="#15195A"/>
<path fill-rule="evenodd" clip-rule="evenodd" d="M5.78165 15.0715H12.7442C13.688 15.1046 14.4537 15.3887 14.7029 16.392L16.2159 23.609C16.2161 23.6097 16.2164 23.6104 16.2166 23.6111L16.6797 25.7837L20.9178 15.0715H25.4938L18.6917 30.764H14.1154L10.2583 17.1142C8.92747 16.3839 7.4086 15.7965 5.71042 15.3889L5.78165 15.0715Z" fill="#15195A"/>
</svg>
